<svg version="1.2" xmlns="http://www.w3.org/2000/svg" viewBox="0 0 2100 2100" width="2100" height="2100">
	<title>vecteezy_unique-and-modern-7-z-initials-logo-design_-ai</title>
	<style>
		.s0 { fill: #000000 } 
		.s1 { fill: #ffffff } 
		.s2 { fill: #dfdddd } 
	</style>
	<g id="_Artboards_">
	</g>
	<g id="Layer 1">
		<g id="&lt;Group&gt;">
			<path id="&lt;Path&gt;" class="s0" d="m0 0h2100v2100h-2100z"/>
			<path id="&lt;Path&gt;" class="s1" d="m-2100 0h2100v2100h-2100z"/>
			<path id="&lt;Compound Path&gt;" fill-rule="evenodd" class="s2" d="m1322.6 734.4l-9.6 14.8-136.1 208.3-242.4 371h0.1l-24.9 37.1h-126.4l388.3-594.2h-388.5v-37zm-67.7 563.7c21.8-20.1 32.8-60 32.8-119.3h29.1v186.8h-140v-40.7c37.7-4.6 63.7-13.6 78.1-26.8zm-148.7 30.4h-44.7l-24.8 37.1h140.1v-40.7q-30.3 3.6-70.6 3.6z"/>
			<path id="&lt;Compound Path&gt;" fill-rule="evenodd" class="s0" d="m-776.5 734.4l-146.6 223.9-242.4 370.2-24.8 37.1h-126.4l388.3-594.2h-388.5v-37zm-68.6 563.7c21.9-20.1 32.9-60 32.9-119.3h29.1v186.8h-140.1v-40.7c37.8-4.7 63.8-13.6 78.1-26.8zm-148.6 30.4h-44.7l-24.8 37.1h140v-40.7q-30.2 3.6-70.5 3.6z"/>
		</g>
	</g>
</svg>