<svg version="1.2" xmlns="http://www.w3.org/2000/svg" viewBox="0 0 1000 1000" width="1000"
	height="1000">
	<title>3819551-ai</title>
	<style>
		.s0 { fill: none }
		.s1 { fill: #e0e0e0 }
		.s2 { fill: #ebebeb }
		.s3 { fill: #f5f5f5 }
		.s4 { fill: #fafafa }
		.s5 { fill: #263238 }
		.s6 { fill: #000000 }
		.s7 { fill: #455a64 }
		.s8 { fill: #f9b707 }
		.s9 { fill: #ffffff }
	</style>
	<g id="Background Complete">
		<g id="&lt;Group&gt;">
			<g id="&lt;Group&gt;">
				<g id="&lt;Group&gt;">
					<g id="&lt;Group&gt;">
						<path id="&lt;Compound Path&gt;" fill-rule="evenodd" class="s0"
							d="m746.5 488c0.9-3.8 2.3-7.4 4.2-10.7l-5.8-8.9 12.3-12.8 9.1 5.6c3.3-2 6.8-3.5 10.6-4.6l2.2-10.5 17.7-0.3 2.5 10.4c3.8 1 7.4 2.4 10.8 4.3l8.9-5.9 12.7 12.3-5.5 9.2c1.9 3.3 3.5 6.8 4.6 10.6l10.4 2.2 0.3 17.7-10.4 2.5c-0.9 3.8-2.4 7.4-4.2 10.7l5.8 9-12.3 12.7-9.1-5.6c-3.3 2-6.8 3.6-10.6 4.6l-2.2 10.5-17.7 0.3-2.5-10.4c-3.8-0.9-7.4-2.4-10.8-4.2l-8.9 5.8-12.7-12.3 5.5-9.1c-2-3.3-3.5-6.9-4.6-10.6l-10.4-2.2-0.3-17.7zm23.3 10c0.2 10.5 8.8 18.9 19.3 18.7 10.5-0.2 18.8-8.8 18.7-19.3-0.2-10.5-8.8-18.9-19.3-18.7-10.5 0.2-18.9 8.8-18.7 19.3z" />
					</g>
					<g id="&lt;Group&gt;">
						<g id="&lt;Group&gt;">
							<path id="&lt;Path&gt;" class="s1"
								d="m769.8 498.1c0 0-0.3-1.7 0.3-4.7 0.6-3 2.4-7.3 6.7-10.8 2.2-1.7 4.9-3.2 8.1-3.9 3.2-0.6 6.8-0.6 10.2 0.7 1.8 0.5 3.4 1.4 5 2.5 1.6 1.1 3 2.5 4.2 4.1 2.5 3.1 3.9 7.2 4 11.4 0 4.3-1.3 8.4-3.6 11.6-1.2 1.7-2.6 3.1-4.1 4.2-1.5 1.2-3.2 2.1-4.9 2.7-3.4 1.4-7 1.5-10.2 1-3.2-0.5-6-1.9-8.2-3.6-4.4-3.3-6.3-7.6-7-10.6-0.7-2.9-0.5-4.6-0.5-4.6 0.1 0 0.1 1.7 0.9 4.5 0.8 2.9 2.7 7 7.1 10.1 2.1 1.6 4.8 2.9 7.9 3.3 3 0.5 6.4 0.3 9.7-1 1.6-0.6 3.2-1.5 4.6-2.6 1.5-1.1 2.8-2.4 3.8-4 2.3-3 3.5-6.9 3.4-10.9-0.1-4-1.4-7.9-3.7-10.9-1.1-1.5-2.5-2.8-4-3.9-1.5-1-3-1.9-4.7-2.4-3.3-1.2-6.7-1.3-9.7-0.7-3.1 0.6-5.7 1.9-7.8 3.5-4.2 3.3-6.1 7.5-6.8 10.4-0.7 2.9-0.6 4.6-0.7 4.6z" />
						</g>
					</g>
					<g id="&lt;Group&gt;">
						<g id="&lt;Group&gt;">
							<path id="&lt;Path&gt;" class="s1"
								d="m746.5 488q0 0.1-0.7 0.2-0.7 0.2-1.9 0.6-2.7 0.6-7.8 1.9l0.1-0.1c0.1 4.5 0.3 10.5 0.4 17.7l-0.2-0.3c3.2 0.7 6.7 1.4 10.5 2.2h0.2v0.2c1 3.4 2.5 7 4.6 10.5l0.1 0.2-0.1 0.1c-1.7 2.9-3.6 6-5.5 9.2l-0.1-0.5q6 5.8 12.8 12.3h-0.5c2.7-1.9 5.8-3.9 8.9-5.9l0.2-0.2 0.2 0.2c3.2 1.7 6.8 3.2 10.7 4.2h0.2l0.1 0.3c0.8 3.2 1.7 6.8 2.6 10.4l-0.5-0.4c5.6-0.1 11.5-0.2 17.7-0.3l-0.5 0.4c0.7-3.3 1.5-6.8 2.2-10.5l0.1-0.3h0.3c3.4-1 7-2.5 10.4-4.6l0.3-0.2 0.2 0.2c2.9 1.7 6 3.6 9.2 5.6h-0.6c3.9-4 8-8.3 12.3-12.7l-0.1 0.7c-1.8-2.9-3.8-5.9-5.9-9l-0.1-0.3 0.1-0.2c1.8-3.2 3.3-6.8 4.2-10.6l0.1-0.3 0.3-0.1q5.2-1.3 10.4-2.5l-0.4 0.5q-0.1-9-0.3-17.7l0.4 0.5q-5.3-1.1-10.4-2.2l-0.3-0.1-0.1-0.3c-1.1-3.7-2.6-7.2-4.6-10.5l-0.1-0.2 0.1-0.3q2.9-4.6 5.6-9.1l0.1 0.6q-6.5-6.3-12.7-12.3h0.6q-4.6 3-9 5.9l-0.2 0.1-0.3-0.1c-3.4-1.9-7-3.3-10.6-4.2l-0.3-0.1v-0.3q-1.3-5.3-2.5-10.4l0.4 0.4c-6.2 0.1-12.1 0.2-17.7 0.2l0.4-0.3c-0.8 3.7-1.5 7.1-2.2 10.5l-0.1 0.2-0.2 0.1c-3.9 1.1-7.4 2.6-10.5 4.5l-0.2 0.1-0.2-0.1c-3.3-2-6.3-3.9-9.1-5.6l0.4-0.1c-4.8 5-8.9 9.1-12.4 12.7l0.1-0.3c2.3 3.6 4.2 6.6 5.7 9l0.1 0.1v0.1c-2 3.4-3 6.1-3.6 7.9q-0.4 1.3-0.6 2.1c-0.2 0.4-0.2 0.6-0.2 0.6q0 0 0.1-0.7 0.2-0.7 0.6-2c0.5-1.9 1.5-4.6 3.4-8.1v0.2c-1.6-2.4-3.6-5.4-5.9-8.9l-0.1-0.2 0.1-0.1c3.5-3.6 7.5-7.8 12.2-12.8l0.2-0.2 0.2 0.2c2.9 1.7 5.9 3.5 9.2 5.5h-0.4c3.2-1.9 6.7-3.5 10.7-4.7l-0.3 0.3c0.7-3.3 1.4-6.8 2.2-10.4l0.1-0.4h0.3c5.6-0.1 11.5-0.2 17.7-0.3h0.3l0.1 0.3q1.2 5.1 2.6 10.4l-0.4-0.3c3.7 0.9 7.4 2.3 10.9 4.3h-0.5q4.4-2.9 8.9-5.9l0.4-0.2 0.2 0.3q6.3 6 12.8 12.3l0.3 0.3-0.3 0.3q-2.7 4.5-5.5 9.1v-0.5c2 3.3 3.6 6.9 4.7 10.7l-0.4-0.3q5.1 1.1 10.4 2.2h0.4v0.5q0.2 8.7 0.3 17.6v0.5l-0.4 0.1q-5.1 1.2-10.4 2.5l0.4-0.4c-0.9 3.9-2.5 7.6-4.3 10.9v-0.6c2 3.1 4 6.2 5.9 9l0.2 0.3-0.3 0.3c-4.2 4.4-8.4 8.7-12.3 12.8l-0.3 0.2-0.3-0.2c-3.2-1.9-6.3-3.8-9.2-5.5h0.5c-3.4 2.1-7.1 3.6-10.7 4.6l0.4-0.4c-0.8 3.7-1.5 7.2-2.2 10.5l-0.1 0.4h-0.4c-6.1 0.1-12.1 0.2-17.7 0.3h-0.4v-0.4c-0.9-3.6-1.8-7.2-2.6-10.4l0.4 0.3c-4-1-7.7-2.5-10.9-4.3h0.5c-3.2 2.1-6.2 4-9 5.8l-0.3 0.2-0.2-0.2q-6.7-6.5-12.7-12.3l-0.2-0.2 0.1-0.3c2-3.2 3.9-6.3 5.6-9.1v0.3c-2.1-3.5-3.6-7.1-4.6-10.7l0.3 0.3c-3.8-0.8-7.3-1.6-10.5-2.3h-0.2v-0.2c-0.1-7.2-0.1-13.2-0.2-17.7v-0.2h0.1q5.1-1.2 7.8-1.8 1.2-0.3 2-0.4 0.6-0.2 0.7-0.2z" />
						</g>
					</g>
				</g>
			</g>
		</g>
		<g id="&lt;Group&gt;">
			<g id="&lt;Group&gt;">
				<g id="&lt;Group&gt;">
					<path id="&lt;Compound Path&gt;" fill-rule="evenodd" class="s1"
						d="m228.8 439.2c1.1-4.2 2.7-8.2 4.8-12l-6.6-10 13.8-14.2 10.2 6.2c3.7-2.2 7.6-3.9 11.9-5.1l2.4-11.7 19.8-0.4 2.8 11.7c4.3 1 8.3 2.6 12 4.7l10.1-6.5 14.2 13.7-6.2 10.3c2.2 3.6 3.9 7.6 5.1 11.8l11.7 2.4 0.3 19.8-11.6 2.9c-1 4.2-2.7 8.2-4.7 12l6.5 10-13.8 14.2-10.2-6.2c-3.6 2.2-7.6 3.9-11.8 5.1l-2.5 11.7-19.8 0.4-2.8-11.7c-4.3-1-8.3-2.6-12-4.7l-10 6.5-14.3-13.7 6.3-10.3c-2.2-3.6-4-7.6-5.2-11.8l-11.7-2.4-0.3-19.8zm26.1 11.2c0.2 11.7 9.8 21.1 21.6 20.9 11.7-0.2 21.1-9.9 20.9-21.6-0.2-11.7-9.9-21.1-21.6-20.9-11.8 0.2-21.1 9.9-20.9 21.6z" />
				</g>
			</g>
		</g>
		<g id="&lt;Group&gt;">
			<g id="&lt;Group&gt;">
				<g id="&lt;Group&gt;">
					<path id="&lt;Compound Path&gt;" fill-rule="evenodd" class="s1"
						d="m684.9 388.1q0.5-1.9 1.4-3.5l-1.9-2.9 4-4.1 2.9 1.8q1.6-1 3.5-1.5l0.7-3.4h5.7l0.8 3.3q1.8 0.5 3.5 1.4l2.9-1.9 4.1 4-1.8 2.9q0.9 1.6 1.5 3.4l3.3 0.7 0.1 5.8-3.3 0.8q-0.5 1.8-1.4 3.4l1.9 2.9-4 4.1-2.9-1.8q-1.6 1-3.5 1.5l-0.7 3.4-5.7 0.1-0.8-3.4q-1.8-0.4-3.5-1.3l-2.9 1.9-4.1-4 1.8-3q-0.9-1.6-1.4-3.4l-3.4-0.7-0.1-5.7zm7.5 3.2c0.1 3.4 2.9 6.1 6.2 6.1 3.4-0.1 6.1-2.9 6.1-6.3-0.1-3.3-2.9-6-6.3-6-3.3 0.1-6 2.9-6 6.2z" />
				</g>
			</g>
		</g>
		<g id="&lt;Group&gt;">
			<g id="&lt;Group&gt;">
				<g id="&lt;Group&gt;">
					<path id="&lt;Compound Path&gt;" fill-rule="evenodd" class="s2"
						d="m97.2 447.2q0.6-2.5 1.9-4.7l-2.7-4.1 5.6-5.6 4 2.4q2.2-1.3 4.8-2l0.9-4.7 8-0.1 1.1 4.6q2.5 0.7 4.8 1.9l4-2.6 5.7 5.5-2.5 4.1q1.3 2.2 2 4.7l4.7 1 0.2 7.9-4.7 1.2q-0.6 2.5-1.9 4.8l2.6 4-5.5 5.6-4.1-2.4q-2.2 1.3-4.7 2l-1 4.7-7.9 0.1-1.1-4.6q-2.6-0.7-4.8-1.9l-4 2.6-5.7-5.5 2.5-4.1q-1.3-2.2-2.1-4.7l-4.6-1-0.2-7.9zm10.4 4.5c0.1 4.6 4 8.4 8.7 8.3 4.7-0.1 8.4-3.9 8.3-8.6-0.1-4.7-3.9-8.4-8.6-8.4-4.7 0.1-8.4 4-8.4 8.7z" />
				</g>
			</g>
		</g>
		<g id="&lt;Group&gt;">
			<g id="&lt;Group&gt;">
				<g id="&lt;Group&gt;">
					<path id="&lt;Compound Path&gt;" fill-rule="evenodd" class="s2"
						d="m816.7 319.8c0.9-3.8 2.4-7.5 4.3-10.9l-6-9.2 12.6-13 9.4 5.7c3.3-2 7-3.6 10.8-4.7l2.3-10.7 18.1-0.3 2.6 10.6c3.8 1 7.5 2.4 10.9 4.3l9.2-5.9 13 12.5-5.7 9.4c2 3.3 3.6 7 4.7 10.8l10.7 2.3 0.3 18.1-10.6 2.6c-1 3.9-2.4 7.5-4.3 10.9l5.9 9.2-12.6 13-9.3-5.7c-3.4 2.1-7 3.6-10.8 4.7l-2.3 10.7-18.1 0.3-2.6-10.6c-3.9-1-7.5-2.4-11-4.3l-9.1 6-13-12.6 5.7-9.4c-2.1-3.3-3.7-7-4.7-10.8l-10.7-2.3-0.3-18.1zm23.8 10.3c0.2 10.7 9 19.3 19.8 19.1 10.7-0.2 19.2-9 19.1-19.7-0.2-10.8-9-19.3-19.8-19.2-10.7 0.2-19.3 9.1-19.1 19.8z" />
				</g>
			</g>
		</g>
		<g id="&lt;Group&gt;">
			<g id="&lt;Group&gt;">
				<g id="&lt;Group&gt;">
					<path id="&lt;Compound Path&gt;" fill-rule="evenodd" class="s3"
						d="m125.9 621.7c0.9-3.6 2.2-6.9 3.9-10l-5.4-8.3 11.4-11.8 8.5 5.2c3-1.8 6.3-3.3 9.8-4.3l2-9.7 16.4-0.2 2.3 9.6c3.5 0.9 6.9 2.2 10 3.9l8.3-5.4 11.7 11.4-5.1 8.5c1.8 3 3.3 6.3 4.2 9.8l9.7 2 0.3 16.4-9.6 2.4c-0.9 3.5-2.2 6.8-3.9 9.9l5.4 8.3-11.4 11.8-8.5-5.2c-3 1.8-6.3 3.3-9.8 4.3l-2 9.7-16.4 0.2-2.4-9.6c-3.5-0.9-6.8-2.2-9.9-3.9l-8.3 5.4-11.8-11.4 5.2-8.5c-1.9-3-3.3-6.3-4.3-9.8l-9.7-2-0.2-16.4zm21.6 9.3c0.1 9.7 8.1 17.4 17.8 17.3 9.7-0.2 17.5-8.2 17.3-17.9-0.1-9.7-8.1-17.4-17.8-17.3-9.7 0.2-17.5 8.2-17.3 17.9z" />
				</g>
			</g>
		</g>
		<g id="&lt;Group&gt;">
			<g id="&lt;Group&gt;">
				<g id="&lt;Group&gt;">
					<path id="&lt;Compound Path&gt;" fill-rule="evenodd" class="s3"
						d="m469.8 282.6q0.6-2.3 1.7-4.4l-2.4-3.6 5-5.1 3.7 2.2q2-1.2 4.2-1.8l0.9-4.2 7.2-0.2 1 4.2q2.3 0.6 4.3 1.7l3.6-2.3 5.2 4.9-2.3 3.7q1.2 2 1.9 4.3l4.2 0.9 0.1 7.1-4.2 1q-0.6 2.3-1.7 4.4l2.4 3.6-5 5.1-3.7-2.2q-2 1.2-4.3 1.8l-0.8 4.2-7.2 0.2-1-4.2q-2.3-0.6-4.3-1.7l-3.6 2.3-5.2-4.9 2.3-3.7q-1.2-2-1.9-4.3l-4.2-0.9-0.1-7.1zm9.4 4c0.1 4.3 3.5 7.6 7.8 7.6 4.2-0.1 7.6-3.6 7.5-7.8-0.1-4.3-3.5-7.6-7.8-7.6-4.2 0.1-7.6 3.6-7.5 7.8z" />
				</g>
			</g>
		</g>
		<g id="&lt;Group&gt;">
			<g id="&lt;Group&gt;">
				<g id="&lt;Group&gt;">
					<g id="&lt;Group&gt;">
						<g id="&lt;Group&gt;">
							<path id="&lt;Path&gt;" class="s2"
								d="m839.9 781.8c9-4.6 19.6-5.2 29.6-3.6 5.4 0.9 10.9 2.5 14.6 6.6 3.6 4 4.3 11.1 0.1 14.5-2.4 2.1-5.9 2.4-9.2 2.4-7.8-0.1-16.5-1.5-22.7 3.2-3.6 2.7-5.9 7.2-10.2 8.5-4.2 1.3-8.9-1.2-11.1-4.9-2.2-3.8-2.3-8.5-1.2-12.7 0 0 1.1-9.3 10.1-14z" />
						</g>
					</g>
				</g>
				<g id="&lt;Group&gt;">
					<g id="&lt;Group&gt;">
						<g id="&lt;Group&gt;">
							<path id="&lt;Path&gt;" class="s2"
								d="m819.3 742.1c5.5 7.8 16.2 5.2 21.2 0.4 4.9-4.8 7-11.7 8.9-18.3 4.4-15.2 8.8-31.1 5.5-46.5-0.9-4.6-2.7-9.2-5.9-12.6-3.2-3.4-8.2-5.5-12.8-4.3-5.4 1.5-8.7 6.7-11.1 11.8-7.2 14.7-10.9 31.1-11 47.5 0 7.6 0.9 15.6 5.2 22z" />
						</g>
					</g>
				</g>
				<g id="&lt;Group&gt;">
					<g id="&lt;Group&gt;">
						<g id="&lt;Group&gt;">
							<path id="&lt;Path&gt;" class="s2"
								d="m804.2 753.3c6-7.1 7.1-17.4 4.5-26.3-2.7-8.8-8.7-16.4-15.6-22.6-8.1-7.2-17.7-12.8-27.9-16.4-4-1.4-8.3-2.6-12.6-2.2-4.2 0.4-8.5 2.6-10.5 6.4-2.9 5.6-0.1 12.4 2.9 17.9 5.4 9.8 11.5 19.1 18.4 27.9 5.4 7.1 11.7 14.1 20.1 17.3 8.4 3.2 17.1 2.8 21.5-3" />
						</g>
					</g>
				</g>
				<g id="&lt;Group&gt;">
					<g id="&lt;Group&gt;">
						<g id="&lt;Group&gt;">
							<g id="&lt;Group&gt;">
								<path id="&lt;Path&gt;" class="s1"
									d="m818.9 860.6c0.1 0 0.3-1.3 0.5-3.6q0.4-3.9 1-9.8c0.4-4.1 1-8.9 2.2-14.2 1.1-5.3 2.9-11.1 5.2-16.9 2.3-5.8 5.2-11.1 8.6-15.3 3.3-4.2 7.2-7.3 10.9-9 3.6-1.8 6.9-2.5 9.1-2.9 2.3-0.2 3.6-0.4 3.6-0.5 0-0.1-1.3-0.1-3.6 0-2.3 0.1-5.7 0.7-9.6 2.4-3.8 1.8-8 4.9-11.5 9.2-3.5 4.3-6.5 9.6-8.9 15.5-2.3 6-4.1 11.8-5.2 17.2-1 5.4-1.5 10.3-1.9 14.4-0.3 4.2-0.4 7.5-0.4 9.8-0.1 2.4-0.1 3.6 0 3.7z" />
							</g>
						</g>
					</g>
				</g>
				<g id="&lt;Group&gt;">
					<g id="&lt;Group&gt;">
						<g id="&lt;Group&gt;">
							<g id="&lt;Group&gt;">
								<path id="&lt;Path&gt;" class="s1"
									d="m819.6 853.1q0.1-0.1 0.1-1.7 0-1.9 0-4.7c0-4.1 0-10.1 0.2-17.4 0.4-14.7 1.6-30.5 4.1-52.8 2.3-21 5.4-45.4 8.7-61.2 0.7-3.6 1.4-6.9 2-9.7 0.7-2.9 1.2-5.3 1.8-7.3q0.6-2.8 1.1-4.6 0.3-1.6 0.2-1.7 0 0-0.5 1.6-0.6 1.8-1.4 4.5c-0.6 2-1.2 4.4-2 7.3-0.7 2.8-1.5 6-2.2 9.6-3.3 14.4-6.7 34.5-9.2 56.8-2.4 22.4-3.5 42.7-3.6 57.4-0.1 7.4 0 13.4 0.2 17.5q0.2 2.9 0.3 4.7 0.1 1.6 0.2 1.7z" />
							</g>
						</g>
					</g>
				</g>
				<g id="&lt;Group&gt;">
					<g id="&lt;Group&gt;">
						<g id="&lt;Group&gt;">
							<g id="&lt;Group&gt;">
								<path id="&lt;Path&gt;" class="s1"
									d="m819.7 813.8c0.1 0 0.1-1.7 0-4.9-0.2-3.2-0.6-7.8-1.5-13.4-1-5.6-2.3-12.3-4.4-19.5-0.9-3.4-3-11.3-8.2-23.2-6.7-16-15.9-29.2-23.9-37.3-1.9-2.2-4-3.7-5.7-5.2-0.9-0.8-1.6-1.5-2.4-2.1q-1.2-0.8-2.2-1.5c-2.6-1.8-4.1-2.7-4.2-2.7-0.2 0.4 5.9 4 13.7 12.2 7.7 8.2 16.7 21.3 23.4 37.2 3.7 8.7 6.3 16.4 8.2 22.9 2.1 7.2 3.6 13.8 4.6 19.4 1.1 5.5 1.6 10.1 2 13.2 0.3 3.2 0.5 4.9 0.6 4.9z" />
							</g>
						</g>
					</g>
				</g>
			</g>
			<g id="&lt;Group&gt;">
				<g id="&lt;Group&gt;">
					<g id="&lt;Group&gt;">
						<path id="&lt;Path&gt;" class="s1" d="m781.8 883l3.9 53.9h69.2l3.9-53.9z" />
					</g>
				</g>
			</g>
			<g id="&lt;Group&gt;">
				<g id="&lt;Group&gt;">
					<g id="&lt;Group&gt;">
						<path id="&lt;Path&gt;" class="s1" d="m775.1 861.8v21.2h92v-21.2z" />
					</g>
				</g>
			</g>
			<g id="&lt;Group&gt;">
				<g id="&lt;Group&gt;">
					<g id="&lt;Group&gt;">
						<path id="&lt;Path&gt;" class="s2" d="m775.1 934.8v5.9h4.3 86.2v-5.9z" />
					</g>
				</g>
			</g>
			<g id="&lt;Group&gt;">
				<g id="&lt;Group&gt;">
					<g id="&lt;Group&gt;">
						<path id="&lt;Path&gt;" class="s1" d="m783.7 951l-4.3-10.3h82.9l-5 10.3z" />
					</g>
				</g>
			</g>
			<g id="&lt;Group&gt;">
				<g id="&lt;Group&gt;">
					<g id="&lt;Group&gt;">
						<g id="&lt;Group&gt;">
							<path id="&lt;Path&gt;" class="s3"
								d="m857.5 900.6q0.1 0-0.3 0.5-0.4 0.6-1 1.4-1.5 1.9-4 5.1l-0.2 0.3-0.2-0.3c-2.5-3.5-5.9-8.2-9.9-13.7h0.6c-3 4.2-6.2 8.9-9.8 13.8l-0.3 0.5-0.3-0.4c-3.6-4.3-7.5-9-11.6-13.8h0.7q-0.3 0.4-0.6 0.8c-3.6 4.5-7.1 8.8-10.4 13l-0.3 0.4-0.3-0.5c-3.6-4.9-6.8-9.6-9.8-13.8l0.6 0.1c-4.8 5.4-8.9 10.1-12 13.7l-0.2 0.2-0.2-0.3q-2.4-4-3.8-6.3-0.6-1-0.9-1.7-0.4-0.6-0.3-0.6 0 0 0.4 0.6 0.4 0.6 1 1.6 1.5 2.3 4 6.2h-0.4c3.1-3.7 7.1-8.4 11.8-13.9l0.3-0.3 0.3 0.3c3 4.2 6.3 8.8 9.8 13.8l-0.6-0.1c3.2-4.1 6.7-8.4 10.3-12.9q0.3-0.4 0.6-0.8l0.3-0.4 0.4 0.4c4 4.8 7.9 9.5 11.5 13.7l-0.6 0.1c3.5-5 6.8-9.6 9.8-13.8l0.3-0.4 0.3 0.4c3.9 5.6 7.2 10.3 9.7 13.9h-0.4q2.7-3.2 4.2-5.1 0.7-0.7 1.1-1.3 0.4-0.4 0.4-0.4z" />
						</g>
					</g>
				</g>
			</g>
			<g id="&lt;Group&gt;">
				<g id="&lt;Group&gt;">
					<g id="&lt;Group&gt;">
						<g id="&lt;Group&gt;">
							<path id="&lt;Path&gt;" class="s3"
								d="m859.8 882.7c0 0.2-17.3 0.4-38.7 0.4-21.4 0-38.7-0.2-38.7-0.4 0-0.3 17.3-0.5 38.7-0.5 21.4 0 38.7 0.2 38.7 0.5z" />
						</g>
					</g>
				</g>
			</g>
			<g id="&lt;Group&gt;">
				<g id="&lt;Group&gt;">
					<g id="&lt;Group&gt;">
						<g id="&lt;Group&gt;">
							<path id="&lt;Path&gt;" class="s3"
								d="m863.3 941.3c0 0.2-18.8 0.4-42.1 0.4-23.2 0-42.1-0.2-42.1-0.4 0-0.3 18.9-0.5 42.1-0.5 23.3 0 42.1 0.2 42.1 0.5z" />
						</g>
					</g>
				</g>
			</g>
		</g>
		<g id="&lt;Group&gt;">
			<g id="&lt;Group&gt;">
				<path id="&lt;Path&gt;" class="s2"
					d="m134.8 338.3c0 0 1.3-0.1 3.6 0 1.2-0.1 2.6 0 4.2 0.1 1.7 0.1 3.5 0.2 5.6 0.4 4.1 0.4 9 1.2 14.3 2.3 5.4 1.2 11.2 2.8 17.1 4.9 5.9 2.2 11.4 4.7 16.2 7.3 4.9 2.5 9.1 5.1 12.5 7.5 1.7 1.1 3.2 2.3 4.5 3.2 1.3 1 2.4 1.9 3.3 2.6 1.8 1.5 2.7 2.4 2.7 2.4-0.1 0.1-1.1-0.7-3-2-0.9-0.7-2-1.6-3.4-2.5-1.3-0.9-2.8-2-4.5-3.1-3.5-2.3-7.7-4.8-12.5-7.3-4.8-2.4-10.3-4.9-16.2-7.1-5.9-2.1-11.6-3.7-16.9-5-5.3-1.2-10.1-2-14.2-2.5-2-0.3-3.9-0.4-5.5-0.5-1.6-0.2-3-0.3-4.2-0.3-2.3-0.2-3.6-0.3-3.6-0.4z" />
			</g>
		</g>
		<g id="&lt;Group&gt;">
			<g id="&lt;Group&gt;">
				<path id="&lt;Path&gt;" class="s2"
					d="m97.8 561.2q0-0.1 1.1-1 1.2-0.9 3.2-2.4c1.3-1 3.1-2.3 5.2-3.7 2-1.3 4.3-3 7-4.6 2.7-1.6 5.6-3.4 8.9-5.1 3.2-1.8 6.7-3.5 10.4-5.3 7.5-3.5 16-7 25.1-9.9 9.1-2.8 18-4.9 26.1-6.4 4.1-0.6 8-1.3 11.7-1.6 3.6-0.5 7-0.7 10.1-0.9 3.2-0.3 6-0.3 8.5-0.3 2.5-0.1 4.6-0.1 6.3 0q2.5 0.1 4.1 0.1 1.4 0.1 1.4 0.1-0.1 0.1-1.4 0.1-1.6 0-4.1 0.1c-1.7 0-3.8 0-6.3 0.1-2.5 0.2-5.3 0.2-8.4 0.5-3.1 0.2-6.5 0.5-10.1 1-3.7 0.4-7.5 1.1-11.6 1.8-8.1 1.5-16.9 3.6-26 6.4-9.1 2.9-17.5 6.3-25 9.7-3.7 1.8-7.2 3.5-10.4 5.3-3.3 1.6-6.2 3.4-8.9 5-2.7 1.5-5 3.1-7.1 4.4-2.1 1.3-3.9 2.5-5.3 3.5q-2.1 1.5-3.3 2.3-1.2 0.8-1.2 0.8z" />
			</g>
		</g>
		<g id="&lt;Group&gt;">
			<g id="&lt;Group&gt;">
				<path id="&lt;Path&gt;" class="s2"
					d="m241.5 668.7q0-0.1 0.2-1.1 0.2-1.2 0.6-3.1c0.2-1.3 0.6-2.9 1.1-4.8 0.4-1.9 0.9-4 1.6-6.3 1.3-4.7 3.1-10.2 5.4-16.2 2.3-6 5-12.5 8.3-19.1 3.4-6.7 6.9-12.8 10.3-18.2 3.5-5.4 6.8-10.1 9.8-14 1.4-1.9 2.9-3.6 4.1-5.1 1.2-1.5 2.3-2.7 3.2-3.7q1.2-1.4 2.1-2.4 0.7-0.7 0.8-0.7 0 0-0.7 0.9-0.7 1-1.9 2.4c-0.9 1.1-1.9 2.4-3.1 3.9-1.1 1.5-2.5 3.2-3.9 5.2-2.9 3.9-6.1 8.6-9.6 14-3.3 5.5-6.8 11.5-10.1 18.1-3.3 6.6-6.1 13.1-8.5 19-2.2 6-4.1 11.4-5.5 16.1-0.7 2.3-1.3 4.4-1.8 6.2-0.5 1.9-0.9 3.5-1.2 4.8q-0.5 1.8-0.8 3-0.3 1.1-0.4 1.1z" />
			</g>
		</g>
		<g id="&lt;Group&gt;">
			<g id="&lt;Group&gt;">
				<path id="&lt;Path&gt;" class="s2"
					d="m513.2 119.7q0.1 0-0.7 1.2-0.9 1.3-2.4 3.4c-1.1 1.4-2.4 3.2-3.8 5.3-1.4 2.1-3.1 4.5-4.8 7.2-1.7 2.7-3.6 5.7-5.4 8.9-2 3.3-3.9 6.8-5.9 10.5-4 7.5-8 15.9-11.7 25-3.7 9-6.6 17.8-9.1 26-1.1 4-2.2 7.9-3.1 11.6-0.9 3.6-1.6 7.1-2.3 10.2-0.7 3.1-1.1 6-1.6 8.5-0.4 2.5-0.8 4.7-1 6.4q-0.4 2.6-0.6 4.1-0.3 1.4-0.3 1.4-0.1 0 0-1.4 0.2-1.6 0.5-4.1c0.2-1.8 0.4-4 0.9-6.5 0.4-2.5 0.8-5.4 1.4-8.5 0.6-3.2 1.3-6.7 2.2-10.3 0.8-3.7 1.9-7.6 3-11.7 2.4-8.2 5.4-17 9-26.1 3.8-9.1 7.8-17.5 11.8-25 2.1-3.7 4-7.3 6-10.5 1.9-3.3 3.9-6.2 5.6-8.9 1.7-2.7 3.5-5 4.9-7.1 1.5-2.1 2.8-3.9 3.9-5.3q1.6-2 2.6-3.2 0.9-1.1 0.9-1.1z" />
			</g>
		</g>
		<g id="&lt;Group&gt;">
			<g id="&lt;Group&gt;">
				<path id="&lt;Path&gt;" class="s2"
					d="m693.3 327.5q0 0-1.2 0.2-1.3 0.2-3.5 0.5-1.1 0.1-2.5 0.3c-0.9 0.1-1.9 0.3-2.9 0.5-2.1 0.4-4.5 0.8-7.1 1.5q-2 0.5-4.1 1.1c-1.5 0.4-2.9 0.9-4.4 1.4-3.1 0.9-6.2 2.3-9.5 3.6-6.5 2.9-13.5 6.7-20.2 11.4-6.8 4.8-12.6 10-17.6 15.2-2.4 2.6-4.7 5.1-6.6 7.7-0.9 1.2-2 2.4-2.8 3.6q-1.2 1.8-2.4 3.5c-1.6 2.2-2.7 4.4-3.8 6.2-0.6 0.9-1.1 1.8-1.6 2.6q-0.6 1.2-1.1 2.2-1 1.9-1.6 3.1-0.6 1.1-0.6 1.1-0.1-0.1 0.4-1.2 0.6-1.2 1.5-3.2 0.4-1 1-2.3c0.4-0.8 0.9-1.6 1.5-2.6 1-1.9 2.1-4.1 3.7-6.3q1.1-1.7 2.4-3.6c0.8-1.2 1.8-2.4 2.7-3.7 1.9-2.6 4.2-5.1 6.6-7.8 5-5.2 10.9-10.6 17.7-15.4 6.8-4.7 13.8-8.5 20.4-11.4 3.4-1.3 6.5-2.6 9.6-3.5 1.5-0.5 3-1 4.4-1.4q2.2-0.5 4.2-1c2.6-0.7 5.1-1 7.2-1.4 1.1-0.1 2.1-0.3 3-0.4q1.3-0.1 2.5-0.2 2.1-0.2 3.5-0.3 1.2-0.1 1.2 0z" />
			</g>
		</g>
		<g id="&lt;Group&gt;">
			<g id="&lt;Group&gt;">
				<path id="&lt;Path&gt;" class="s2"
					d="m840.4 446.5q0 0-0.6-0.2-0.5-0.2-1.5-0.5-2.1-0.7-5.7-2-1.9-0.7-4.1-1.5c-1.6-0.6-3.2-1.1-5-1.6-3.6-1.2-7.7-2.6-12.3-3.7q-3.4-1-7.1-2c-2.5-0.7-5.2-1.2-7.9-1.8-5.4-1.4-11.2-2.4-17.4-3.5-12.3-1.9-26-3.5-40.5-4-14.4-0.3-28.2 0.3-40.6 1.5-6.2 0.8-12.1 1.4-17.6 2.4-2.8 0.5-5.4 0.8-8 1.4q-3.7 0.7-7.2 1.5c-4.7 0.8-8.8 2-12.5 2.9-1.8 0.5-3.5 0.9-5 1.3q-2.3 0.7-4.3 1.3-3.7 1.1-5.8 1.7-0.9 0.2-1.5 0.4-0.6 0.1-0.6 0.1 0 0 0.5-0.2 0.6-0.2 1.5-0.5 2.1-0.7 5.8-1.9 1.9-0.6 4.2-1.4c1.6-0.4 3.3-0.9 5.1-1.4 3.6-0.9 7.8-2.1 12.4-3.1q3.5-0.7 7.3-1.5c2.5-0.6 5.2-1 7.9-1.4 5.5-1.1 11.5-1.7 17.7-2.5 12.5-1.3 26.3-2 40.8-1.6 14.5 0.5 28.2 2.1 40.6 4.1 6.1 1.1 12 2.1 17.4 3.5 2.7 0.7 5.4 1.2 7.9 1.9q3.7 1.1 7.1 2c4.6 1.3 8.7 2.7 12.2 3.9 1.8 0.6 3.5 1.1 5 1.7q2.3 0.9 4.1 1.6 3.7 1.4 5.7 2.2 0.9 0.4 1.5 0.7 0.5 0.2 0.5 0.2z" />
			</g>
		</g>
	</g>
	<g id="Speech Bubble">
		<g id="&lt;Group&gt;">
			<g id="&lt;Group&gt;">
				<g id="&lt;Group&gt;">
					<path id="&lt;Path&gt;" class="s4"
						d="m529.5 118.7v57c-12.9 12.7-59.7 59.9-59.7 59.9h59.7v44.9c0 15.9 12.8 28.8 28.7 28.9l331 3.2c16.1 0.1 29.2-12.9 29.2-29v-164.9c0-16-13-29-29-29h-330.9c-16 0-29 13-29 29z" />
				</g>
				<g id="&lt;Group&gt;">
					<g id="&lt;Group&gt;">
						<path id="&lt;Path&gt;" class="s5"
							d="m529.5 118.7c0 0 0-1.1 0.1-3.3 0.3-2.1 0.8-5.3 2.6-9.1 0.8-2 2.1-3.9 3.7-6 1.6-2 3.7-4 6.2-5.7 2.5-1.8 5.6-3.2 9-4.1 3.4-1 7.3-1.1 11.2-1 31.8-0.1 77.7-0.2 134.5-0.2 28.4-0.1 59.5-0.1 92.8-0.1q25.1 0 51.8-0.1 13.3 0 27 0 6.9 0 13.8 0 3.5 0 7 0c1.2 0.1 2.4 0.1 3.6 0.2 1.1 0.2 2.3 0.3 3.5 0.6 9.3 2.2 17.6 9.3 20.9 18.6 0.9 2.3 1.3 4.7 1.7 7.1 0.1 2.5 0.1 4.9 0.1 7.4q0 7.3 0 14.6 0 29.5 0 60.2 0 30.6 0 62.3 0 7.9 0 15.8 0 4 0 8c0 2.7-0.4 5.5-1.2 8.1-1.5 5.2-4.6 10.1-8.7 13.7-2 1.8-4.3 3.4-6.8 4.6-2.5 1.2-5.2 2-7.9 2.5-2.6 0.5-5.3 0.4-7.8 0.4l-7.7-0.1q-7.7-0.1-15.4-0.1-15.3-0.2-30.4-0.3-30.2-0.3-59.5-0.6c-39.1-0.4-76.8-0.7-112.8-1.1-36-0.4-70.4-0.7-102.6-1-8.3-0.1-16.2-3.8-21.5-9.7-5.4-5.8-8-13.8-7.7-21.4q0-22.5 0-43.3l0.5 0.5c-21.7-0.1-41.5-0.1-59.7-0.1h-1l0.7-0.7c24.2-24.2 44.2-44.2 59.8-59.8l-0.1 0.2c0.1-18.5 0.1-32.8 0.2-42.4q0-7.2 0-10.9c0.1-2.5 0.1-3.7 0.1-3.7 0 0 0.1 1.2 0.1 3.7q0 3.7 0 10.9c0.1 9.6 0.1 23.9 0.2 42.4v0.1l-0.1 0.1c-15.6 15.7-35.5 35.7-59.6 60l-0.3-0.7c18.2 0 38-0.1 59.7-0.1h0.5v0.5q0 20.8 0 43.3c-0.3 7.5 2.3 15.1 7.5 20.7 5.1 5.7 12.8 9.2 20.7 9.3 32.2 0.3 66.6 0.6 102.6 0.9 36 0.3 73.8 0.7 112.8 1q29.3 0.3 59.5 0.6 15.1 0.1 30.4 0.3 7.7 0 15.4 0.1l7.7 0.1c2.6 0 5.1 0.1 7.6-0.4 10.5-1.7 19.5-9.8 22.4-19.9 0.7-2.5 1.1-5.1 1.1-7.7q0-4 0-8 0-7.9 0-15.8 0-31.7 0-62.3 0.1-30.7 0.1-60.2 0-7.3 0-14.6c0-2.5 0-4.9-0.2-7.2-0.3-2.4-0.7-4.7-1.6-6.9-3.1-8.9-11-15.7-20-17.8-4.4-1.2-9.1-0.7-13.8-0.8q-6.9 0-13.8 0-13.7 0-27 0-26.7 0-51.8 0c-33.3-0.1-64.4-0.1-92.8-0.1-56.8-0.1-102.7-0.2-134.5-0.2-4-0.1-7.7 0-11.1 0.9-3.4 0.9-6.4 2.3-8.9 4-2.5 1.7-4.5 3.7-6.2 5.6-1.5 2-2.9 4-3.7 5.9-3.5 7.6-2.6 12.4-2.9 12.3z" />
					</g>
				</g>
			</g>
			<g id="&lt;Group&gt;">
				<path id="&lt;Compound Path&gt;" class="s6"
					d="m1347.6 597.3h-6.7v8.9h-3.4v-8.9h-19v-2.5l17.8-22.2h3.9l-17.2 21.7h14.6v-7.8h3.3v7.8h6.7z" />
				<path id="&lt;Compound Path&gt;" fill-rule="evenodd" class="s6"
					d="m1271.8 577.4c0-10.7 5.6-17.1 13.3-17.1 7.8 0 13.5 6.4 13.5 17.1 0 10.7-5.7 17-13.5 17-7.7 0-13.3-6.3-13.3-17zm23.2 0c0-9-4-13.9-9.9-13.9-5.8 0-9.8 4.9-9.8 13.9 0 8.9 4 13.9 9.8 13.9 5.9 0 9.9-5 9.9-13.9z" />
				<path id="&lt;Compound Path&gt;" class="s6"
					d="m1347 588.3h-6.7v8.9h-3.5v-8.9h-18.9v-2.5l17.8-22.2h3.8l-17.1 21.7h14.5v-7.8h3.4v7.8h6.7z" />
			</g>
			<g id="&lt;Group&gt;">
				<path id="&lt;Compound Path&gt;" class="s6"
					d="m740.6 255.1v3.1h-23.7v-33.6h23v3.1h-19.4v11.9h17.3v3h-17.3v12.5z" />
				<path id="&lt;Compound Path&gt;" class="s6"
					d="m760.9 232.8v3.3c-0.3 0-0.5-0.1-0.8-0.1-5.2 0-8.5 3.4-8.5 9.3v12.9h-3.4v-25.2h3.3v4.9c1.6-3.4 4.8-5.1 9.4-5.1z" />
				<path id="&lt;Compound Path&gt;" class="s6"
					d="m779.8 232.8v3.3c-0.3 0-0.6-0.1-0.9-0.1-5.2 0-8.4 3.4-8.4 9.3v12.9h-3.4v-25.2h3.2v4.9c1.6-3.4 4.8-5.1 9.5-5.1z" />
				<path id="&lt;Compound Path&gt;" fill-rule="evenodd" class="s6"
					d="m783.1 245.6c0-7.5 5.5-12.8 12.8-12.8 7.4 0 12.8 5.3 12.8 12.8 0 7.4-5.4 12.8-12.8 12.8-7.3 0-12.8-5.4-12.8-12.8zm22.2 0c0-5.9-4-9.9-9.4-9.9-5.3 0-9.3 4-9.3 9.9 0 5.8 4 9.8 9.3 9.8 5.4 0 9.4-4 9.4-9.8z" />
				<path id="&lt;Compound Path&gt;" class="s6"
					d="m828.4 232.8v3.3c-0.3 0-0.6-0.1-0.8-0.1-5.3 0-8.5 3.4-8.5 9.3v12.9h-3.4v-25.2h3.2v4.9c1.6-3.4 4.8-5.1 9.5-5.1z" />
			</g>
			<g id="&lt;Group&gt;">
				<path id="&lt;Compound Path&gt;" fill-rule="evenodd" class="s6"
					d="m607.8 169c0-15.7 12.3-27.4 29-27.4 16.7 0 29 11.6 29 27.4 0 15.8-12.3 27.4-29 27.4-16.7 0-29-11.7-29-27.4zm45.6 0c0-10.1-7.1-17-16.6-17-9.5 0-16.6 6.9-16.6 17 0 10.1 7.1 16.9 16.6 16.9 9.5 0 16.6-6.8 16.6-16.9z" />
				<path id="&lt;Compound Path&gt;" fill-rule="evenodd" class="s6"
					d="m671.2 175.1c0-12.2 9.4-20.9 22.4-20.9 12.9 0 22.3 8.7 22.3 20.9 0 12.3-9.4 21-22.3 21-13 0-22.4-8.7-22.4-21zm32.7 0c0-7-4.4-11.2-10.3-11.2-6 0-10.5 4.2-10.5 11.2 0 7.1 4.5 11.3 10.5 11.3 5.9 0 10.3-4.2 10.3-11.3z" />
				<path id="&lt;Compound Path&gt;" fill-rule="evenodd" class="s6"
					d="m768.1 175.1c0 12.8-8.9 21-20.3 21-5.1 0-9.2-1.6-12.3-4.9v19h-11.8v-55.4h11.3v4.7c3-3.6 7.4-5.3 12.8-5.3 11.4 0 20.3 8.1 20.3 20.9zm-12 0c0-7-4.4-11.2-10.3-11.2-5.9 0-10.4 4.2-10.4 11.2 0 7.1 4.5 11.3 10.4 11.3 5.9 0 10.3-4.2 10.3-11.3z" />
				<path id="&lt;Compound Path&gt;" class="s6"
					d="m772 191.7l3.9-8.5c3.7 2.4 9.2 4 14.2 4 5.4 0 7.5-1.5 7.5-3.7 0-6.7-24.6 0.1-24.6-16.2 0-7.7 7-13.1 18.8-13.1 5.6 0 11.8 1.3 15.7 3.5l-3.9 8.4c-4-2.2-8.1-3-11.8-3-5.3 0-7.5 1.7-7.5 3.8 0 6.9 24.6 0.2 24.6 16.2 0 7.6-7.1 13-19.3 13-6.8 0-13.8-1.9-17.6-4.4z" />
				<path id="&lt;Compound Path&gt;" class="s6"
					d="m814.4 189.2c0-3.9 3-6.7 7.2-6.7 4.3 0 7.3 2.8 7.3 6.7 0 3.8-3 6.9-7.3 6.9-4.2 0-7.2-3.1-7.2-6.9zm0.2-46.7h14.1l-2.4 34.6h-9.3z" />
			</g>
		</g>
	</g>
	<g id="Robot">
		<g id="&lt;Group&gt;">
			<g id="&lt;Group&gt;">
				<path id="&lt;Path&gt;" class="s7"
					d="m380.3 153.3l-1.9 1.8-44.6-44.9 1.9-1.9c10.9-10.8 28.6-10.8 39.4 0.2l5.4 5.3c10.8 11 10.8 28.6-0.2 39.5z" />
				<path id="&lt;Compound Path&gt;" fill-rule="evenodd" class="s5"
					d="m378.4 155.2l-44.7-45h0.1l1.8-1.9c5.3-5.2 12.3-8.1 19.7-8.1q0.1 0 0.1 0c7.5 0 14.5 2.9 19.8 8.2l5.3 5.4c5.3 5.3 8.1 12.3 8.1 19.8 0 7.4-3 14.5-8.2 19.7zm-44.6-45l44.6 44.9 1.8-1.9c5.3-5.2 8.2-12.2 8.2-19.6 0-7.5-2.8-14.5-8.1-19.7l-5.3-5.4c-5.2-5.3-12.2-8.2-19.6-8.2q-0.1 0-0.1 0c-7.5 0-14.4 2.8-19.7 8.1z" />
			</g>
			<g id="&lt;Group&gt;">
				<path id="&lt;Path&gt;" class="s7"
					d="m198.8 242.5l1.9-1.8 43 46.6-1.9 1.8c-11.4 10.4-29 9.7-39.5-1.6l-5.1-5.6c-10.4-11.3-9.7-28.9 1.6-39.4z" />
				<path id="&lt;Compound Path&gt;" fill-rule="evenodd" class="s5"
					d="m222.9 296.5q-0.6 0-1.2 0c-7.5-0.3-14.3-3.5-19.4-9l-5.1-5.5c-5.1-5.5-7.7-12.7-7.4-20.1 0.3-7.5 3.5-14.4 9-19.4l1.9-1.9 0.1 0.1 43 46.6h-0.1l-1.9 1.8c-5.2 4.8-11.9 7.4-18.9 7.4zm-24.1-54c-5.4 5.1-8.6 12-8.9 19.4-0.3 7.4 2.3 14.5 7.3 20l5.2 5.5c5 5.5 11.9 8.7 19.3 9q0.6 0 1.2 0c7 0 13.6-2.6 18.8-7.4l1.9-1.7-42.9-46.5z" />
			</g>
			<g id="&lt;Group&gt;">
				<path id="&lt;Path&gt;" class="s7" d="m206.5 210.8l-3.1 3.9-32.2-26 3.1-3.9z" />
			</g>
			<g id="&lt;Group&gt;">
				<path id="&lt;Path&gt;" class="s5"
					d="m176.4 176.6c4.4 3.5 5.1 10 1.6 14.4-3.6 4.3-10 5-14.4 1.5-4.4-3.6-5-10-1.5-14.4 3.5-4.3 10-5 14.3-1.5z" />
			</g>
			<g id="&lt;Group&gt;">
				<path id="&lt;Path&gt;" class="s8"
					d="m403.8 223.2l-93.9 93.2c-12.9 12.9-33.8 12.8-46.7-0.1l-58.9-59.4c-12.9-12.9-12.8-33.8 0.2-46.7l93.9-93.2c12.9-12.9 33.8-12.8 46.6 0.1l59 59.4c12.8 12.9 12.8 33.8-0.2 46.7z" />
			</g>
			<g id="&lt;Group&gt;">
				<path id="&lt;Path&gt;" class="s7"
					d="m301 114.4l-4.4-16.9-11.5 1.9-3.3-12.2 3.7-0.8 2.6 8.8 11.5-1.5 4.8 17.3z" />
			</g>
			<g id="&lt;Group&gt;">
				<path id="&lt;Path&gt;" class="s5"
					d="m350.8 182.5l-81.1 80.6c-11 10.9-28.7 10.9-39.5-0.1l-3.8-3.7c-10.8-11-10.8-28.7 0.2-39.5l81.2-80.6c10.9-10.9 28.6-10.9 39.5 0.1l3.7 3.7c10.8 11 10.8 28.7-0.2 39.5z" />
			</g>
			<g id="&lt;Group&gt;">
				<g id="&lt;Group&gt;">
					<path id="&lt;Path&gt;" class="s5"
						d="m355.3 189.9q0 0 0.8-0.9c0.4-0.6 1.3-1.4 2.2-2.6 1.8-2.4 4.3-6.3 5.8-11.8 0.8-2.7 1.3-5.9 1.4-9.4-0.1-3.5-0.6-7.2-1.8-11.1-1.3-3.9-3.3-7.8-6.3-11.3q-1.1-1.3-2.3-2.6-1.3-1.3-2.6-2.6c-1.7-1.7-3.5-3.5-5.5-5-4.1-3.1-9-5.4-14.5-6.5-5.4-1-11.4-0.9-17.1 1-2.8 0.8-5.6 2.2-8.2 3.8-2.6 1.7-5 3.7-7.3 6q-6.8 6.9-14.1 14.1c-19.3 19.2-40.5 40.3-62.8 62.4-5.4 5.6-9.1 12.7-10 20.3-0.4 3.7-0.3 7.5 0.4 11.1 0.7 3.7 2.1 7.2 3.8 10.3 0.9 1.7 2 3.1 3.1 4.6 1.2 1.3 2.3 2.7 3.6 4 2.6 2.5 5 5.2 7.9 7.2 5.7 4.2 12.6 6.4 19.3 6.6 6.7 0.2 13.3-1.6 18.7-4.9 1.4-0.7 2.6-1.7 3.9-2.6 1.2-1 2.4-2.1 3.5-3.2q3.3-3.3 6.6-6.5c8.6-8.5 16.6-16.4 23.9-23.7 14.7-14.4 26.5-26.1 34.8-34.2 4.1-4 7.3-7.1 9.5-9.3q1.6-1.5 2.4-2.4 0.9-0.8 0.9-0.8 0 0-0.8 0.9-0.8 0.9-2.4 2.5c-2.2 2.1-5.3 5.3-9.3 9.4-8.2 8.1-20 19.9-34.6 34.5-7.2 7.2-15.2 15.2-23.8 23.8q-3.2 3.2-6.6 6.5c-1.1 1.1-2.3 2.1-3.5 3.2-1.3 0.9-2.6 2-4 2.7-5.6 3.4-12.4 5.2-19.3 5-6.9-0.2-13.9-2.4-19.8-6.7-2.9-2.1-5.4-4.8-8-7.3-1.3-1.3-2.5-2.7-3.7-4.1-1.1-1.5-2.2-3-3.1-4.7-1.9-3.2-3.3-6.8-4-10.6-0.7-3.7-0.9-7.6-0.4-11.5 0.9-7.7 4.7-15.1 10.2-20.8 22.4-22.1 43.6-43.2 63-62.4q7.2-7.2 14.1-14c2.3-2.3 4.7-4.4 7.4-6.2 2.7-1.6 5.5-3 8.5-3.9 5.8-1.8 11.9-1.9 17.5-0.9 5.6 1.1 10.6 3.5 14.7 6.7 2.1 1.6 3.9 3.4 5.6 5.1q1.3 1.3 2.5 2.6 1.3 1.4 2.4 2.7c3 3.6 5.1 7.6 6.3 11.5 1.3 3.9 1.8 7.8 1.7 11.3 0 3.6-0.6 6.7-1.4 9.5-1.6 5.6-4.1 9.5-6.1 11.8-0.8 1.2-1.8 2-2.3 2.6q-0.8 0.8-0.8 0.8z" />
				</g>
			</g>
			<g id="&lt;Group&gt;">
				<g id="&lt;Group&gt;">
					<g id="&lt;Group&gt;">
						<path id="&lt;Path&gt;" class="s9"
							d="m251.5 252.9c-0.3 0-0.6-8.1-0.8-18-0.1-10 0-18 0.3-18 0.3 0 0.6 8 0.8 18 0.1 9.9 0 18-0.3 18z" />
					</g>
				</g>
				<g id="&lt;Group&gt;">
					<g id="&lt;Group&gt;">
						<path id="&lt;Path&gt;" class="s9"
							d="m268.9 233.4c0.1 0.3-8 0.9-17.9 1.4-10 0.4-18.1 0.6-18.1 0.3 0-0.3 8.1-0.9 18-1.4 10-0.4 18-0.5 18-0.3z" />
					</g>
				</g>
			</g>
			<g id="&lt;Group&gt;">
				<g id="&lt;Group&gt;">
					<g id="&lt;Group&gt;">
						<path id="&lt;Path&gt;" class="s9"
							d="m322.8 180.2c-0.3 0-0.6-8-0.8-18-0.1-9.9 0-18 0.3-18 0.3 0 0.6 8.1 0.8 18 0.1 10 0 18-0.3 18z" />
					</g>
				</g>
				<g id="&lt;Group&gt;">
					<g id="&lt;Group&gt;">
						<path id="&lt;Path&gt;" class="s9"
							d="m340.2 160.8c0 0.3-8 0.9-18 1.3-9.9 0.5-18 0.6-18 0.3 0-0.3 8-0.9 18-1.3 9.9-0.5 18-0.6 18-0.3z" />
					</g>
				</g>
			</g>
			<g id="&lt;Group&gt;">
				<path id="&lt;Path&gt;" class="s5"
					d="m288.5 72.8c4 4 4 10.4 0 14.4-4 4-10.5 3.9-14.4-0.1-4-4-4-10.4 0-14.4 4-3.9 10.5-3.9 14.4 0.1z" />
			</g>
			<g id="&lt;Group&gt;">
				<g id="&lt;Group&gt;">
					<path id="&lt;Path&gt;" class="s5"
						d="m313 313.4c0 0-0.7-0.5-1.7-1.5-1.1-1-2.7-2.4-4.6-4.2-3.8-3.6-9-8.7-14.6-14.3-5.7-5.6-10.8-10.8-14.4-14.6-3.6-3.7-5.8-6.2-5.6-6.3 0 0 0.6 0.5 1.6 1.5q1.9 1.8 4.5 4.3c3.9 3.8 9 8.8 14.6 14.3 5.7 5.7 10.8 10.8 14.4 14.5q2.6 2.7 4.3 4.5c1 1.1 1.6 1.7 1.5 1.8z" />
				</g>
			</g>
			<g id="&lt;Group&gt;">
				<g id="&lt;Group&gt;">
					<path id="&lt;Path&gt;" class="s5"
						d="m399.6 226.1c0 0.1-0.6-0.5-1.7-1.5-1.1-0.9-2.6-2.4-4.5-4.2-3.8-3.6-9-8.6-14.7-14.3-5.7-5.6-10.8-10.7-14.4-14.5-3.6-3.8-5.8-6.3-5.6-6.4 0.1 0 0.6 0.5 1.7 1.6q1.8 1.7 4.4 4.3c4 3.8 9 8.8 14.6 14.3 5.7 5.6 10.8 10.7 14.5 14.5q2.5 2.6 4.3 4.5c1 1 1.5 1.6 1.4 1.7z" />
				</g>
			</g>
			<g id="&lt;Group&gt;">
				<g id="&lt;Group&gt;">
					<path id="&lt;Path&gt;" class="s5"
						d="m366.4 205.7l-73.2 74.4-8.1-8.1 73.1-74.3z" />
				</g>
			</g>
			<g id="&lt;Group&gt;">
				<path id="&lt;Path&gt;" class="s5"
					d="m275.2 285.6c-0.1 1.3-1.1 2.2-2.3 2.1-1.2 0-2.1-1-2.1-2.2 0.1-1.2 1.1-2.2 2.3-2.1 1.2 0 2.1 1 2.1 2.2z" />
			</g>
			<g id="&lt;Group&gt;">
				<path id="&lt;Path&gt;" class="s5"
					d="m291.9 303.3c-0.1 1.2-1.1 2.1-2.3 2.1-1.2-0.1-2.1-1.1-2.1-2.3 0.1-1.2 1.1-2.2 2.3-2.1 1.2 0 2.1 1.1 2.1 2.3z" />
			</g>
			<g id="&lt;Group&gt;">
				<path id="&lt;Path&gt;" class="s5"
					d="m373.2 185.8c0 1.2-1 2.2-2.2 2.1-1.2 0-2.2-1.1-2.1-2.3 0-1.2 1-2.1 2.2-2.1 1.3 0.1 2.2 1.1 2.1 2.3z" />
			</g>
			<g id="&lt;Group&gt;">
				<path id="&lt;Path&gt;" class="s5"
					d="m389.9 203.4c0 1.2-1 2.2-2.2 2.1-1.3 0-2.2-1-2.1-2.2 0-1.3 1-2.2 2.2-2.1 1.2 0 2.2 1 2.1 2.2z" />
			</g>
			<g id="&lt;Group&gt;">
				<g id="&lt;Group&gt;">
					<path id="&lt;Path&gt;" class="s9"
						d="m210.9 287.9c-0.1 0.1-1.5-1.8-4.6-4.1-1.5-1.1-3.4-2.4-5.4-4.1-1.9-1.7-3.7-4-5-6.7-2.7-5.5-2.6-11.2-1.6-15 0.4-1.9 1.1-3.3 1.6-4.3 0.6-0.9 0.9-1.4 1-1.4 0.2 0.1-1.2 2.2-1.9 5.9-0.8 3.6-0.7 9.1 1.8 14.3 2.4 5.3 7.1 8.3 9.9 10.8 3.1 2.4 4.3 4.6 4.2 4.6z" />
				</g>
			</g>
			<g id="&lt;Group&gt;">
				<g id="&lt;Group&gt;">
					<path id="&lt;Path&gt;" class="s9"
						d="m297.8 127.1c0.2 0.2-20.8 20.9-46.9 46.3-26.1 25.4-47.5 45.8-47.7 45.6-0.2-0.2 20.8-20.9 47-46.3 26.1-25.4 47.4-45.8 47.6-45.6z" />
				</g>
			</g>
			<g id="&lt;Group&gt;">
				<g id="&lt;Group&gt;">
					<path id="&lt;Path&gt;" class="s9"
						d="m167.8 191.7c0 0.2-1 0-2.3-0.9-1.4-0.8-3-2.6-3.5-5.1-0.5-2.5 0.2-4.7 1.1-6.1 0.8-1.3 1.7-1.9 1.8-1.8 0.1 0.2-0.6 0.9-1.2 2.2-0.6 1.3-1.1 3.3-0.7 5.5 0.5 2.2 1.8 3.8 2.9 4.8 1.1 0.9 2 1.3 1.9 1.4z" />
				</g>
			</g>
			<g id="&lt;Group&gt;">
				<g id="&lt;Group&gt;">
					<path id="&lt;Path&gt;" class="s9"
						d="m278.9 87.4c0 0.1-1.1 0-2.5-1-1.4-1-3.1-3-3.5-5.8-0.3-2.7 0.8-5.1 1.9-6.3 1.1-1.4 2.2-1.8 2.2-1.7 0.1 0.1-0.7 0.8-1.6 2.1-0.9 1.3-1.7 3.4-1.4 5.8 0.3 2.4 1.6 4.2 2.8 5.3 1.2 1 2.2 1.4 2.1 1.6z" />
				</g>
			</g>
			<g id="&lt;Group&gt;">
				<g id="&lt;Group&gt;">
					<path id="&lt;Path&gt;" class="s9"
						d="m354.6 103.4c0 0.3-3.9 0.1-8.2 1.9-4.3 1.7-7 4.5-7.2 4.3-0.3-0.2 2.2-3.5 6.8-5.3 4.6-1.8 8.7-1.1 8.6-0.9z" />
				</g>
			</g>
			<g id="&lt;Group&gt;">
				<g id="&lt;Group&gt;">
					<path id="&lt;Path&gt;" class="s9"
						d="m271.6 316.9c-0.2 0.2-6.9-6.4-14.9-14.7-8-8.3-14.4-15.2-14.2-15.4 0.2-0.2 6.9 6.4 14.9 14.7 8.1 8.3 14.4 15.2 14.2 15.4z" />
				</g>
			</g>
		</g>
		<g id="&lt;Group&gt;">
			<g id="&lt;Group&gt;">
				<g id="&lt;Group&gt;">
					<path id="&lt;Path&gt;" class="s8" d="m502.5 918.5h-85.6v-121.3h85.6z" />
				</g>
				<g id="&lt;Group&gt;">
					<path id="&lt;Path&gt;" class="s5"
						d="m513.2 928.9h-107.1v-1c0-6.3 5.1-11.4 11.4-11.4h84.3c6.3 0 11.4 5.1 11.4 11.4z" />
				</g>
				<g id="&lt;Group&gt;">
					<path id="&lt;Path&gt;" class="s8" d="m526.3 948.7h-129.9v-19.8h129.9z" />
				</g>
				<g id="&lt;Group&gt;">
					<g id="&lt;Group&gt;">
						<g id="&lt;Group&gt;">
							<path id="&lt;Path&gt;" class="s5"
								d="m502 905.2c0 0.3-18.9 0.5-42.3 0.5-23.4 0-42.4-0.2-42.4-0.5 0-0.3 19-0.5 42.4-0.5 23.4 0 42.3 0.2 42.3 0.5z" />
						</g>
					</g>
					<g id="&lt;Group&gt;">
						<g id="&lt;Group&gt;">
							<path id="&lt;Path&gt;" class="s5"
								d="m502 890.8c0 0.3-18.9 0.5-42.3 0.5-23.4 0-42.4-0.2-42.4-0.5 0-0.3 19-0.5 42.4-0.5 23.4 0 42.3 0.2 42.3 0.5z" />
						</g>
					</g>
					<g id="&lt;Group&gt;">
						<g id="&lt;Group&gt;">
							<path id="&lt;Path&gt;" class="s5"
								d="m502 876.6c0 0.3-18.9 0.5-42.3 0.5-23.4 0-42.4-0.2-42.4-0.5 0-0.3 19-0.5 42.4-0.5 23.4 0 42.3 0.2 42.3 0.5z" />
						</g>
					</g>
					<g id="&lt;Group&gt;">
						<g id="&lt;Group&gt;">
							<path id="&lt;Path&gt;" class="s5"
								d="m502 862.2c0 0.3-18.9 0.5-42.3 0.5-23.4 0-42.4-0.2-42.4-0.5 0-0.3 19-0.5 42.4-0.5 23.4 0 42.3 0.2 42.3 0.5z" />
						</g>
					</g>
					<g id="&lt;Group&gt;">
						<g id="&lt;Group&gt;">
							<path id="&lt;Path&gt;" class="s5"
								d="m502 848c0 0.3-18.9 0.5-42.3 0.5-23.4 0-42.4-0.2-42.4-0.5 0-0.3 19-0.5 42.4-0.5 23.4 0 42.3 0.2 42.3 0.5z" />
						</g>
					</g>
					<g id="&lt;Group&gt;">
						<g id="&lt;Group&gt;">
							<path id="&lt;Path&gt;" class="s5"
								d="m502 833.6c0 0.3-18.9 0.5-42.3 0.5-23.4 0-42.4-0.2-42.4-0.5 0-0.3 19-0.5 42.4-0.5 23.4 0 42.3 0.2 42.3 0.5z" />
						</g>
					</g>
					<g id="&lt;Group&gt;">
						<g id="&lt;Group&gt;">
							<path id="&lt;Path&gt;" class="s5"
								d="m502 819.4c0 0.3-18.9 0.6-42.3 0.6-23.4 0-42.4-0.3-42.4-0.6 0-0.3 19-0.5 42.4-0.5 23.4 0 42.3 0.2 42.3 0.5z" />
						</g>
					</g>
					<g id="&lt;Group&gt;">
						<g id="&lt;Group&gt;">
							<path id="&lt;Path&gt;" class="s5"
								d="m502 805c0 0.3-18.9 0.5-42.3 0.5-23.4 0-42.4-0.2-42.4-0.5 0-0.3 19-0.5 42.4-0.5 23.4 0 42.3 0.2 42.3 0.5z" />
						</g>
					</g>
				</g>
				<g id="&lt;Group&gt;" style="opacity: .3">
					<path id="&lt;Path&gt;" class="s6" d="m416.9 814.1l85.1-2.3v-12.4h-85.9z" />
				</g>
			</g>
			<g id="&lt;Group&gt;">
				<g id="&lt;Group&gt;">
					<path id="&lt;Path&gt;" class="s8" d="m636.5 918.5h-85.6v-121.3h85.6z" />
				</g>
				<g id="&lt;Group&gt;">
					<path id="&lt;Path&gt;" class="s5"
						d="m647.3 928.9h-107.1v-1c0-6.3 5.1-11.4 11.4-11.4h84.3c6.3 0 11.4 5.1 11.4 11.4z" />
				</g>
				<g id="&lt;Group&gt;">
					<path id="&lt;Path&gt;" class="s8" d="m660.4 948.7h-130v-19.8h130z" />
				</g>
				<g id="&lt;Group&gt;">
					<g id="&lt;Group&gt;">
						<g id="&lt;Group&gt;">
							<path id="&lt;Path&gt;" class="s5"
								d="m636.1 905.2c0 0.3-19 0.5-42.4 0.5-23.4 0-42.4-0.2-42.4-0.5 0-0.3 19-0.5 42.4-0.5 23.4 0 42.4 0.2 42.4 0.5z" />
						</g>
					</g>
					<g id="&lt;Group&gt;">
						<g id="&lt;Group&gt;">
							<path id="&lt;Path&gt;" class="s5"
								d="m636.1 890.8c0 0.3-19 0.5-42.4 0.5-23.4 0-42.4-0.2-42.4-0.5 0-0.3 19-0.5 42.4-0.5 23.4 0 42.4 0.2 42.4 0.5z" />
						</g>
					</g>
					<g id="&lt;Group&gt;">
						<g id="&lt;Group&gt;">
							<path id="&lt;Path&gt;" class="s5"
								d="m636.1 876.6c0 0.3-19 0.5-42.4 0.5-23.4 0-42.4-0.2-42.4-0.5 0-0.3 19-0.5 42.4-0.5 23.4 0 42.4 0.2 42.4 0.5z" />
						</g>
					</g>
					<g id="&lt;Group&gt;">
						<g id="&lt;Group&gt;">
							<path id="&lt;Path&gt;" class="s5"
								d="m636.1 862.2c0 0.3-19 0.5-42.4 0.5-23.4 0-42.4-0.2-42.4-0.5 0-0.3 19-0.5 42.4-0.5 23.4 0 42.4 0.2 42.4 0.5z" />
						</g>
					</g>
					<g id="&lt;Group&gt;">
						<g id="&lt;Group&gt;">
							<path id="&lt;Path&gt;" class="s5"
								d="m636.1 848c0 0.3-19 0.5-42.4 0.5-23.4 0-42.4-0.2-42.4-0.5 0-0.3 19-0.5 42.4-0.5 23.4 0 42.4 0.2 42.4 0.5z" />
						</g>
					</g>
					<g id="&lt;Group&gt;">
						<g id="&lt;Group&gt;">
							<path id="&lt;Path&gt;" class="s5"
								d="m636.1 833.6c0 0.3-19 0.5-42.4 0.5-23.4 0-42.4-0.2-42.4-0.5 0-0.3 19-0.5 42.4-0.5 23.4 0 42.4 0.2 42.4 0.5z" />
						</g>
					</g>
					<g id="&lt;Group&gt;">
						<g id="&lt;Group&gt;">
							<path id="&lt;Path&gt;" class="s5"
								d="m636.1 819.4c0 0.3-19 0.6-42.4 0.6-23.4 0-42.4-0.3-42.4-0.6 0-0.3 19-0.5 42.4-0.5 23.4 0 42.4 0.2 42.4 0.5z" />
						</g>
					</g>
					<g id="&lt;Group&gt;">
						<g id="&lt;Group&gt;">
							<path id="&lt;Path&gt;" class="s5"
								d="m636.1 805c0 0.3-19 0.5-42.4 0.5-23.4 0-42.4-0.2-42.4-0.5 0-0.3 19-0.5 42.4-0.5 23.4 0 42.4 0.2 42.4 0.5z" />
						</g>
					</g>
				</g>
				<g id="&lt;Group&gt;" style="opacity: .3">
					<path id="&lt;Path&gt;" class="s6" d="m550.9 814.1l85.2-2.3v-12.4h-85.9z" />
				</g>
			</g>
			<g id="&lt;Group&gt;">
				<g id="&lt;Group&gt;">
					<g id="&lt;Group&gt;">
						<g id="&lt;Group&gt;">
							<path id="&lt;Path&gt;" class="s8"
								d="m681.5 463.8l-3.9 15.5-34.3-8.6c-1.9-0.5-3.1-2.5-2.6-4.5l2.1-8.3c0.5-2 2.5-3.2 4.5-2.7z" />
						</g>
						<g id="&lt;Group&gt;" style="opacity: .3">
							<path id="&lt;Path&gt;" class="s6"
								d="m681.5 463.8l-3.9 15.5-34.3-8.6c-1.9-0.5-3.1-2.5-2.6-4.5l2.1-8.3c0.5-2 2.5-3.2 4.5-2.7z" />
						</g>
						<g id="&lt;Group&gt;">
							<path id="&lt;Path&gt;" class="s8"
								d="m675.4 488l-5.9 23.3-31.9-8c-3.2-0.9-5.2-4.2-4.4-7.4l2.9-11.5c0.8-3.3 4.1-5.3 7.4-4.4z" />
						</g>
						<g id="&lt;Group&gt;">
							<path id="&lt;Path&gt;" class="s8"
								d="m681.5 463.8l-10 39.6-14.9-3.8 10-39.5z" />
						</g>
					</g>
					<g id="&lt;Group&gt;">
						<path id="&lt;Path&gt;" class="s8"
							d="m691.4 620.8c0 0 63.9-2.6 58.6-63.8-4.1-46.9-73.8-47.3-73.8-47.3l17.8-39c0 0 81.5 7.1 97.6 66.5 18.2 67-23.8 121.7-100.2 120.5z" />
					</g>
					<g id="&lt;Group&gt;">
						<path id="&lt;Path&gt;" class="s5"
							d="m687.3 519.3l-24.3-5.4 11.9-54 24.3 5.3z" />
					</g>
					<g id="&lt;Group&gt;">
						<g id="&lt;Group&gt;">
							<path id="&lt;Path&gt;" class="s7"
								d="m688.3 513.6c0 0.4-5.5-0.5-12.1-2-6.6-1.5-11.9-3-11.8-3.3 0.1-0.3 5.5 0.8 12 2.3 3.3 0.7 6.3 1.4 8.5 2q1.3 0.3 2.5 0.7c0.6 0.1 0.9 0.2 0.9 0.3z" />
						</g>
					</g>
					<g id="&lt;Group&gt;">
						<g id="&lt;Group&gt;">
							<path id="&lt;Path&gt;" class="s7"
								d="m690.5 503.8c-0.1 0.5-5.5-0.5-12.1-2-6.6-1.5-11.9-3-11.8-3.2 0-0.3 5.4 0.7 12 2.2 3.3 0.8 6.3 1.5 8.4 2q1.3 0.4 2.5 0.7c0.7 0.2 0.9 0.3 1 0.3z" />
						</g>
					</g>
					<g id="&lt;Group&gt;">
						<g id="&lt;Group&gt;">
							<path id="&lt;Path&gt;" class="s7"
								d="m693 494.1c0 0.5-5.5-0.5-12.1-2-6.6-1.5-11.8-3-11.8-3.3 0.1-0.2 5.5 0.8 12.1 2.3 3.3 0.7 6.2 1.5 8.4 2q1.3 0.4 2.5 0.7c0.6 0.2 0.9 0.3 0.9 0.3z" />
						</g>
					</g>
					<g id="&lt;Group&gt;">
						<g id="&lt;Group&gt;">
							<path id="&lt;Path&gt;" class="s7"
								d="m694.8 484.4c-0.1 0.4-5.5-0.5-12.1-2-6.6-1.5-11.9-3-11.8-3.3 0-0.3 5.4 0.8 12 2.3 3.3 0.7 6.3 1.4 8.4 2q1.3 0.3 2.5 0.7c0.7 0.1 0.9 0.2 1 0.3z" />
						</g>
					</g>
					<g id="&lt;Group&gt;">
						<g id="&lt;Group&gt;">
							<path id="&lt;Path&gt;" class="s7"
								d="m697.3 475.2c-0.1 0.5-5.5-0.4-12.1-1.9-6.6-1.5-11.9-3-11.8-3.3 0-0.3 5.4 0.8 12 2.3 3.3 0.7 6.3 1.4 8.4 2q1.3 0.3 2.6 0.6c0.6 0.2 0.8 0.3 0.9 0.3z" />
						</g>
					</g>
				</g>
				<g id="&lt;Group&gt;">
					<g id="&lt;Group&gt;">
						<path id="&lt;Path&gt;" class="s5"
							d="m705.3 657.3c-0.1 0-0.6-2.1-1.3-5.4-0.6-3.4-1.4-8.1-2-13.3-0.5-5.2-0.9-9.9-1-13.3-0.1-3.4-0.1-5.5 0.1-5.6 0.1 0 0.4 2.1 0.7 5.5 0.3 3.4 0.7 8.1 1.3 13.3 0.6 5.2 1.2 9.9 1.7 13.2 0.4 3.4 0.7 5.5 0.5 5.6z" />
					</g>
				</g>
				<g id="&lt;Group&gt;">
					<g id="&lt;Group&gt;">
						<path id="&lt;Path&gt;" class="s5"
							d="m725.2 654.2c-0.3 0-2.9-8.5-5.8-19.1-3-10.6-5.1-19.3-4.9-19.4 0.3-0.1 2.9 8.5 5.9 19.1 2.9 10.6 5 19.3 4.8 19.4z" />
					</g>
				</g>
				<g id="&lt;Group&gt;">
					<g id="&lt;Group&gt;">
						<path id="&lt;Path&gt;" class="s5"
							d="m751.9 644.6c-0.2 0.1-1.4-2-3.4-5.3-2.2-3.6-4.9-8.1-7.8-13-3-5-5.7-9.4-7.9-13-2-3.4-3.2-5.5-3-5.5 0.1-0.1 1.5 1.8 3.7 5.1 2.1 3.2 5 7.7 8.1 12.8 3 5.1 5.7 9.8 7.5 13.2 1.8 3.5 2.9 5.6 2.8 5.7z" />
					</g>
				</g>
				<g id="&lt;Group&gt;">
					<g id="&lt;Group&gt;">
						<path id="&lt;Path&gt;" class="s5"
							d="m774.3 626.6c-0.2 0.2-8.1-6.1-17.7-14.1-9.7-8-17.3-14.6-17.1-14.8 0.2-0.3 8.1 6 17.7 14 9.7 8 17.3 14.7 17.1 14.9z" />
					</g>
				</g>
				<g id="&lt;Group&gt;">
					<g id="&lt;Group&gt;">
						<path id="&lt;Path&gt;" class="s5"
							d="m788.8 601.9c-0.1 0.3-9.5-3.4-21-8.2-11.5-4.8-20.7-8.9-20.6-9.1 0.1-0.3 9.5 3.4 21 8.2 11.5 4.7 20.7 8.8 20.6 9.1z" />
					</g>
				</g>
				<g id="&lt;Group&gt;">
					<g id="&lt;Group&gt;">
						<path id="&lt;Path&gt;" class="s5"
							d="m795.9 575.3c0 0.1-2.6-0.2-6.8-0.7-4.4-0.5-10-1.2-16.1-2-6.2-0.7-11.8-1.4-16.2-1.9-4.1-0.5-6.7-0.9-6.7-1 0-0.2 2.6-0.1 6.8 0.2 4.1 0.4 9.9 0.9 16.2 1.7 6.3 0.8 12 1.6 16.2 2.3 4.1 0.7 6.6 1.2 6.6 1.4z" />
					</g>
				</g>
				<g id="&lt;Group&gt;">
					<g id="&lt;Group&gt;">
						<path id="&lt;Path&gt;" class="s5"
							d="m792.6 547.6c0 0.2-2.3 1-6.1 2.1-3.7 1.1-9 2.4-14.9 3.7-5.9 1.2-11.3 2.1-15.2 2.6-3.9 0.5-6.3 0.7-6.3 0.6 0-0.2 2.4-0.6 6.2-1.3 3.9-0.7 9.2-1.7 15.1-2.9 5.8-1.3 11.1-2.5 14.9-3.4 3.9-1 6.2-1.5 6.3-1.4z" />
					</g>
				</g>
				<g id="&lt;Group&gt;">
					<g id="&lt;Group&gt;">
						<path id="&lt;Path&gt;" class="s5"
							d="m784.5 521.1c0.2 0.3-8.4 4.8-19.1 10.2-10.7 5.4-19.5 9.6-19.6 9.3-0.1-0.2 8.4-4.8 19.1-10.2 10.7-5.4 19.5-9.5 19.6-9.3z" />
					</g>
				</g>
				<g id="&lt;Group&gt;">
					<g id="&lt;Group&gt;">
						<path id="&lt;Path&gt;" class="s5"
							d="m768.1 499.6c0.1 0.2-7 6.7-16 14.4-8.9 7.7-16.4 13.8-16.5 13.6-0.2-0.2 6.9-6.7 15.9-14.4 8.9-7.7 16.4-13.8 16.6-13.6z" />
					</g>
				</g>
				<g id="&lt;Group&gt;">
					<g id="&lt;Group&gt;">
						<path id="&lt;Path&gt;" class="s5"
							d="m740.3 483.6c0.2 0.2-4.3 8.1-10.1 17.7-5.8 9.6-10.7 17.3-10.9 17.1-0.3-0.1 4.2-8 10-17.6 5.8-9.6 10.7-17.3 11-17.2z" />
					</g>
				</g>
				<g id="&lt;Group&gt;">
					<g id="&lt;Group&gt;">
						<path id="&lt;Path&gt;" class="s5"
							d="m715.4 473.6c0.2 0.1-2.4 9-6 19.8-3.6 10.8-6.7 19.4-6.9 19.4-0.3-0.1 2.3-9 5.9-19.8 3.6-10.8 6.7-19.5 7-19.4z" />
					</g>
				</g>
				<g id="&lt;Group&gt;" style="opacity: .3">
					<g id="&lt;Group&gt;">
						<path id="&lt;Path&gt;" class="s6"
							d="m745.4 588.4c-5.8 12.7-15.3 19.7-23.2 23.7-9 4.6-15.7 6.1-15.7 6.1 12.2 6.6 28.2 2.7 38.9-6.2 10.7-8.8 16.3-22.8 16.7-36.6 0.2-6.6-0.8-13.3-3.5-19.2-2.7-6-7.2-12.3-13.1-15 0 0 2.3 4 3.7 10.5 1.9 9.1 2.3 23.2-3.8 36.7z" />
					</g>
				</g>
			</g>
			<g id="&lt;Group&gt;">
				<g id="&lt;Group&gt;">
					<g id="&lt;Group&gt;">
						<path id="&lt;Path&gt;" class="s5"
							d="m275.7 696.2c0 0 0.7 0.8 1.9 2.3 1.3 1.4 3 3.6 5 6.4 3.9 5.5 8.9 13.6 13.2 23.1 4.3 9.6 7.1 18.6 8.6 25.3 0.8 3.3 1.3 6 1.6 7.9 0.2 1.9 0.4 3 0.3 3-0.1 0-0.3-1-0.7-2.9-0.4-1.9-1.1-4.5-1.9-7.8-1.7-6.6-4.6-15.6-8.8-25-4.3-9.5-9.2-17.6-13-23.2-1.9-2.8-3.4-5.1-4.6-6.6-1.1-1.5-1.7-2.4-1.6-2.5z" />
					</g>
				</g>
				<g id="&lt;Group&gt;">
					<g id="&lt;Group&gt;">
						<path id="&lt;Path&gt;" class="s5"
							d="m267.2 689.2c0.2-0.3 1.1 0.3 2.1 1.1 1 0.9 1.6 1.8 1.4 2-0.2 0.2-1.1-0.3-2.1-1.2-1-0.9-1.6-1.7-1.4-1.9z" />
					</g>
				</g>
				<g id="&lt;Group&gt;">
					<g id="&lt;Group&gt;">
						<path id="&lt;Path&gt;" class="s5"
							d="m269.1 683.3c0.3-0.2 1.2 1 2.2 2.7 1 1.6 1.6 3 1.3 3.2-0.2 0.1-1.2-1.1-2.2-2.7-0.9-1.6-1.5-3.1-1.3-3.2z" />
					</g>
				</g>
				<g id="&lt;Group&gt;">
					<g id="&lt;Group&gt;">
						<path id="&lt;Path&gt;" class="s7"
							d="m306.1 765.4q0 0 0.3-1.6 0.4-1.7 1.1-4.5c0.9-4 2.3-9.7 3.8-16.8 3.1-14.2 6.8-33.9 9.6-55.9 1.5-11 2-21.6 4.5-31 1.3-4.7 3.1-9 5.4-12.6 2.3-3.7 5.1-6.7 8-9 5.7-4.6 11.5-6.6 15.4-7.5 2-0.4 3.6-0.6 4.7-0.7q1.6-0.1 1.6 0 0 0-1.6 0.2c-1.1 0.2-2.6 0.4-4.6 0.9-3.9 1-9.5 3.1-15.1 7.7-2.7 2.3-5.4 5.3-7.7 8.8-2.2 3.6-3.9 7.8-5.1 12.5-2.5 9.2-3 19.8-4.5 30.8-2.7 22-6.6 41.8-9.9 56-1.6 7.1-3.1 12.8-4.1 16.7q-0.8 2.8-1.3 4.5-0.4 1.5-0.5 1.5z" />
					</g>
				</g>
				<g id="&lt;Group&gt;">
					<g id="&lt;Group&gt;">
						<path id="&lt;Path&gt;" class="s5"
							d="m308.5 606.8c0.2-0.1 1.2 3.4 5.1 7.5 3.8 4 10.8 8.1 19.2 9.3 8.5 1.2 16.3 0 21.9-0.9q3.9-0.7 6.5-1.1c1.6-0.3 2.5-0.4 2.5-0.4 0 0.1-0.8 0.4-2.4 0.8-1.5 0.3-3.7 0.9-6.5 1.4-5.5 1.1-13.4 2.5-22.1 1.3-8.7-1.3-15.9-5.6-19.6-9.9-2-2.2-3.2-4.2-3.8-5.6-0.6-1.5-0.9-2.3-0.8-2.4z" />
					</g>
				</g>
				<g id="&lt;Group&gt;">
					<g id="&lt;Group&gt;">
						<path id="&lt;Path&gt;" class="s5"
							d="m300.9 600.5c0.2-0.2 1.2 0.4 2.1 1.4 1 1 1.6 1.9 1.4 2.1-0.2 0.3-1.1-0.4-2.1-1.3-1-1-1.6-2-1.4-2.2z" />
					</g>
				</g>
				<g id="&lt;Group&gt;">
					<g id="&lt;Group&gt;">
						<path id="&lt;Path&gt;" class="s5"
							d="m303.2 597c0.2-0.1 1.1 0.9 2 2.3 0.9 1.4 1.4 2.7 1.1 2.8-0.2 0.2-1.1-0.8-2-2.2-0.9-1.4-1.4-2.7-1.1-2.9z" />
					</g>
				</g>
				<g id="&lt;Group&gt;">
					<g id="&lt;Group&gt;">
						<path id="&lt;Path&gt;" class="s5"
							d="m309.4 596.6c0.3 0 0.4 1.2 0.1 2.6-0.2 1.4-0.6 2.5-0.9 2.5-0.3-0.1-0.3-1.2-0.1-2.7 0.2-1.4 0.6-2.5 0.9-2.4z" />
					</g>
				</g>
				<g id="&lt;Group&gt;">
					<g id="&lt;Group&gt;">
						<path id="&lt;Path&gt;" class="s7"
							d="m328.3 674.7c0 0 0 1.3-0.2 3.5-0.2 2.3-0.5 5.6-1 9.7-0.9 8.2-2.6 19.4-5.1 31.6-2.5 12.3-5.4 23.3-7.7 31.1-1.1 4-2.1 7.1-2.9 9.3-0.7 2.2-1.1 3.4-1.2 3.3-0.1 0 0.2-1.2 0.8-3.4 0.7-2.4 1.6-5.5 2.6-9.4 2.1-7.9 4.9-18.8 7.4-31.1 2.5-12.2 4.2-23.4 5.4-31.5 0.5-3.9 1-7.2 1.3-9.6 0.3-2.3 0.5-3.5 0.6-3.5z" />
					</g>
				</g>
				<g id="&lt;Group&gt;">
					<g id="&lt;Group&gt;">
						<path id="&lt;Path&gt;" class="s7"
							d="m363.7 628.4c0 0.2-2.8 0.2-7.3 1.4-4.4 1.1-10.3 3.7-15.4 8.4-5.1 4.7-8.2 10.4-9.6 14.7-1.6 4.3-1.8 7.2-2 7.2-0.1 0-0.1-0.8 0.1-2.1 0.1-1.2 0.5-3.1 1.2-5.3 1.3-4.5 4.3-10.4 9.6-15.3 5.3-4.8 11.4-7.4 16-8.4 2.2-0.5 4.1-0.7 5.4-0.7 1.3 0 2 0 2 0.1z" />
					</g>
				</g>
				<g id="&lt;Group&gt;">
					<g id="&lt;Group&gt;">
						<path id="&lt;Path&gt;" class="s7"
							d="m315.6 765q0 0 0.1-1.5c0.1-1 0.2-2.4 0.5-4.3 0.6-3.6 1.3-9.2 4.7-15.1 1.7-3 4-5.8 5.9-9.2 0.9-1.7 1.7-3.6 2.1-5.6 0.4-2 0.4-4.1 0.2-6.3-0.4-4.4-1.6-9-0.6-14 0.4-2.4 1.7-4.7 3.2-6.8 1.4-2 3.1-3.9 4.5-6 1.3-2.1 2.2-4.4 2.2-6.8 0.1-2.5-0.4-4.8-1-7.2-1.1-4.7-1.5-9.5-1.1-13.9 0.8-9 4.5-16.6 8.8-21.7 4.3-5.3 8.9-8.4 12.3-10.1 1.6-0.9 3-1.4 3.9-1.8q1.4-0.5 1.5-0.4 0 0-1.4 0.6c-0.9 0.4-2.2 1-3.8 2-3.3 1.8-7.8 4.9-11.9 10.1-4.2 5.2-7.7 12.6-8.5 21.4-0.3 4.3 0.1 8.9 1.2 13.6 0.6 2.3 1.1 4.8 1 7.4 0 2.6-0.9 5.2-2.4 7.3-1.4 2.3-3.1 4.1-4.5 6.1-1.5 2-2.6 4.1-3 6.4-1 4.6 0.2 9.3 0.5 13.7 0.2 2.2 0.2 4.5-0.2 6.6-0.4 2.1-1.3 4-2.2 5.8-2 3.5-4.3 6.3-6 9.2-3.5 5.7-4.3 11.2-5 14.8q-0.4 2.6-0.7 4.2-0.2 1.5-0.3 1.5z" />
					</g>
				</g>
				<g id="&lt;Group&gt;">
					<g id="&lt;Group&gt;">
						<path id="&lt;Path&gt;" class="s1"
							d="m366.1 649.1c0 0.2-1.9-0.2-4.9 0.7-3.1 0.9-7.2 3.4-10.4 8.3-3.2 4.7-4.6 11.6-5.4 19.2-0.7 7.6-1.9 15.9-3.6 24.6-3.6 17.3-8.4 32.6-11.9 43.6-1.8 5.5-3.3 10-4.4 13q-0.8 2.2-1.3 3.5-0.4 1.2-0.5 1.2 0 0 0.3-1.2 0.4-1.4 1.1-3.6c1-3.2 2.4-7.7 4.1-13.1 3.3-11 8-26.3 11.6-43.6 1.7-8.6 2.9-16.9 3.7-24.6 0.8-7.5 2.3-14.6 5.7-19.4 3.3-5 7.7-7.5 10.9-8.3 1.5-0.4 2.8-0.4 3.7-0.4q1.3 0.1 1.3 0.1z" />
					</g>
				</g>
				<g id="&lt;Group&gt;">
					<g id="&lt;Group&gt;">
						<g id="&lt;Group&gt;">
							<g id="&lt;Group&gt;">
								<path id="&lt;Path&gt;" class="s8"
									d="m292.6 757.9h38.7c0 0-23.5 186.5-153.2 185.9l1.7-36.4c0 0 88.2-5.4 112.8-149.5z" />
							</g>
							<g id="&lt;Group&gt;">
								<g id="&lt;Group&gt;">
									<g id="&lt;Group&gt;">
										<path id="&lt;Path&gt;" class="s8"
											d="m165.4 896.9l-0.3 16-35.4-0.6c-2 0-3.6-1.7-3.6-3.7l0.2-8.7c0-2 1.7-3.6 3.7-3.6z" />
									</g>
									<g id="&lt;Group&gt;" style="opacity: .3">
										<path id="&lt;Path&gt;" class="s6"
											d="m165.4 896.9l-0.3 16-35.4-0.6c-2 0-3.6-1.7-3.6-3.7l0.2-8.7c0-2 1.7-3.6 3.7-3.6z" />
									</g>
									<g id="&lt;Group&gt;">
										<path id="&lt;Path&gt;" class="s8"
											d="m164.9 921.9l-0.4 24-32.9-0.6c-3.4 0-6.1-2.8-6-6.2l0.2-11.8c0.1-3.4 2.8-6.1 6.2-6z" />
									</g>
									<g id="&lt;Group&gt;">
										<path id="&lt;Path&gt;" class="s8"
											d="m165.4 896.9l-0.8 40.8-15.4-0.2 0.8-40.8z" />
									</g>
								</g>
								<g id="&lt;Group&gt;">
									<path id="&lt;Path&gt;" class="s5"
										d="m183.6 949.6l-24.9 0.3-0.7-55.3 24.9-0.3z" />
								</g>
								<g id="&lt;Group&gt;">
									<g id="&lt;Group&gt;">
										<path id="&lt;Path&gt;" class="s7"
											d="m183.3 943.8c0 0.5-5.5 0.8-12.2 0.8-6.8 0.1-12.3-0.2-12.3-0.5 0-0.3 5.5-0.5 12.2-0.5 3.4 0 6.5 0 8.7 0q1.3 0.1 2.6 0.1c0.7 0 0.9 0.1 1 0.1z" />
									</g>
								</g>
								<g id="&lt;Group&gt;">
									<g id="&lt;Group&gt;">
										<path id="&lt;Path&gt;" class="s7"
											d="m183.2 933.8c0 0.5-5.5 0.8-12.3 0.9-6.7 0-12.2-0.3-12.2-0.5 0-0.3 5.5-0.5 12.2-0.6 3.4 0 6.5 0 8.7 0.1q1.3 0 2.6 0.1c0.6 0 0.9 0 1 0z" />
									</g>
								</g>
								<g id="&lt;Group&gt;">
									<g id="&lt;Group&gt;">
										<path id="&lt;Path&gt;" class="s7"
											d="m183.4 923.8c0.1 0.4-5.4 0.8-12.2 0.8-6.7 0-12.2-0.2-12.2-0.5 0-0.3 5.5-0.5 12.2-0.5 3.4-0.1 6.5 0 8.7 0q1.3 0.1 2.6 0.1c0.6 0 0.9 0 0.9 0.1z" />
									</g>
								</g>
								<g id="&lt;Group&gt;">
									<g id="&lt;Group&gt;">
										<path id="&lt;Path&gt;" class="s7"
											d="m182.9 913.9c0.1 0.5-5.5 0.8-12.2 0.8-6.8 0.1-12.3-0.2-12.3-0.5 0-0.3 5.5-0.5 12.3-0.5 3.4 0 6.4 0 8.6 0q1.4 0.1 2.7 0.1c0.6 0 0.9 0.1 0.9 0.1z" />
									</g>
								</g>
								<g id="&lt;Group&gt;">
									<g id="&lt;Group&gt;">
										<path id="&lt;Path&gt;" class="s7"
											d="m183.3 904.5c0 0.4-5.5 0.8-12.2 0.8-6.8 0-12.3-0.2-12.3-0.5 0-0.3 5.5-0.5 12.2-0.5 3.4-0.1 6.5 0 8.7 0q1.3 0 2.6 0.1c0.7 0 0.9 0 1 0.1z" />
									</g>
								</g>
							</g>
						</g>
						<g id="&lt;Group&gt;">
							<g id="&lt;Group&gt;">
								<path id="&lt;Path&gt;" class="s5"
									d="m196.9 942q0.1 0 0.1 1v1.1l-0.3-1.1c-0.7-2.3-2.4-9.6-3.8-18.3-0.9-5.4-1.5-10.3-1.8-13.8-0.3-3.6-0.4-5.8-0.3-5.8 0.2 0 0.5 2.2 1 5.7 0.5 3.5 1.2 8.4 2.1 13.7 1.4 8.7 2.8 16 3.1 18.4l-0.3 0.1q0.1-1 0.2-1z" />
							</g>
						</g>
						<g id="&lt;Group&gt;">
							<g id="&lt;Group&gt;">
								<path id="&lt;Path&gt;" class="s5"
									d="m215.3 938.4c-0.3 0.1-3.2-8.3-6.5-18.8-3.3-10.5-5.7-19.1-5.4-19.2 0.3-0.1 3.1 8.4 6.4 18.9 3.3 10.5 5.8 19 5.5 19.1z" />
							</g>
						</g>
						<g id="&lt;Group&gt;">
							<g id="&lt;Group&gt;">
								<path id="&lt;Path&gt;" class="s5"
									d="m237 929.2c-0.2 0.2-4.5-7.9-9.5-18.1-5-10.1-8.9-18.5-8.6-18.6 0.2-0.1 4.5 8 9.5 18.2 5 10.1 8.9 18.4 8.6 18.5z" />
							</g>
						</g>
						<g id="&lt;Group&gt;">
							<g id="&lt;Group&gt;">
								<path id="&lt;Path&gt;" class="s5"
									d="m256.3 914.8c-0.3 0.2-5.8-6.9-12.4-15.8-6.6-8.9-11.7-16.3-11.5-16.4 0.2-0.2 5.8 6.9 12.4 15.8 6.5 8.9 11.7 16.3 11.5 16.4z" />
							</g>
						</g>
						<g id="&lt;Group&gt;">
							<g id="&lt;Group&gt;">
								<path id="&lt;Path&gt;" class="s5"
									d="m273.1 898.9c-0.2 0.2-6.7-6-14.4-13.7-7.7-7.8-13.8-14.3-13.6-14.5 0.2-0.2 6.6 6 14.3 13.7 7.8 7.8 13.9 14.3 13.7 14.5z" />
							</g>
						</g>
						<g id="&lt;Group&gt;">
							<g id="&lt;Group&gt;">
								<path id="&lt;Path&gt;" class="s5"
									d="m287 879.7c-0.1 0.2-2-0.9-5.1-2.7-3.3-1.9-7.3-4.3-11.8-6.9-4.5-2.6-8.5-4.9-11.8-6.9-3.1-1.8-4.9-2.9-4.8-3 0-0.2 2 0.8 5.1 2.4 3.1 1.6 7.4 3.9 12 6.6 4.7 2.7 8.8 5.3 11.7 7.2 3 1.9 4.7 3.2 4.7 3.3z" />
							</g>
						</g>
						<g id="&lt;Group&gt;">
							<g id="&lt;Group&gt;">
								<path id="&lt;Path&gt;" class="s5"
									d="m296.3 860.3c0 0.2-1.9-0.7-4.8-2.2-3-1.4-7-3.4-11.6-5.5-4.5-2.1-8.6-3.9-11.6-5.2-3.1-1.3-4.9-2.1-4.9-2.3 0.1-0.1 2 0.5 5.1 1.6 3.1 1.2 7.3 2.9 11.9 5 4.5 2.1 8.6 4.2 11.4 5.8 2.9 1.6 4.6 2.7 4.5 2.8z" />
							</g>
						</g>
						<g id="&lt;Group&gt;">
							<g id="&lt;Group&gt;">
								<path id="&lt;Path&gt;" class="s5"
									d="m307.5 841.6c0 0.1-2.1-0.2-5.5-1-3.4-0.7-8.1-1.8-13.1-3.3-5.1-1.5-9.7-3-12.9-4.2-3.3-1.2-5.3-2.1-5.2-2.2 0-0.2 2.1 0.4 5.4 1.5 3.3 1 7.9 2.4 12.9 3.9 5.1 1.4 9.7 2.7 13.1 3.6 3.3 0.9 5.4 1.5 5.3 1.7z" />
							</g>
						</g>
						<g id="&lt;Group&gt;">
							<g id="&lt;Group&gt;">
								<path id="&lt;Path&gt;" class="s5"
									d="m313.5 822.6c0 0.3-8.3-0.5-18.5-1.8-10.2-1.3-18.4-2.6-18.3-2.9 0-0.2 8.3 0.6 18.5 1.9 10.1 1.3 18.4 2.5 18.3 2.8z" />
							</g>
						</g>
						<g id="&lt;Group&gt;">
							<g id="&lt;Group&gt;">
								<path id="&lt;Path&gt;" class="s5"
									d="m319.9 804.1c0 0.2-2.1 0.1-5.4-0.1-3.3-0.3-7.9-0.7-12.9-1.2-5.1-0.5-9.7-1-12.9-1.4-3.3-0.4-5.4-0.8-5.4-0.9 0.1-0.2 2.1-0.1 5.4 0.2 3.4 0.2 7.9 0.6 13 1.1 5 0.5 9.6 1 12.9 1.4 3.3 0.5 5.3 0.8 5.3 0.9z" />
							</g>
						</g>
						<g id="&lt;Group&gt;">
							<g id="&lt;Group&gt;">
								<path id="&lt;Path&gt;" class="s5"
									d="m324.8 786.2c0 0.3-8.6 0.8-19.3 1.1-10.7 0.4-19.3 0.4-19.3 0.1 0-0.3 8.6-0.8 19.3-1.1 10.6-0.3 19.3-0.4 19.3-0.1z" />
							</g>
						</g>
						<g id="&lt;Group&gt;">
							<g id="&lt;Group&gt;">
								<path id="&lt;Path&gt;" class="s5"
									d="m326.8 771.6c0 0.1-2 0.5-5.3 0.8-3.3 0.3-7.8 0.6-12.8 0.6-5.1 0.1-9.6-0.2-12.9-0.5-3.3-0.3-5.3-0.6-5.3-0.7 0-0.2 2.1-0.1 5.4 0 3.2 0.1 7.8 0.2 12.8 0.2 5 0 9.5-0.2 12.8-0.3 3.2-0.2 5.3-0.3 5.3-0.1z" />
							</g>
						</g>
					</g>
					<g id="&lt;Group&gt;">
						<g id="&lt;Group&gt;">
							<path id="&lt;Path&gt;" class="s9"
								d="m294.3 763.4q0 0 0 0.5 0 0.6 0 1.5c0 1.3 0 3.2-0.1 5.7-0.2 4.9-0.9 12-2.5 20.7-1.6 8.7-4.3 19-8.7 29.8-4.3 10.9-10.4 22.3-18.2 33.3-8 11-16.9 20.3-25.9 27.9-8.9 7.5-17.7 13.4-25.5 17.6-7.7 4.3-14.3 7.2-18.9 8.9-2.3 1-4.1 1.5-5.4 2q-0.8 0.2-1.4 0.4-0.4 0.2-0.5 0.1 0 0 0.5-0.2 0.5-0.2 1.4-0.5c1.2-0.5 3-1.2 5.2-2.1 4.6-1.9 11.1-4.9 18.8-9.2 7.6-4.3 16.4-10.2 25.2-17.8 8.9-7.5 17.7-16.8 25.6-27.7 7.8-10.9 13.9-22.3 18.2-33 4.4-10.8 7.2-21 8.9-29.6 1.7-8.6 2.5-15.7 2.8-20.7 0.2-2.4 0.2-4.3 0.3-5.6q0.1-0.9 0.1-1.5 0-0.5 0.1-0.5z" />
						</g>
					</g>
				</g>
			</g>
			<g id="&lt;Group&gt;">
				<g id="&lt;Group&gt;">
					<path id="&lt;Path&gt;" class="s8"
						d="m473.8 546c0 0-21.4-29.1-71-24.8 0 0 50.5-38.8 20.8-78.6 0 0 63.7 18.8 64.5-60.9 0 0 11.6 73.9 71.7 52.9 0 0 4.3 58.7 45.9 47.9-20.1 19.8-39.7 37.3-35.7 62.6" />
				</g>
				<g id="&lt;Group&gt;" style="opacity: .8">
					<path id="&lt;Path&gt;" class="s9"
						d="m473.8 546c0 0-21.4-29.1-71-24.8 0 0 50.5-38.8 20.8-78.6 0 0 63.7 18.8 64.5-60.9 0 0 11.6 73.9 71.7 52.9 0 0 4.3 58.7 45.9 47.9-20.1 19.8-39.7 37.3-35.7 62.6" />
				</g>
				<g id="&lt;Group&gt;">
					<path id="&lt;Path&gt;" class="s8"
						d="m473.8 546c0 0-0.5-33.9-40.3-30.4 0 0 37-21.4 13.2-53.4 0 0 51.2 15.1 51.8-48.9 0 0 9.3 59.4 57.6 42.5 0 0-5.7 43.1 27.7 34.3-16.2 16-22.7 34.1-19.5 54.4" />
				</g>
				<g id="&lt;Group&gt;" style="opacity: .6">
					<path id="&lt;Path&gt;" class="s9"
						d="m473.8 546c0 0-0.5-33.9-40.3-30.4 0 0 37-21.4 13.2-53.4 0 0 51.2 15.1 51.8-48.9 0 0 9.3 59.4 57.6 42.5 0 0-5.7 43.1 27.7 34.3-16.2 16-22.7 34.1-19.5 54.4" />
				</g>
				<g id="&lt;Group&gt;">
					<g id="&lt;Group&gt;">
						<g id="&lt;Group&gt;">
							<path id="&lt;Path&gt;" class="s8"
								d="m539.3 321.5q0 0-0.5 1.3-0.6 1.3-1.6 3.5c-0.7 1.5-1.5 3.4-2.4 5.6-0.9 2.2-2 4.7-3 7.5-1.1 2.8-2.3 5.8-3.4 9.2-1.2 3.3-2.2 6.9-3.4 10.7-2.2 7.6-4.2 16-5.9 25-1.6 9-2.6 17.7-3.2 25.5-0.2 4-0.5 7.7-0.5 11.3-0.2 3.5-0.1 6.8-0.1 9.7 0 3 0.2 5.7 0.2 8.1 0.1 2.4 0.2 4.4 0.4 6.1q0.1 2.4 0.2 3.9 0.1 1.3 0 1.3 0 0-0.2-1.3-0.2-1.5-0.4-3.9c-0.2-1.6-0.4-3.7-0.5-6-0.2-2.4-0.4-5.1-0.4-8.1-0.1-3-0.2-6.3-0.1-9.9 0-3.5 0.3-7.3 0.5-11.2 0.5-7.9 1.5-16.6 3.1-25.7 1.6-9 3.8-17.5 6-25.1 1.2-3.8 2.3-7.4 3.5-10.7 1.1-3.3 2.4-6.4 3.5-9.2 1.1-2.8 2.2-5.3 3.2-7.4 0.9-2.2 1.8-4.1 2.6-5.6q1.1-2.1 1.7-3.4 0.6-1.2 0.7-1.2z" />
						</g>
					</g>
					<g id="&lt;Group&gt;">
						<g id="&lt;Group&gt;">
							<path id="&lt;Path&gt;" class="s8"
								d="m396.1 307.8c-0.2 0.2-4.6-5.1-12-9-7.3-4-14.2-4.7-14.1-5 0-0.2 1.8-0.1 4.5 0.4 2.7 0.5 6.4 1.7 10.1 3.7 3.8 2 6.8 4.4 8.7 6.4 2 2 2.9 3.4 2.8 3.5z" />
						</g>
					</g>
					<g id="&lt;Group&gt;">
						<g id="&lt;Group&gt;">
							<path id="&lt;Path&gt;" class="s8"
								d="m411.5 394.8q0.1 0 0.8 0.8 0.9 1 2.3 2.4c1.9 2.1 4.6 5.2 7.8 9.1 3.2 4 6.8 8.8 10.7 14.3 3.8 5.5 7.8 11.7 11.7 18.4 3.9 6.7 7.3 13.2 10.1 19.3 2.9 6.1 5.2 11.6 7 16.4 1.9 4.7 3.2 8.6 4.1 11.3q0.5 1.9 0.9 3.1 0.3 1.1 0.3 1.1-0.1 0-0.5-1-0.4-1.2-1.1-3.1c-1-2.6-2.4-6.5-4.3-11.1-1.9-4.7-4.4-10.2-7.2-16.3-2.9-6-6.3-12.5-10.2-19.2-3.9-6.7-7.8-12.9-11.6-18.4-3.8-5.5-7.4-10.3-10.5-14.3-3.1-4-5.7-7.2-7.5-9.3q-1.3-1.5-2.1-2.5-0.7-0.9-0.7-1z" />
						</g>
					</g>
					<g id="&lt;Group&gt;">
						<g id="&lt;Group&gt;">
							<path id="&lt;Path&gt;" class="s8"
								d="m549 405.1q0.1 0-0.4 0.9-0.5 1-1.3 2.5c-0.7 1.1-1.4 2.4-2.2 4-0.7 1.5-1.7 3.3-2.6 5.3-1.9 4-3.9 8.8-5.9 14.3-2 5.5-3.8 11.7-5.3 18.2-1.5 6.6-2.4 13-3.1 18.8-0.5 5.8-0.7 11-0.7 15.4-0.1 2.2 0 4.2 0.1 6 0 1.8 0.1 3.3 0.2 4.5q0.1 1.7 0.1 2.8 0.1 1 0 1 0 0-0.2-0.9-0.1-1.2-0.3-2.9c-0.2-1.2-0.3-2.7-0.4-4.5-0.1-1.7-0.3-3.7-0.3-6-0.1-4.4 0.1-9.7 0.6-15.5 0.6-5.9 1.5-12.3 3-18.9 1.5-6.6 3.4-12.8 5.4-18.3 2-5.5 4.1-10.4 6.1-14.3 1-2 2-3.8 2.8-5.3 0.9-1.6 1.6-2.9 2.3-3.9q0.9-1.5 1.5-2.4 0.6-0.9 0.6-0.8z" />
						</g>
					</g>
					<g id="&lt;Group&gt;">
						<g id="&lt;Group&gt;">
							<path id="&lt;Path&gt;" class="s8"
								d="m588.3 412.8c0.1 0.1-1.7 1.4-4.3 3.8-2.7 2.3-6.2 5.7-9.5 9.9-3.4 4.2-5.9 8.3-7.6 11.5-1.6 3.1-2.5 5.1-2.7 5-0.1 0 0.6-2.1 2.1-5.4 1.5-3.2 4-7.5 7.3-11.8 3.4-4.2 7.1-7.6 9.9-9.8 2.8-2.2 4.7-3.3 4.8-3.2z" />
						</g>
					</g>
					<g id="&lt;Group&gt;">
						<g id="&lt;Group&gt;">
							<path id="&lt;Path&gt;" class="s8"
								d="m421.3 463.8c0.1-0.1 2 1 4.9 3.1 2.9 2.1 6.6 5.3 10.3 9.3 3.7 4.1 6.5 8.2 8.2 11.3 1.8 3 2.7 5.1 2.6 5.1-0.2 0.1-1.2-1.8-3.2-4.8-1.9-2.9-4.8-6.9-8.4-10.9-3.6-4-7.2-7.2-10-9.4-2.7-2.3-4.5-3.5-4.4-3.7z" />
						</g>
					</g>
					<g id="&lt;Group&gt;">
						<g id="&lt;Group&gt;">
							<path id="&lt;Path&gt;" class="s8"
								d="m411.2 445.2c-0.2 0.3-4.3-2-9.8-3.4-5.5-1.4-10.2-1.4-10.2-1.7 0-0.3 4.8-0.8 10.5 0.7 5.7 1.5 9.6 4.2 9.5 4.4z" />
						</g>
					</g>
				</g>
				<g id="&lt;Group&gt;">
					<g id="&lt;Group&gt;">
						<g id="&lt;Group&gt;">
							<path id="&lt;Compound Path&gt;" fill-rule="evenodd" class="s8"
								d="m370 382.6q0.5-1.7 1.3-3.3l-1.8-2.8 3.8-3.9 2.8 1.7q1.6-0.9 3.3-1.4l0.7-3.2 5.5-0.1 0.7 3.2q1.8 0.4 3.4 1.3l2.7-1.8 3.9 3.8-1.7 2.8q0.9 1.5 1.4 3.3l3.3 0.7 0.1 5.4-3.2 0.8q-0.5 1.8-1.4 3.3l1.9 2.8-3.8 3.9-2.9-1.7q-1.5 0.9-3.2 1.4l-0.7 3.3h-5.5l-0.8-3.2q-1.7-0.4-3.3-1.3l-2.7 1.8-4-3.8 1.8-2.8q-1-1.5-1.5-3.3l-3.2-0.6-0.1-5.5zm7.2 3.1c0.1 3.2 2.7 5.8 6 5.8 3.2-0.1 5.8-2.8 5.7-6 0-3.2-2.7-5.8-5.9-5.8-3.3 0.1-5.8 2.8-5.8 6z" />
						</g>
					</g>
				</g>
				<g id="&lt;Group&gt;">
					<g id="&lt;Group&gt;">
						<g id="&lt;Group&gt;">
							<path id="&lt;Compound Path&gt;" fill-rule="evenodd" class="s7"
								d="m599.1 530.4q0.4-1.3 1-2.4l-1.3-2.1 2.8-2.9 2.1 1.3q1.1-0.7 2.4-1.1l0.5-2.3 4-0.1 0.6 2.4q1.3 0.3 2.4 0.9l2.1-1.3 2.9 2.8-1.3 2.1q0.7 1.1 1 2.4l2.4 0.5 0.1 4-2.4 0.6q-0.3 1.3-0.9 2.4l1.3 2.1-2.8 2.9-2.1-1.3q-1.1 0.7-2.4 1.1l-0.5 2.3-4 0.1-0.6-2.4q-1.3-0.3-2.5-0.9l-2 1.3-2.9-2.8 1.3-2.1q-0.7-1.1-1.1-2.4l-2.4-0.5v-4zm5.3 2.3c0 2.4 2 4.3 4.4 4.2 2.4 0 4.3-2 4.2-4.4 0-2.4-2-4.3-4.4-4.2-2.4 0-4.3 2-4.2 4.4z" />
						</g>
					</g>
				</g>
				<g id="&lt;Group&gt;">
					<g id="&lt;Group&gt;">
						<g id="&lt;Group&gt;">
							<path id="&lt;Path&gt;" class="s1"
								d="m550.1 376.3l8.9-18.8 8.5 4-8.9 18.9z" />
						</g>
						<g id="&lt;Group&gt;">
							<g id="&lt;Group&gt;">
								<path id="&lt;Path&gt;" class="s5"
									d="m550.1 376.3c0 0 0.9 0.4 2.4 1 1.5 0.6 3.7 1.6 6.2 2.7l-0.5 0.2c2.3-4.9 5.4-11.6 8.9-18.9-0.3-0.6 0.3 0.9 0.2 0.7h-0.1v-0.1h-0.2l-0.2-0.2-0.6-0.2-1.1-0.6q-1.1-0.5-2.2-1-2.1-1-4.1-2l0.7-0.2c-2.6 5.4-4.9 10-6.6 13.3q-1.2 2.3-2 3.9c-0.5 0.9-0.8 1.4-0.8 1.4-0.1 0 0.1-0.4 0.5-1.3q0.7-1.7 1.7-3.9c1.5-3.4 3.6-8.2 6.3-13.8l0.2-0.5 0.4 0.2q2 1 4.2 2 1 0.5 2.1 1l1.1 0.5 0.6 0.3 0.3 0.1 0.1 0.1h0.1v0.1h0.1c-0.1-0.2 0.4 1.3 0.2 0.7-3.5 7.3-6.7 13.9-9.1 18.7l-0.1 0.4-0.4-0.2c-2.7-1.3-4.8-2.4-6.2-3.2-1.5-0.7-2.2-1.2-2.1-1.2z" />
							</g>
						</g>
					</g>
					<g id="&lt;Group&gt;">
						<g id="&lt;Group&gt;">
							<path id="&lt;Path&gt;" class="s1"
								d="m566.7 351.5c-4.3-2.1-9.5-0.2-11.6 4.1l15.7 7.5c2.1-4.3 0.3-9.5-4.1-11.6z" />
						</g>
						<g id="&lt;Group&gt;">
							<g id="&lt;Group&gt;">
								<path id="&lt;Path&gt;" class="s5"
									d="m566.7 351.5c0 0 0.4 0.1 1 0.4 0.6 0.3 1.4 0.8 2.2 1.8 0.8 0.9 1.7 2.2 2 3.9 0.4 1.7 0.2 3.8-0.6 5.7l-0.2 0.4-0.5-0.2c-2.4-1.1-5.1-2.4-7.8-3.7-2.8-1.3-5.5-2.6-7.9-3.7l-0.4-0.2 0.2-0.5c0.9-1.9 2.4-3.3 4-4.1 1.5-0.8 3.1-1 4.3-0.9 1.3 0 2.2 0.3 2.8 0.6 0.6 0.3 0.9 0.5 0.9 0.5 0 0.2-1.3-0.6-3.7-0.5-1.1 0-2.6 0.3-3.9 1.1-1.4 0.7-2.7 2-3.6 3.7l-0.2-0.6c2.5 1.1 5.1 2.4 7.9 3.7 2.8 1.3 5.4 2.6 7.8 3.8l-0.6 0.2c0.8-1.7 1-3.6 0.7-5.1-0.2-1.6-0.9-2.8-1.6-3.8-1.5-1.8-2.9-2.4-2.8-2.5z" />
							</g>
						</g>
					</g>
					<g id="&lt;Group&gt;">
						<g id="&lt;Group&gt;">
							<path id="&lt;Path&gt;" class="s1"
								d="m566.9 356.5c0.6-2-0.1-4.3-1.7-5.6" />
						</g>
						<g id="&lt;Group&gt;">
							<g id="&lt;Group&gt;">
								<path id="&lt;Path&gt;" class="s5"
									d="m565.2 350.9c0.1-0.3 1.6 0.5 2.1 2.4 0.6 1.8-0.1 3.3-0.4 3.2-0.3-0.1-0.1-1.4-0.5-2.9-0.5-1.5-1.4-2.5-1.2-2.7z" />
							</g>
						</g>
					</g>
					<g id="&lt;Group&gt;">
						<g id="&lt;Group&gt;">
							<path id="&lt;Path&gt;" class="s5"
								d="m557.3 360.1c0.2-0.2 2.1 0.8 4.6 1.9 2.4 1.1 4.5 1.9 4.4 2.2-0.1 0.3-2.3-0.1-4.9-1.2-2.5-1.2-4.3-2.6-4.1-2.9z" />
						</g>
					</g>
					<g id="&lt;Group&gt;">
						<g id="&lt;Group&gt;">
							<path id="&lt;Path&gt;" class="s5"
								d="m556.2 362.3c0.2-0.2 2.2 0.8 4.6 1.9 2.5 1.1 4.5 1.9 4.5 2.2-0.1 0.3-2.4-0.1-4.9-1.2-2.6-1.2-4.3-2.6-4.2-2.9z" />
						</g>
					</g>
					<g id="&lt;Group&gt;">
						<g id="&lt;Group&gt;">
							<path id="&lt;Path&gt;" class="s5"
								d="m555.2 364.6c0.2-0.3 2.1 0.7 4.6 1.8 2.4 1.2 4.5 1.9 4.4 2.2-0.1 0.3-2.3-0.1-4.9-1.2-2.5-1.2-4.3-2.6-4.1-2.8z" />
						</g>
					</g>
					<g id="&lt;Group&gt;">
						<g id="&lt;Group&gt;">
							<path id="&lt;Path&gt;" class="s5"
								d="m554.1 366.8c0.2-0.3 2.2 0.8 4.6 1.9 2.5 1.1 4.5 1.8 4.5 2.1-0.1 0.3-2.4 0-4.9-1.2-2.6-1.1-4.3-2.6-4.2-2.8z" />
						</g>
					</g>
					<g id="&lt;Group&gt;">
						<g id="&lt;Group&gt;">
							<path id="&lt;Path&gt;" class="s5"
								d="m553.1 369c0.2-0.3 2.1 0.8 4.6 1.9 2.4 1.1 4.5 1.9 4.4 2.1-0.1 0.3-2.3 0-4.9-1.2-2.5-1.1-4.3-2.6-4.1-2.8z" />
						</g>
					</g>
					<g id="&lt;Group&gt;">
						<g id="&lt;Group&gt;">
							<path id="&lt;Path&gt;" class="s5"
								d="m552 371.2c0.2-0.3 2.2 0.8 4.6 1.9 2.5 1.1 4.5 1.9 4.5 2.2-0.1 0.2-2.4-0.1-4.9-1.3-2.6-1.1-4.3-2.6-4.2-2.8z" />
						</g>
					</g>
					<g id="&lt;Group&gt;">
						<g id="&lt;Group&gt;">
							<path id="&lt;Path&gt;" class="s5"
								d="m551 373.4c0.2-0.2 2.1 0.8 4.6 1.9 2.4 1.1 4.5 1.9 4.4 2.2-0.1 0.2-2.3-0.1-4.9-1.3-2.5-1.1-4.3-2.6-4.1-2.8z" />
						</g>
					</g>
				</g>
				<g id="&lt;Group&gt;">
					<g id="&lt;Group&gt;">
						<g id="&lt;Group&gt;">
							<path id="&lt;Path&gt;" class="s1"
								d="m365.5 528.5l-18.9 8.6-3.9-8.6 18.9-8.6z" />
						</g>
						<g id="&lt;Group&gt;">
							<g id="&lt;Group&gt;">
								<path id="&lt;Path&gt;" class="s5"
									d="m365.5 528.5c0 0-0.5-0.9-1.2-2.3-0.7-1.5-1.8-3.6-3-6.1l0.5 0.2c-4.9 2.3-11.6 5.4-18.9 8.7-0.3 0.6 0.3-0.8 0.2-0.7l0.1 0.1v0.1l0.1 0.1 0.1 0.3 0.2 0.5 0.5 1.2q0.5 1.1 1 2.1 1 2.2 1.9 4.2l-0.7-0.2c5.5-2.5 10.2-4.5 13.6-5.9q2.4-1 4.1-1.7c0.9-0.4 1.5-0.6 1.5-0.6 0.1 0-0.3 0.3-1.2 0.7q-1.6 0.8-3.8 1.9c-3.4 1.6-8.1 3.9-13.7 6.5l-0.5 0.2-0.2-0.5q-0.9-2-1.9-4.1-0.5-1.1-1-2.2l-0.5-1.1-0.3-0.6-0.1-0.3-0.1-0.1v-0.1-0.1c-0.1 0.2 0.5-1.3 0.2-0.6 7.4-3.4 14.1-6.4 19.1-8.5l0.3-0.2 0.2 0.4c1.2 2.7 2.1 4.9 2.7 6.4 0.6 1.5 0.9 2.3 0.8 2.3z" />
							</g>
						</g>
					</g>
					<g id="&lt;Group&gt;">
						<g id="&lt;Group&gt;">
							<path id="&lt;Path&gt;" class="s1"
								d="m336.8 536.7c2 4.4 7.2 6.3 11.5 4.4l-7.2-15.9c-4.3 2-6.3 7.1-4.3 11.5z" />
						</g>
						<g id="&lt;Group&gt;">
							<g id="&lt;Group&gt;">
								<path id="&lt;Path&gt;" class="s5"
									d="m336.8 536.7c0 0-0.2-0.3-0.5-0.9-0.2-0.6-0.5-1.5-0.5-2.8-0.1-1.2 0.2-2.8 1-4.3 0.8-1.6 2.2-3 4.1-3.9l0.5-0.2 0.2 0.4c1.1 2.5 2.3 5.1 3.6 7.9 1.3 2.8 2.5 5.5 3.6 8l0.2 0.4-0.5 0.2c-1.9 0.8-4 0.9-5.6 0.5-1.7-0.4-3.1-1.2-4-2-0.9-0.9-1.4-1.7-1.7-2.3-0.3-0.6-0.4-1-0.4-1 0.2-0.1 0.7 1.3 2.5 2.8 0.9 0.7 2.2 1.5 3.7 1.7 1.6 0.4 3.4 0.2 5.1-0.6l-0.2 0.7c-1.1-2.5-2.4-5.2-3.6-8-1.3-2.8-2.5-5.4-3.6-7.9l0.6 0.2c-1.7 0.8-3 2.1-3.8 3.5-0.8 1.3-1.1 2.8-1.2 3.9 0 2.4 0.7 3.7 0.5 3.7z" />
							</g>
						</g>
					</g>
					<g id="&lt;Group&gt;">
						<g id="&lt;Group&gt;">
							<path id="&lt;Path&gt;" class="s1"
								d="m339.9 532.8c-1.7 1.1-2.7 3.4-2.3 5.4" />
						</g>
						<g id="&lt;Group&gt;">
							<g id="&lt;Group&gt;">
								<path id="&lt;Path&gt;" class="s5"
									d="m337.6 538.2c-0.3 0.1-0.9-1.5-0.1-3.2 0.7-1.8 2.3-2.5 2.4-2.2 0.1 0.3-0.9 1.1-1.5 2.6-0.6 1.4-0.5 2.7-0.8 2.8z" />
							</g>
						</g>
					</g>
					<g id="&lt;Group&gt;">
						<g id="&lt;Group&gt;">
							<path id="&lt;Path&gt;" class="s5"
								d="m349.6 536.2c-0.3 0.1-1.1-2-2.3-4.4-1.2-2.4-2.2-4.3-2-4.5 0.2-0.2 1.7 1.5 2.9 4.1 1.3 2.5 1.6 4.7 1.4 4.8z" />
						</g>
					</g>
					<g id="&lt;Group&gt;">
						<g id="&lt;Group&gt;">
							<path id="&lt;Path&gt;" class="s5"
								d="m351.8 535.2c-0.3 0.1-1.1-2-2.3-4.4-1.1-2.4-2.2-4.4-2-4.5 0.3-0.2 1.8 1.5 3 4.1 1.2 2.5 1.6 4.7 1.3 4.8z" />
						</g>
					</g>
					<g id="&lt;Group&gt;">
						<g id="&lt;Group&gt;">
							<path id="&lt;Path&gt;" class="s5"
								d="m354 534.2c-0.2 0.1-1.1-2-2.2-4.4-1.2-2.4-2.3-4.4-2-4.5 0.2-0.2 1.7 1.5 2.9 4 1.2 2.6 1.6 4.8 1.3 4.9z" />
						</g>
					</g>
					<g id="&lt;Group&gt;">
						<g id="&lt;Group&gt;">
							<path id="&lt;Path&gt;" class="s5"
								d="m356.3 533.2c-0.3 0.1-1.1-2-2.3-4.4-1.2-2.5-2.2-4.4-2-4.6 0.2-0.1 1.7 1.6 2.9 4.1 1.2 2.5 1.6 4.8 1.4 4.9z" />
						</g>
					</g>
					<g id="&lt;Group&gt;">
						<g id="&lt;Group&gt;">
							<path id="&lt;Path&gt;" class="s5"
								d="m358.5 532.2c-0.3 0-1.1-2-2.3-4.4-1.1-2.5-2.2-4.4-2-4.6 0.2-0.1 1.8 1.6 3 4.1 1.2 2.5 1.6 4.8 1.3 4.9z" />
						</g>
					</g>
					<g id="&lt;Group&gt;">
						<g id="&lt;Group&gt;">
							<path id="&lt;Path&gt;" class="s5"
								d="m360.7 531.1c-0.3 0.1-1.1-1.9-2.3-4.3-1.1-2.5-2.2-4.4-1.9-4.6 0.2-0.1 1.7 1.6 2.9 4.1 1.2 2.5 1.6 4.8 1.3 4.8z" />
						</g>
					</g>
					<g id="&lt;Group&gt;">
						<g id="&lt;Group&gt;">
							<path id="&lt;Path&gt;" class="s5"
								d="m363 530.1c-0.3 0.1-1.1-1.9-2.3-4.4-1.2-2.4-2.3-4.3-2-4.5 0.2-0.2 1.7 1.6 2.9 4.1 1.2 2.5 1.6 4.8 1.4 4.8z" />
						</g>
					</g>
				</g>
				<g id="&lt;Group&gt;">
					<g id="&lt;Group&gt;">
						<path id="&lt;Path&gt;" class="s8"
							d="m403 284.8c0 0 24.3 23.9 30.3 38.8 5.7 14.2 9.5 27.5 9.5 27.5 0 0 6.3-10.9 13.3 0 7 10.9 40.2 143.5 45.7 193.4h21.1c0 0-9.8-83.4-14.5-92.8-4.7-9.3-8.6-12.5-8.6-12.5 0 0-5.5-35.1-9.4-40.5-3.9-5.5-8.6-7.8-8.6-7.8 0 0-7-38.3-17.1-46.1-10.2-7.8-18-3.9-18-3.9 0 0-6.4-40.8-43.7-56.1z" />
					</g>
				</g>
				<g id="&lt;Group&gt;">
					<g id="&lt;Group&gt;">
						<path id="&lt;Path&gt;" class="s7"
							d="m601.3 461.9c0.1 0.3-6.6 1.3-14 4.8-7.5 3.3-12.6 7.7-12.8 7.4-0.1-0.1 1.1-1.3 3.2-2.9 2.2-1.7 5.4-3.8 9.2-5.5 3.8-1.7 7.4-2.8 10.1-3.3 2.6-0.5 4.3-0.6 4.3-0.5z" />
					</g>
				</g>
				<g id="&lt;Group&gt;">
					<g id="&lt;Group&gt;">
						<path id="&lt;Path&gt;" class="s7"
							d="m600.5 457.7c0.1 0.3-6.6 2.1-14.1 6.3-7.5 4.1-12.6 8.9-12.8 8.6-0.1-0.1 1.1-1.4 3.2-3.2 2.2-1.9 5.3-4.2 9.1-6.3 3.8-2.1 7.4-3.6 10.1-4.4 2.8-0.8 4.5-1.1 4.5-1z" />
					</g>
				</g>
				<g id="&lt;Group&gt;">
					<g id="&lt;Group&gt;">
						<path id="&lt;Path&gt;" class="s7"
							d="m596.4 467.9c0 0.4-4.4 0.4-9.6 1.9-5.1 1.5-8.9 3.7-9.1 3.5-0.2-0.2 3.5-3 8.9-4.5 5.3-1.5 9.9-1.1 9.8-0.9z" />
					</g>
				</g>
				<g id="&lt;Group&gt;">
					<path id="&lt;Path&gt;" class="s5"
						d="m549.8 544.3c-3.6-28 5.6-60.8 28-76.5l5.3 4.3c0 0-27.8 16.6-25.7 72.4" />
				</g>
				<g id="&lt;Group&gt;">
					<g id="&lt;Group&gt;">
						<g id="&lt;Group&gt;">
							<path id="&lt;Path&gt;" class="s7"
								d="m434.8 504c0.1 0.3-5.2 1.3-10.7 4.8-5.6 3.4-8.9 7.6-9.1 7.4-0.3-0.1 2.8-4.8 8.5-8.3 5.8-3.6 11.3-4.1 11.3-3.9z" />
						</g>
					</g>
					<g id="&lt;Group&gt;">
						<g id="&lt;Group&gt;">
							<path id="&lt;Path&gt;" class="s7"
								d="m434.3 501.5c0 0.3-4.9 2-10.9 4.2-6.1 2.3-10.9 4.2-11 4-0.1-0.3 4.5-2.7 10.6-4.9 6.1-2.3 11.2-3.6 11.3-3.3z" />
						</g>
					</g>
					<g id="&lt;Group&gt;">
						<path id="&lt;Compound Path&gt;" fill-rule="evenodd" class="s5"
							d="m495.9 551.2l-9.7-2.5c1.5-5.6 0.5-12-2.6-16.9-1.2-2-2.9-3.8-4.7-5.3-1 6.3-5 11.9-10.6 14.2-4.2 1.7-9.1 1.4-13.3-0.8-3.9-2.1-6.5-5.5-7.3-9.5-1.2-6 2-12.6 7.8-16 2.1-1.3 4.6-2.1 7.3-2.5q-0.4-0.3-0.7-0.6c-8.5-6.4-21.4-6.8-30.2-0.8l-5.6-8.3c12.3-8.4 29.9-7.9 41.8 1.2 3.9 2.9 6.8 6.5 8.7 10.4 6.3 2.5 11.7 7 15.3 12.7 4.5 7.2 5.9 16.5 3.8 24.7zm-29.8-29.5c-2.1 0-4 0.4-5.5 1.3-2.1 1.2-3.4 3.6-3.1 5.5 0.3 1.4 1.6 2.3 2.2 2.6 1.5 0.8 3.4 0.9 4.7 0.4 3.1-1.3 5.1-5.3 4.7-9.2q0-0.2-0.1-0.4-1.5-0.2-2.9-0.2z" />
					</g>
				</g>
				<g id="&lt;Group&gt;">
					<g id="&lt;Group&gt;">
						<path id="&lt;Path&gt;" class="s8"
							d="m414.7 365.5c0 0 1 0.5 2.7 1.4 1.7 1 4.1 2.5 6.9 4.5 2.9 2 6.2 4.5 9.7 7.6 3.5 3 7.2 6.5 10.8 10.5 3.5 4 6.7 8 9.4 11.7 2.6 3.8 4.8 7.4 6.5 10.4 1.7 3.1 3 5.6 3.8 7.4 0.8 1.8 1.2 2.8 1.1 2.8-0.1 0-0.6-0.9-1.5-2.6-0.9-1.8-2.3-4.2-4-7.2-1.8-3-4.1-6.5-6.7-10.2-2.7-3.7-5.9-7.7-9.4-11.6-3.6-3.9-7.2-7.5-10.6-10.5-3.5-3-6.7-5.6-9.5-7.7-2.8-2.1-5.1-3.7-6.8-4.7-1.6-1.1-2.5-1.7-2.4-1.8z" />
					</g>
				</g>
			</g>
			<g id="&lt;Group&gt;">
				<g id="&lt;Group&gt;">
					<path id="&lt;Path&gt;" class="s5"
						d="m382.5 689.4h-1.7c-9.9 0-17.9-8-17.9-17.9v-65.2c0-9.9 8-17.9 17.9-17.9h1.7z" />
				</g>
				<g id="&lt;Group&gt;">
					<path id="&lt;Path&gt;" class="s5"
						d="m673.6 689.4h-1.9v-101h1.9c9.8 0 17.8 7.9 17.8 17.7v65.5c0 9.8-8 17.8-17.8 17.8z" />
				</g>
				<g id="&lt;Group&gt;">
					<path id="&lt;Path&gt;" class="s8"
						d="m647.9 788.6h-242.3c-15.6 0-28.2-12.6-28.2-28.2v-163.5c0-15.6 12.6-28.3 28.2-28.3h242.3c15.6 0 28.3 12.7 28.3 28.3v163.5c0 15.6-12.7 28.2-28.3 28.2z" />
				</g>
				<g id="&lt;Group&gt;">
					<path id="&lt;Path&gt;" class="s9"
						d="m564.8 592c-37.8 0-68.5 30.7-68.5 68.5h137c0-37.8-30.7-68.5-68.5-68.5z" />
				</g>
				<g id="&lt;Group&gt;">
					<g id="&lt;Group&gt;">
						<g id="&lt;Group&gt;">
							<path id="&lt;Path&gt;" class="s1"
								d="m619.9 657.2c2.9-0.1 5.5-0.1 7.4 0 1.9 0 3.1 0.1 3.1 0.2 0 0-1.2 0.1-3.1 0.2-1.9 0-4.5 0.1-7.4 0.1-2.8-0.1-5.4-0.1-7.3-0.1q-1.4 0-2.3-0.1-0.8 0-0.8 0 0-0.1 0.8-0.1 0.9-0.1 2.3-0.1c1.9 0 4.5-0.1 7.3-0.1z" />
						</g>
					</g>
					<g id="&lt;Group&gt;">
						<g id="&lt;Group&gt;">
							<path id="&lt;Path&gt;" class="s1"
								d="m615.2 636.5c5.2-2.5 9.5-4.3 9.6-3.9 0.2 0.3-4 2.4-9.2 4.8-5.3 2.3-9.6 4.1-9.7 3.9-0.1-0.2 4.1-2.4 9.3-4.8z" />
						</g>
					</g>
					<g id="&lt;Group&gt;">
						<g id="&lt;Group&gt;">
							<path id="&lt;Path&gt;" class="s1"
								d="m602.3 619.5c3.8-4.3 7.1-7.6 7.4-7.4 0.2 0.3-2.7 3.9-6.6 8.1-3.9 4.3-7.2 7.6-7.4 7.4-0.1-0.1 2.8-3.7 6.6-8.1z" />
						</g>
					</g>
					<g id="&lt;Group&gt;">
						<g id="&lt;Group&gt;">
							<path id="&lt;Path&gt;" class="s1"
								d="m584 608.7c2-5.4 3.8-9.7 4.1-9.6 0.3 0.2-1.1 4.6-3.1 10-2.1 5.3-4 9.6-4.2 9.6-0.2-0.1 1.2-4.6 3.2-10z" />
						</g>
					</g>
					<g id="&lt;Group&gt;">
						<g id="&lt;Group&gt;">
							<path id="&lt;Path&gt;" class="s1"
								d="m563 605.2c0-5.8 0.2-10.5 0.5-10.5 0.4 0 0.6 4.7 0.5 10.5 0 5.7-0.3 10.4-0.5 10.4-0.2 0-0.4-4.7-0.5-10.4z" />
						</g>
					</g>
					<g id="&lt;Group&gt;">
						<g id="&lt;Group&gt;">
							<path id="&lt;Path&gt;" class="s1"
								d="m542.1 609.1c-2.1-5.4-3.5-9.8-3.2-10 0.4-0.1 2.2 4.2 4.1 9.6 2 5.4 3.4 9.9 3.2 10-0.2 0-2-4.3-4.1-9.6z" />
						</g>
					</g>
					<g id="&lt;Group&gt;">
						<g id="&lt;Group&gt;">
							<path id="&lt;Path&gt;" class="s1"
								d="m524 620.2c-3.9-4.2-6.9-7.8-6.6-8.1 0.2-0.2 3.5 3.1 7.3 7.4 3.8 4.4 6.8 8 6.6 8.1-0.2 0.2-3.4-3.1-7.3-7.4z" />
						</g>
					</g>
					<g id="&lt;Group&gt;">
						<g id="&lt;Group&gt;">
							<path id="&lt;Path&gt;" class="s1"
								d="m511.5 637.4c-5.3-2.4-9.4-4.5-9.3-4.8 0.2-0.4 4.5 1.4 9.7 3.9 5.2 2.4 9.3 4.6 9.2 4.8-0.1 0.2-4.4-1.6-9.6-3.9z" />
						</g>
					</g>
					<g id="&lt;Group&gt;">
						<g id="&lt;Group&gt;">
							<path id="&lt;Path&gt;" class="s1"
								d="m507.1 657.7c-2.9 0-5.5-0.1-7.4-0.1-1.9-0.1-3-0.2-3-0.2 0-0.1 1.1-0.2 3-0.2 1.9-0.1 4.5-0.1 7.4 0 2.9 0 5.5 0.1 7.4 0.1q1.4 0 2.2 0.1 0.8 0 0.8 0.1 0 0-0.8 0-0.8 0.1-2.2 0.1c-1.9 0-4.5 0-7.4 0.1z" />
						</g>
					</g>
				</g>
				<g id="&lt;Group&gt;">
					<path id="&lt;Path&gt;" class="s9"
						d="m450.6 604c0 5-4.1 9.1-9.1 9.1-5 0-9.1-4.1-9.1-9.1 0-5 4.1-9.1 9.1-9.1 5 0 9.1 4.1 9.1 9.1z" />
				</g>
				<g id="&lt;Group&gt;">
					<path id="&lt;Path&gt;" class="s7"
						d="m450.6 631.4c0 5-4.1 9.1-9.1 9.1-5 0-9.1-4.1-9.1-9.1 0-5 4.1-9.1 9.1-9.1 5 0 9.1 4.1 9.1 9.1z" />
				</g>
				<g id="&lt;Group&gt;">
					<g id="&lt;Group&gt;">
						<path id="&lt;Path&gt;" class="s5"
							d="m622.9 769.6c0 0-0.1-0.5-0.1-1.7q0-1.7 0-4.9c0-4.3-0.1-10.6-0.1-18.7-0.1-16.3-0.1-39.7-0.2-68.6l0.4 0.4c-49 0-114.5 0.1-186.4 0.1l0.5-0.5c0 33.1 0 64.9 0 93.9l-0.5-0.4c54.3 0 100.9 0.1 133.8 0.2 16.5 0 29.6 0.1 38.6 0.1q6.8 0.1 10.4 0.1 1.7 0 2.6 0 1 0 1 0 0 0-0.9 0.1-0.9 0-2.6 0-3.6 0-10.2 0.1c-9 0-22.1 0-38.5 0.1-33.1 0.1-79.7 0.1-134.2 0.2h-0.5v-0.5c0-29 0-60.8 0-93.9v-0.5h0.5c71.9 0 137.4 0.1 186.4 0.1h0.4v0.4c-0.1 29-0.2 52.5-0.3 68.8 0 8.1 0 14.4-0.1 18.7q0 3.1 0 4.8 0 1.6 0 1.6z" />
					</g>
				</g>
				<g id="&lt;Group&gt;">
					<path id="&lt;Path&gt;" class="s5"
						d="m632.9 801.8h-212.2c-6.9 0-12.5-5.5-12.5-12.4v-1.2h237.1v1.2c0 6.9-5.5 12.4-12.4 12.4z" />
				</g>
				<g id="&lt;Group&gt;">
					<g id="&lt;Group&gt;" style="opacity: .3">
						<g id="&lt;Group&gt;">
							<path id="&lt;Path&gt;" class="s6"
								d="m602.9 688.9c-0.3 2.5 1.4 5.2 3.9 5.9 2.5 0.8 5.3-0.3 6.8-2.5 1.4-2.1 1.4-5.1 0.1-7.3 0 1.7-0.5 3.4-1.6 4.7-1.1 1.3-2.8 2-4.5 1.8-1.7-0.3-3.1-1.6-3.4-3.3" />
						</g>
					</g>
					<g id="&lt;Group&gt;">
						<g id="&lt;Group&gt;">
							<g id="&lt;Group&gt;">
								<path id="&lt;Path&gt;" class="s1"
									d="m613.6 686.6c0 3.1-2.5 5.6-5.5 5.6-3.1 0-5.5-2.5-5.5-5.6 0-3 2.4-5.5 5.5-5.5 3 0 5.5 2.5 5.5 5.5z" />
							</g>
							<g id="&lt;Group&gt;">
								<g id="&lt;Group&gt;">
									<path id="&lt;Path&gt;" class="s5"
										d="m613.6 686.6c-0.1 0-0.1-0.4-0.3-1.3-0.3-0.8-0.9-1.9-2.1-2.8-1.1-0.8-3-1.3-4.8-0.6-1.8 0.6-3.3 2.5-3.3 4.7 0 2.3 1.5 4.1 3.3 4.8 1.8 0.7 3.7 0.2 4.8-0.7 1.2-0.8 1.8-2 2.1-2.8 0.2-0.8 0.2-1.3 0.3-1.3 0.1 0 0.2 0.5 0 1.4-0.1 0.9-0.6 2.3-1.9 3.3-1.3 1.1-3.5 1.7-5.7 1-2.1-0.7-4-3-4-5.7 0-2.6 1.9-4.9 4-5.6 2.2-0.8 4.4-0.1 5.7 1 1.3 1 1.8 2.4 1.9 3.2 0.2 0.9 0.1 1.4 0 1.4z" />
								</g>
							</g>
						</g>
						<g id="&lt;Group&gt;">
							<g id="&lt;Group&gt;">
								<path id="&lt;Path&gt;" class="s5"
									d="m610.6 684.3c0.1 0.3-1.2 0.9-2.4 2.2-1.2 1.3-1.8 2.6-2.1 2.5-0.3 0 0-1.7 1.4-3.2 1.4-1.5 3.1-1.8 3.1-1.5z" />
							</g>
						</g>
						<g id="&lt;Group&gt;">
							<g id="&lt;Group&gt;">
								<path id="&lt;Path&gt;" class="s5"
									d="m610.6 688.4c-0.2 0.1-1.1-0.9-2.5-1.8-1.3-0.9-2.6-1.4-2.6-1.7 0.1-0.3 1.7-0.2 3.2 0.9 1.6 1 2.2 2.4 1.9 2.6z" />
							</g>
						</g>
					</g>
				</g>
				<g id="&lt;Group&gt;">
					<g id="&lt;Group&gt;" style="opacity: .3">
						<g id="&lt;Group&gt;">
							<path id="&lt;Path&gt;" class="s6"
								d="m605.5 757.3c-0.3 2.5 1.4 5.1 3.9 5.9 2.5 0.8 5.3-0.3 6.8-2.5 1.4-2.1 1.4-5.1 0.1-7.3 0 1.7-0.5 3.4-1.6 4.7-1.1 1.2-2.8 2-4.5 1.7-1.7-0.2-3.2-1.6-3.4-3.2" />
						</g>
					</g>
					<g id="&lt;Group&gt;">
						<g id="&lt;Group&gt;">
							<g id="&lt;Group&gt;">
								<path id="&lt;Path&gt;" class="s1"
									d="m616.2 755c0 3.1-2.5 5.6-5.5 5.6-3.1 0-5.5-2.5-5.5-5.6 0-3 2.4-5.5 5.5-5.5 3 0 5.5 2.5 5.5 5.5z" />
							</g>
							<g id="&lt;Group&gt;">
								<g id="&lt;Group&gt;">
									<path id="&lt;Path&gt;" class="s5"
										d="m616.2 755c-0.1 0-0.1-0.5-0.4-1.3-0.2-0.8-0.8-1.9-2-2.8-1.2-0.8-3-1.3-4.8-0.6-1.8 0.6-3.3 2.5-3.3 4.7 0 2.2 1.5 4.1 3.3 4.8 1.8 0.7 3.6 0.2 4.8-0.7 1.2-0.8 1.8-2 2-2.8 0.3-0.8 0.3-1.3 0.4-1.3 0.1 0 0.2 0.5 0 1.4-0.1 0.9-0.6 2.2-1.9 3.3-1.3 1.1-3.5 1.7-5.7 1-2.1-0.7-4-3-4-5.7 0-2.6 1.9-4.9 4-5.6 2.2-0.8 4.4-0.1 5.7 0.9 1.3 1.1 1.8 2.4 1.9 3.3 0.2 0.9 0.1 1.4 0 1.4z" />
								</g>
							</g>
						</g>
						<g id="&lt;Group&gt;">
							<g id="&lt;Group&gt;">
								<path id="&lt;Path&gt;" class="s5"
									d="m613.2 752.7c0.1 0.2-1.2 0.9-2.4 2.2-1.2 1.2-1.8 2.6-2.1 2.5-0.3-0.1-0.1-1.8 1.4-3.2 1.4-1.5 3.1-1.8 3.1-1.5z" />
							</g>
						</g>
						<g id="&lt;Group&gt;">
							<g id="&lt;Group&gt;">
								<path id="&lt;Path&gt;" class="s5"
									d="m613.2 756.7c-0.2 0.2-1.1-0.8-2.5-1.7-1.3-0.9-2.6-1.4-2.6-1.7 0.1-0.3 1.6-0.2 3.2 0.8 1.5 1.1 2.2 2.5 1.9 2.6z" />
							</g>
						</g>
					</g>
				</g>
				<g id="&lt;Group&gt;">
					<g id="&lt;Group&gt;" style="opacity: .3">
						<g id="&lt;Group&gt;">
							<path id="&lt;Path&gt;" class="s6"
								d="m444.8 688.8c-0.4 2.5 1.4 5.2 3.8 5.9 2.5 0.8 5.4-0.3 6.8-2.5 1.5-2.1 1.4-5.1 0.1-7.3 0.1 1.7-0.4 3.4-1.6 4.7-1.1 1.3-2.8 2-4.5 1.8-1.6-0.3-3.1-1.6-3.4-3.3" />
						</g>
					</g>
					<g id="&lt;Group&gt;">
						<g id="&lt;Group&gt;">
							<g id="&lt;Group&gt;">
								<path id="&lt;Path&gt;" class="s1"
									d="m455.5 686.6c0 3-2.5 5.5-5.6 5.5-3 0-5.5-2.5-5.5-5.5 0-3.1 2.5-5.6 5.5-5.6 3.1 0 5.6 2.5 5.6 5.6z" />
							</g>
							<g id="&lt;Group&gt;">
								<g id="&lt;Group&gt;">
									<path id="&lt;Path&gt;" class="s5"
										d="m455.5 686.6c-0.1 0-0.2-0.5-0.4-1.3-0.3-0.8-0.8-2-2.1-2.8-1.1-0.9-3-1.4-4.8-0.7-1.8 0.7-3.3 2.6-3.3 4.8 0 2.2 1.5 4.1 3.3 4.7 1.8 0.7 3.7 0.2 4.9-0.6 1.2-0.9 1.7-2 2-2.8 0.2-0.8 0.3-1.3 0.4-1.3 0 0 0.1 0.5 0 1.4-0.2 0.8-0.7 2.2-2 3.2-1.3 1.1-3.5 1.8-5.6 1-2.2-0.7-4-3-4-5.6 0-2.7 1.8-5 4-5.7 2.1-0.7 4.3-0.1 5.6 1 1.3 1 1.8 2.4 2 3.3 0.1 0.9 0 1.4 0 1.4z" />
								</g>
							</g>
						</g>
						<g id="&lt;Group&gt;">
							<g id="&lt;Group&gt;">
								<path id="&lt;Path&gt;" class="s5"
									d="m452.5 684.2c0.1 0.3-1.2 1-2.4 2.2-1.3 1.3-1.9 2.6-2.2 2.5-0.3 0 0-1.7 1.4-3.2 1.4-1.5 3.1-1.8 3.2-1.5z" />
							</g>
						</g>
						<g id="&lt;Group&gt;">
							<g id="&lt;Group&gt;">
								<path id="&lt;Path&gt;" class="s5"
									d="m452.5 688.3c-0.3 0.1-1.2-0.9-2.6-1.8-1.3-0.9-2.6-1.4-2.5-1.7 0-0.2 1.6-0.2 3.1 0.9 1.6 1 2.2 2.4 2 2.6z" />
							</g>
						</g>
					</g>
				</g>
				<g id="&lt;Group&gt;">
					<g id="&lt;Group&gt;" style="opacity: .3">
						<g id="&lt;Group&gt;">
							<path id="&lt;Path&gt;" class="s6"
								d="m443.6 756.6c-0.4 2.5 1.4 5.2 3.9 5.9 2.4 0.8 5.3-0.3 6.7-2.5 1.5-2.1 1.5-5.1 0.1-7.3 0.1 1.7-0.4 3.4-1.5 4.7-1.1 1.3-2.9 2-4.5 1.8-1.7-0.3-3.2-1.6-3.4-3.3" />
						</g>
					</g>
					<g id="&lt;Group&gt;">
						<g id="&lt;Group&gt;">
							<g id="&lt;Group&gt;">
								<path id="&lt;Path&gt;" class="s1"
									d="m454.3 754.3c0 3.1-2.5 5.6-5.5 5.6-3.1 0-5.6-2.5-5.6-5.6 0-3 2.5-5.5 5.6-5.5 3 0 5.5 2.5 5.5 5.5z" />
							</g>
							<g id="&lt;Group&gt;">
								<g id="&lt;Group&gt;">
									<path id="&lt;Path&gt;" class="s5"
										d="m454.3 754.3c-0.1 0.1-0.1-0.4-0.4-1.3-0.2-0.7-0.8-1.9-2-2.8-1.2-0.8-3.1-1.3-4.9-0.6-1.7 0.6-3.3 2.5-3.2 4.7-0.1 2.3 1.5 4.2 3.2 4.8 1.8 0.7 3.7 0.2 4.9-0.7 1.2-0.8 1.8-2 2-2.8 0.3-0.8 0.3-1.3 0.4-1.3 0 0 0.2 0.5 0 1.4-0.1 0.9-0.7 2.3-2 3.3-1.2 1.1-3.4 1.8-5.6 1-2.1-0.7-4-3-4-5.7 0-2.6 1.9-4.9 4-5.6 2.2-0.8 4.4-0.1 5.6 1 1.3 1 1.9 2.4 2 3.3 0.2 0.9 0 1.4 0 1.3z" />
								</g>
							</g>
						</g>
						<g id="&lt;Group&gt;">
							<g id="&lt;Group&gt;">
								<path id="&lt;Path&gt;" class="s5"
									d="m451.3 752c0.1 0.3-1.2 0.9-2.4 2.2-1.2 1.3-1.9 2.6-2.2 2.5-0.2 0 0-1.7 1.4-3.2 1.4-1.5 3.1-1.8 3.2-1.5z" />
							</g>
						</g>
						<g id="&lt;Group&gt;">
							<g id="&lt;Group&gt;">
								<path id="&lt;Path&gt;" class="s5"
									d="m451.3 756.1c-0.2 0.1-1.2-0.9-2.5-1.8-1.4-0.9-2.7-1.4-2.6-1.7 0-0.2 1.6-0.2 3.2 0.9 1.5 1 2.1 2.4 1.9 2.6z" />
							</g>
						</g>
					</g>
				</g>
				<g id="&lt;Group&gt;" style="opacity: .3">
					<g id="&lt;Group&gt;">
						<path id="&lt;Path&gt;" class="s6"
							d="m436.5 770.1c21.6 4.8 46.9 4.9 70.3 3.8 11.2-0.6 23.6-1.3 32.6 5.5 1.9 1.5 4.3 3.4 6.6 2.6 3.3-1.3 3.5-7.4 7.1-7.6 1.8 0 3.1 1.7 3.7 3.4 0.6 1.7 0.7 3.6 1.7 5.1 0.9 1.6 3.1 2.6 4.5 1.5 2.3-1.7-0.4-5.5 0.5-8.2 0.9-2.8 4.9-3.1 7.7-1.9 2.7 1.1 5.4 3 8.4 2.6 2.1-0.3 3.8-1.8 5.6-2.9 5.3-3.2 11.8-3.4 18-3.5 6.5-0.1 13.2-0.7 19.7-0.9z" />
					</g>
				</g>
				<g id="&lt;Group&gt;">
					<g id="&lt;Group&gt;">
						<path id="&lt;Path&gt;" class="s5"
							d="m585.5 699.6q0 0-1 0.3c-0.7 0.2-1.7 0.5-2.9 1-2.5 0.9-5.9 2.8-9.7 5.5-3.9 2.8-8.2 6.5-13.7 9.8-2.7 1.7-5.8 3.1-9.3 3.9-3.4 0.8-7 0.7-10.6 0.8-7.3-0.1-13.7 3-19.2 5.9-5.6 3-10.6 5.7-14.6 8.4-3.9 2.6-6.8 5.2-8.6 7.1-1.9 1.9-2.8 3.1-2.8 3q-0.1 0 0.5-0.9 0.6-0.9 2-2.4c1.7-2 4.6-4.7 8.5-7.4 4-2.8 8.9-5.6 14.5-8.6 2.8-1.5 5.8-3.1 9-4.2 3.3-1.3 7-1.9 10.6-1.9 3.7-0.2 7.2 0 10.5-0.8 3.3-0.7 6.3-2.1 9-3.7 5.4-3.2 9.8-6.9 13.7-9.6 4-2.7 7.5-4.4 10.1-5.3 1.2-0.4 2.3-0.6 3-0.8q1-0.2 1-0.1z" />
					</g>
				</g>
				<g id="&lt;Group&gt;">
					<g id="&lt;Group&gt;">
						<path id="&lt;Path&gt;" class="s5"
							d="m538.1 715.4c0 0.1-2.2-0.1-5.8-0.9-3.5-0.7-8.4-2.1-13.5-4.2-5.2-2-9.6-4.4-12.7-6.3-3.1-1.9-4.9-3.3-4.8-3.4 0.1-0.1 2 1 5.2 2.8 3.1 1.7 7.6 3.9 12.7 6 5.1 2 9.8 3.5 13.3 4.4 3.5 1 5.7 1.5 5.6 1.6z" />
					</g>
				</g>
				<g id="&lt;Group&gt;">
					<path id="&lt;Path&gt;" class="s8"
						d="m568.2 650.1c1.5-0.8 46.5-15.2 46.5-15.2l-43 24z" />
				</g>
				<g id="&lt;Group&gt;">
					<path id="&lt;Path&gt;" class="s5"
						d="m563.5 645.3c-8.4 0-15.2 6.8-15.2 15.2h30.4c0-8.4-6.8-15.2-15.2-15.2z" />
				</g>
				<g id="&lt;Group&gt;">
					<g id="&lt;Group&gt;">
						<path id="&lt;Path&gt;" class="s5"
							d="m410.7 788.2c-0.3 0-0.5-48.9-0.5-109.1 0-60.3 0.2-109.1 0.5-109.1 0.3 0 0.5 48.8 0.5 109.1 0 60.2-0.2 109.1-0.5 109.1z" />
					</g>
				</g>
				<g id="&lt;Group&gt;">
					<g id="&lt;Group&gt;">
						<path id="&lt;Path&gt;" class="s5"
							d="m648.4 788.2c-0.3 0-0.5-48.9-0.5-109.1 0-60.3 0.2-109.1 0.5-109.1 0.3 0 0.5 48.8 0.5 109.1 0 60.2-0.2 109.1-0.5 109.1z" />
					</g>
				</g>
				<g id="&lt;Group&gt;">
					<path id="&lt;Path&gt;" class="s5"
						d="m403 597.3c0 1.2-1 2.3-2.3 2.3-1.3 0-2.3-1.1-2.3-2.3 0-1.3 1-2.4 2.3-2.4 1.3 0 2.3 1.1 2.3 2.4z" />
				</g>
				<g id="&lt;Group&gt;">
					<path id="&lt;Path&gt;" class="s5"
						d="m403 641c0 1.3-1 2.4-2.3 2.4-1.3 0-2.3-1.1-2.3-2.4 0-1.3 1-2.3 2.3-2.3 1.3 0 2.3 1 2.3 2.3z" />
				</g>
				<g id="&lt;Group&gt;">
					<path id="&lt;Path&gt;" class="s5"
						d="m403 684.8c0 1.3-1 2.3-2.3 2.3-1.3 0-2.3-1-2.3-2.3 0-1.3 1-2.3 2.3-2.3 1.3 0 2.3 1 2.3 2.3z" />
				</g>
				<g id="&lt;Group&gt;">
					<path id="&lt;Path&gt;" class="s5"
						d="m403 728.6c0 1.3-1 2.3-2.3 2.3-1.3 0-2.3-1-2.3-2.3 0-1.3 1-2.4 2.3-2.4 1.3 0 2.3 1.1 2.3 2.4z" />
				</g>
				<g id="&lt;Group&gt;">
					<path id="&lt;Path&gt;" class="s5"
						d="m403 772.3c0 1.3-1 2.4-2.3 2.4-1.3 0-2.3-1.1-2.3-2.4 0-1.2 1-2.3 2.3-2.3 1.3 0 2.3 1.1 2.3 2.3z" />
				</g>
				<g id="&lt;Group&gt;">
					<path id="&lt;Path&gt;" class="s5"
						d="m662.9 597.3c0 1.2-1 2.3-2.3 2.3-1.3 0-2.3-1.1-2.3-2.3 0-1.3 1-2.4 2.3-2.4 1.3 0 2.3 1.1 2.3 2.4z" />
				</g>
				<g id="&lt;Group&gt;">
					<path id="&lt;Path&gt;" class="s5"
						d="m662.9 641c0 1.3-1 2.4-2.3 2.4-1.3 0-2.3-1.1-2.3-2.4 0-1.3 1-2.3 2.3-2.3 1.3 0 2.3 1 2.3 2.3z" />
				</g>
				<g id="&lt;Group&gt;">
					<path id="&lt;Path&gt;" class="s5"
						d="m662.9 684.8c0 1.3-1 2.3-2.3 2.3-1.3 0-2.3-1-2.3-2.3 0-1.3 1-2.3 2.3-2.3 1.3 0 2.3 1 2.3 2.3z" />
				</g>
				<g id="&lt;Group&gt;">
					<path id="&lt;Path&gt;" class="s5"
						d="m662.9 728.6c0 1.3-1 2.3-2.3 2.3-1.3 0-2.3-1-2.3-2.3 0-1.3 1-2.4 2.3-2.4 1.3 0 2.3 1.1 2.3 2.4z" />
				</g>
				<g id="&lt;Group&gt;">
					<path id="&lt;Path&gt;" class="s5"
						d="m662.9 772.3c0 1.3-1 2.4-2.3 2.4-1.3 0-2.3-1.1-2.3-2.4 0-1.2 1-2.3 2.3-2.3 1.3 0 2.3 1.1 2.3 2.3z" />
				</g>
				<g id="&lt;Group&gt;">
					<g id="&lt;Group&gt;">
						<path id="&lt;Path&gt;" class="s7" d="m570.8 568.6h-102.2v-24.1h102.2z" />
					</g>
					<g id="&lt;Group&gt;">
						<g id="&lt;Group&gt;">
							<path id="&lt;Path&gt;" class="s5"
								d="m476 568.6c-0.3 0-0.5-5.2-0.5-11.6 0-6.4 0.2-11.6 0.5-11.6 0.3 0 0.5 5.2 0.5 11.6 0 6.4-0.2 11.6-0.5 11.6z" />
						</g>
					</g>
					<g id="&lt;Group&gt;">
						<g id="&lt;Group&gt;">
							<path id="&lt;Path&gt;" class="s5"
								d="m486.5 568.6c-0.3 0-0.6-5.2-0.6-11.6 0-6.4 0.3-11.6 0.6-11.6 0.3 0 0.5 5.2 0.5 11.6 0 6.4-0.2 11.6-0.5 11.6z" />
						</g>
					</g>
					<g id="&lt;Group&gt;">
						<g id="&lt;Group&gt;">
							<path id="&lt;Path&gt;" class="s5"
								d="m497 568.6c-0.3 0-0.6-5.2-0.6-11.6 0-6.4 0.3-11.6 0.6-11.6 0.2 0 0.5 5.2 0.5 11.6 0 6.4-0.3 11.6-0.5 11.6z" />
						</g>
					</g>
					<g id="&lt;Group&gt;">
						<g id="&lt;Group&gt;">
							<path id="&lt;Path&gt;" class="s5"
								d="m507.5 568.6c-0.3 0-0.6-5.2-0.6-11.6 0-6.4 0.3-11.6 0.6-11.6 0.2 0 0.5 5.2 0.5 11.6 0 6.4-0.3 11.6-0.5 11.6z" />
						</g>
					</g>
					<g id="&lt;Group&gt;">
						<g id="&lt;Group&gt;">
							<path id="&lt;Path&gt;" class="s5"
								d="m517.9 568.6c-0.2 0-0.5-5.2-0.5-11.6 0-6.4 0.3-11.6 0.5-11.6 0.3 0 0.6 5.2 0.6 11.6 0 6.4-0.3 11.6-0.6 11.6z" />
						</g>
					</g>
					<g id="&lt;Group&gt;">
						<g id="&lt;Group&gt;">
							<path id="&lt;Path&gt;" class="s5"
								d="m528.4 568.6c-0.2 0-0.5-5.2-0.5-11.6 0-6.4 0.3-11.6 0.5-11.6 0.3 0 0.6 5.2 0.6 11.6 0 6.4-0.3 11.6-0.6 11.6z" />
						</g>
					</g>
					<g id="&lt;Group&gt;">
						<g id="&lt;Group&gt;">
							<path id="&lt;Path&gt;" class="s5"
								d="m538.9 568.6c-0.3 0-0.5-5.2-0.5-11.6 0-6.4 0.2-11.6 0.5-11.6 0.3 0 0.6 5.2 0.6 11.6 0 6.4-0.3 11.6-0.6 11.6z" />
						</g>
					</g>
					<g id="&lt;Group&gt;">
						<g id="&lt;Group&gt;">
							<path id="&lt;Path&gt;" class="s5"
								d="m549.4 568.6c-0.3 0-0.5-5.2-0.5-11.6 0-6.4 0.2-11.6 0.5-11.6 0.3 0 0.5 5.2 0.5 11.6 0 6.4-0.2 11.6-0.5 11.6z" />
						</g>
					</g>
					<g id="&lt;Group&gt;">
						<g id="&lt;Group&gt;">
							<path id="&lt;Path&gt;" class="s5"
								d="m559.9 568.6c-0.3 0-0.5-5.2-0.5-11.6 0-6.4 0.2-11.6 0.5-11.6 0.3 0 0.5 5.2 0.5 11.6 0 6.4-0.2 11.6-0.5 11.6z" />
						</g>
					</g>
				</g>
				<g id="&lt;Group&gt;" style="opacity: .3">
					<g id="&lt;Group&gt;">
						<path id="&lt;Path&gt;" class="s6"
							d="m691.4 620.8c2.4 12.6 4.7 24.4 7.2 36.9-2.4 0.3-7.2 0-7.2 0-0.1-12 0-24.9 0-36.9z" />
					</g>
				</g>
				<g id="&lt;Group&gt;">
					<g id="&lt;Group&gt;">
						<path id="&lt;Path&gt;" class="s9"
							d="m384.3 592.1c0.3 0 0 37.4-0.7 83.4-0.7 46.1-1.4 83.4-1.7 83.4-0.3 0 0-37.3 0.7-83.4 0.6-46.1 1.4-83.4 1.7-83.4z" />
					</g>
				</g>
				<g id="&lt;Group&gt;">
					<g id="&lt;Group&gt;">
						<path id="&lt;Path&gt;" class="s9"
							d="m427.8 764.1c-0.3 0-0.5-18.6-0.5-41.6 0-22.9 0.2-41.5 0.5-41.5 0.3 0 0.5 18.6 0.5 41.5 0 23-0.2 41.6-0.5 41.6z" />
					</g>
				</g>
				<g id="&lt;Group&gt;">
					<g id="&lt;Group&gt;">
						<path id="&lt;Path&gt;" class="s9"
							d="m624.2 575.4c0 0.3-45.9 0.5-102.4 0.5-56.6 0-102.4-0.2-102.4-0.5 0-0.3 45.8-0.6 102.4-0.6 56.5 0 102.4 0.3 102.4 0.6z" />
					</g>
				</g>
			</g>
		</g>
	</g>
	<g id="Floor">
		<g id="&lt;Group&gt;">
			<g id="&lt;Group&gt;">
				<path id="&lt;Path&gt;" class="s5"
					d="m925.2 950.3c0 0.3-190.4 0.5-425.2 0.5-234.9 0-425.2-0.2-425.2-0.5 0-0.3 190.3-0.5 425.2-0.5 234.8 0 425.2 0.2 425.2 0.5z" />
			</g>
		</g>
	</g>
</svg>