<svg version="1.2" xmlns="http://www.w3.org/2000/svg" viewBox="0 0 243 243" width="243" height="243">
	<title>5331080-ai</title>
	<style>
		tspan { white-space:pre } 
		.t0 { font-size: 22px;fill: #313a3d;font-weight: 500;font-family: "Exo-Medium", "Exo" } 
		.t1 { font-size: 9px;fill: #ff4355;font-weight: 500;font-family: "Montserrat-Medium", "Montserrat" } 
		.s2 { fill: #313a3d } 
		.t3 { font-size: 22px;fill: #313a3d;font-weight: 700;font-family: "Montserrat-Bold", "Montserrat" } 
		.s4 { fill: #32869c } 
		.s5 { fill: #56b280 } 
	</style>
	<g id="BACKGROUND">
	</g>
	<g id="OBJECTS">
		<g id="&lt;Group&gt;">
			<g id="&lt;Group&gt;">
				<text id="LETTER LOGO
" style="transform: matrix(2,0,0,2,-315.001,-134.889)" >
					<tspan x="-68.8" y="0" class="t0">LETTER LOGO
</tspan>
				</text>
				<text id="SUBTEXT HERE
" style="transform: matrix(2,0,0,2,-318.771,-105.755)" >
					<tspan x="-57.4" y="0" class="t1" dx="0 4 4 4 4 4 4 4 4 4 4 4 4" >SUBTEXT HERE
</tspan>
				</text>
			</g>
			<path id="&lt;Path&gt;" class="s2" d="m-215.7-348.8v-22.6l-99-57.2-0.3-0.1-99.1 57.2-0.2 0.1v83.1h52.9l31.4-31.3h-15.9l-20.1 20.1h-37.1v-65.4l88.1-50.9 88.1 50.9v4.9h-152v31.4h70.6l-40.4 40.3h86.5v9h-152.1v22.7l99.3 57.3 99.1-57.2 0.2-0.1v-83.2h-52.9l-31.4 31.4h15.8l20.2-20.2h37.1v65.5l-88.1 50.9-88.1-50.9v-5h152v-31.4h-70.5l40.3-40.3h-86.5v-9z"/>
		</g>
		<g id="&lt;Group&gt;">
			<g id="&lt;Group&gt;">
				<text id="LETTER LOGO
" style="transform: matrix(2,0,0,2,-750.778,-134.889)" >
					<tspan x="-79.3" y="0" class="t3">LETTER LOGO
</tspan>
				</text>
				<text id="SUBTEXT HERE
" style="transform: matrix(2,0,0,2,-754.55,-105.755)" >
					<tspan x="-57.4" y="0" class="t1" dx="0 4 4 4 4 4 4 4 4 4 4 4 4" >SUBTEXT HERE
</tspan>
				</text>
			</g>
			<g id="&lt;Group&gt;">
				<g id="&lt;Group&gt;">
					<path id="&lt;Path&gt;" class="s2" d="m-807.5-221l-12.2-14.2 125.6-171.8 12.2 14.1z"/>
				</g>
				<path id="&lt;Path&gt;" class="s2" d="m-721.7-369.2c-14.3 19.6-173.6 91.1-128.4-32 18.1 19.3 120.4 26.5 156-5.8"/>
				<path id="&lt;Path&gt;" class="s2" d="m-779.8-258.8c14.3-19.6 173.6-91.1 128.4 32-18.2-19.4-120.4-26.5-156.1 5.8"/>
				<path id="&lt;Compound Path&gt;" fill-rule="evenodd" class="s4" d="m-744-286.6c48.5-29.8 93.9-26 102.8-1.8-0.7-37.5-35.8-62.1-102.8 1.8zm-13.5-54.9c-48.5 29.9-94 26-102.8 1.9 0.7 37.5 35.7 62 102.8-1.9z"/>
			</g>
		</g>
		<g id="&lt;Group&gt;">
			<g id="&lt;Group&gt;">
				<text id="LETTER LOGO
" style="transform: matrix(2,0,0,2,120.784,-134.889)" >
					<tspan x="-79.3" y="0" class="t3">LETTER LOGO
</tspan>
				</text>
				<text id="SUBTEXT HERE
" style="transform: matrix(2,0,0,2,117.012,-105.756)" >
					<tspan x="-57.4" y="0" class="t1" dx="0 4 4 4 4 4 4 4 4 4 4 4 4" >SUBTEXT HERE
</tspan>
				</text>
			</g>
			<g id="&lt;Group&gt;">
				<path id="&lt;Path&gt;" class="s4" d="m70-402.4c9.7 2.9 19.3 6.6 28.2 10.5q2.7 1.2 5.4 2.5c-3.6-5.7-8.4-10.6-12.2-14.1 6.2-1.3 12.6-2 19.2-2 50.4 0 91.5 41 91.5 91.5 0 17.1-4.8 33.2-13 46.9 6.5-2.2 12.3-4.8 17.3-7.9 4.9-12 7.7-25.2 7.7-39 0-57.2-46.4-103.5-103.5-103.5-18 0-34.8 4.6-49.5 12.6q4.4 1.1 8.9 2.5 0 0 0 0z"/>
				<path id="&lt;Path&gt;" class="s4" d="m162.2-237.2q-0.5 0-1-0.1 0.5 0.1 1 0.1z"/>
				<path id="&lt;Path&gt;" class="s4" d="m24.2-283.8c-3.3-9.4-5.1-19.6-5.1-30.2 0-17.1 4.7-33.2 13-46.9-6.5 2.2-12.4 4.8-17.4 7.9-4.9 12-7.6 25.2-7.6 39 0 16.5 3.9 32.2 10.8 46.1q0.1-0.4 0.2-0.7c1.4-5.1 3.5-10.2 6.1-15.2z"/>
				<path id="&lt;Path&gt;" class="s2" d="m135.7-369.5c-100.7-42.2-195.4-26.6-140.2 51.7-1.7-15.5 5.8-27 19.2-35.2 5-3.1 10.9-5.7 17.4-7.9 26.7-9.1 64.9-11.1 103.6-8.6z"/>
				<path id="&lt;Path&gt;" class="s2" d="m85.4-258.5q9.5 3.9 18.8 7.2 5.4 1.9 10.7 3.6 5.6 1.7 11 3.2 3.4 0.9 6.8 1.8c9.9 2.4 19.4 4.2 28.5 5.4q0.5 0.1 1 0.1c63.9 8 103.9-15.7 63.5-73.1 1.6 15.5-5.8 27.1-19.3 35.3-5 3.1-10.8 5.7-17.3 7.9-26.8 9.1-64.9 11.1-103.7 8.6z"/>
				<path id="&lt;Path&gt;" class="s2" d="m54.2-242.1c5.3-29.2 59-77.3 122.7-114.2 0 0-21.4-32.4-61.9-34.1 11.9 3.1 31.9 15.9 36.8 28.5-76.2 24.8-112.4 50.1-127.6 78.1-2.6 5-4.7 10.1-6.1 15.2q-0.1 0.3-0.2 0.7c-7 26.5 17 51.1 44 45.2q0 0 0 0c-6.9-4.5-9.2-11.2-7.7-19.4z"/>
				<path id="&lt;Path&gt;" class="s4" d="m147.7-226.7q-2.1-0.6-4.2-1.4-0.3 0-0.5-0.1-0.2-0.1-0.3-0.1 0 0 0 0-4.6-1.6-9.1-3.4-0.8-0.3-1.5-0.6-1.4-0.6-2.8-1.1-1.2-0.5-2.4-1-0.9-0.4-1.9-0.8-1.2-0.6-2.4-1.1-0.9-0.4-1.8-0.8-1.2-0.5-2.3-1.1-0.5-0.2-0.9-0.4c3.5 5.7 8.4 10.6 12.1 14-6.1 1.4-12.6 2.1-19.1 2.1-21.3 0-40.9-7.3-56.4-19.6-1.5 8.2 0.8 14.9 7.7 19.4 14.5 7.8 31.1 12.2 48.7 12.2 17.9 0 34.8-4.6 49.5-12.6q-5.8-1.5-11.4-3.3-0.5-0.1-1-0.3z"/>
			</g>
		</g>
		<g id="&lt;Group&gt;">
			<g id="&lt;Group&gt;">
				<text id="LETTER LOGO
" style="transform: matrix(2,0,0,2,-750.778,303.532)" >
					<tspan x="-68.8" y="0" class="t0">LETTER LOGO
</tspan>
				</text>
				<text id="SUBTEXT HERE
" style="transform: matrix(2,0,0,2,-754.55,332.665)" >
					<tspan x="-57.4" y="0" class="t1" dx="0 4 4 4 4 4 4 4 4 4 4 4 4" >SUBTEXT HERE
</tspan>
				</text>
			</g>
			<g id="&lt;Group&gt;">
				<g id="&lt;Group&gt;">
					<path id="&lt;Path&gt;" class="s4" d="m-838.2 26.9v116.6l28.5-16.8c-11.2 0-18.5 0.5-18.5-25.7v-64.1h154.8v35.3l10-5.9v-39.4z"/>
					<path id="&lt;Path&gt;" class="s4" d="m-673.4 141.2v64.1h-154.8v-35.3l-10 5.9v39.4h174.8v-116.5l-28.5 16.7c11.2 0 18.5-0.5 18.5 25.7z"/>
				</g>
				<g id="&lt;Group&gt;">
					<path id="&lt;Path&gt;" class="s2" d="m-646.7 153.7c-2.5 2.5-4.1 6-4.1 9.8h-150.5l32.9-19.3c6.2-3.6 10-10.3 10-17.5v-13.9-9.4c-3.4 7.5-9.5 15-17.7 19.8q0 0 0 0l-106.1 62.3h253.4v-35.9h-8.1c-3.8 0-7.3 1.6-9.8 4.1z"/>
					<path id="&lt;Path&gt;" class="s2" d="m-854.8 88.5c2.5-2.5 4-6 4-9.8h150.6l-32.9 19.3c-6.3 3.6-10.1 10.3-10.1 17.6v13.8 9.4c3.5-7.5 9.5-15 17.8-19.8q0 0 0 0 0 0 0 0l106-62.3h-253.4v35.9h8.1c3.9 0 7.3-1.6 9.9-4.1z"/>
				</g>
			</g>
		</g>
		<g id="&lt;Group&gt;">
			<g id="&lt;Group&gt;">
				<text id="LETTER LOGO
" style="transform: matrix(2,0,0,2,120.783,303.532)" >
					<tspan x="-68.8" y="0" class="t0">LETTER LOGO
</tspan>
				</text>
				<text id="SUBTEXT HERE
" style="transform: matrix(2,0,0,2,117.011,332.665)" >
					<tspan x="-57.4" y="0" class="t1" dx="0 4 4 4 4 4 4 4 4 4 4 4 4" >SUBTEXT HERE
</tspan>
				</text>
			</g>
			<g id="&lt;Group&gt;">
				<path id="&lt;Path&gt;" class="s2" d="m129.1 171.3h-42.8l100.4-100.4 22.3-22.3h-31.5-42.8l-22.2 22.3h42.8l-100.4 100.4-22.3 22.2h31.5 42.7z"/>
				<path id="&lt;Path&gt;" class="s5" d="m134.7 48.6l9.6-9.5c8.7-8.7 8.7-22.8 0-31.5l-22.2 22.3-61.4 61.4c-5.3 5.2-11.3 3.3-13 2.6-1.8-0.8-7.4-3.7-7.4-11.1 0-6.6 5.4-11.9 11.9-11.9h1.4c5.9 0 11.5-2.3 15.7-6.5l15.7-15.8 5.7-5.6c-5.3 2.6-13 5.6-24.2 5.6h-14.3c-18.8 0-34.1 15.4-34.1 34.2 0 14.1 8 26.2 21 31.6 4.4 1.8 8.9 2.7 13.3 2.7 8.8 0 17.4-3.5 24-10.1l36.1-36.1"/>
				<path id="&lt;Path&gt;" class="s5" d="m106.8 193.5l-9.6 9.7c-8.7 8.6-8.7 22.7 0 31.4l63.3-63.3 20.4-20.4c5.2-5.2 11.3-3.2 13-2.5 1.7 0.7 7.4 3.6 7.4 11 0 6.6-5.4 11.9-12 11.9h-1.3c-5.9 0-11.6 2.3-15.7 6.5l-21.4 21.4c5.3-2.6 12.9-5.7 24.1-5.7h13.5 0.8c18.6-0.4 34.1-15.3 34.2-33.9 0.1-14.2-8-26.4-21.1-31.8-13-5.4-27.3-2.5-37.2 7.4l-36.1 36.1"/>
			</g>
		</g>
		<g id="&lt;Group&gt;">
			<g id="&lt;Group&gt;">
				<text id="LETTER LOGO
" style="transform: matrix(2,0,0,2,-315.524,303.532)" >
					<tspan x="-79.3" y="0" class="t3">LETTER LOGO
</tspan>
				</text>
				<text id="SUBTEXT HERE
" style="transform: matrix(2,0,0,2,-319.296,332.665)" >
					<tspan x="-57.4" y="0" class="t1" dx="0 4 4 4 4 4 4 4 4 4 4 4 4" >SUBTEXT HERE
</tspan>
				</text>
			</g>
			<g id="&lt;Group&gt;">
				<g id="&lt;Group&gt;">
					<path id="&lt;Path&gt;" class="s4" d="m-381.6 82c-50.5-20.4-25.1-74.9 91.9-55.5-46 5.9-83.4 27.6-91.9 55.5z"/>
					<path id="&lt;Path&gt;" class="s2" d="m-247 124.5c15.4 45.8-77.4 65.5-118.2 41.5-31.8-18.7-14.2-36.5 107.7-132.9-33.9-4.2-74.4 11.5-96.9 34 0 0 24-8.4 43.1-9.4-101.2 79.3-103.9 98.9-103 115.6 2.1 42.9 70.5 61.9 132.4 47.2 64.8-15.4 81.7-75.7 34.9-96z"/>
				</g>
				<path id="&lt;Path&gt;" class="s4" d="m-353.9 128.8c53.4-50.9 105.5-27.6 137.3-45.4-27.2 53.8-112.8 31.8-137.3 45.4z"/>
				<path id="&lt;Path&gt;" class="s4" d="m-353.9 128.8c45.1-49.9 93.5-44.8 111.9-57.7-16.7 48.4-97.7 47.8-111.9 57.7z"/>
			</g>
		</g>
	</g>
</svg>