<svg version="1.2" xmlns="http://www.w3.org/2000/svg" viewBox="0 0 828 652" width="828" height="652">
	<title>3806850-ai-svg</title>
	<style>
		tspan { white-space:pre }
		.a0 { fill: #db4444 }
		.a1 { fill: #56B280 }
		.a2 { fill: #997357 }

		.s0 { fill: #ffc294 }
		.s1 { fill: #ffb494 }

		.x0 { fill: #525252 }
		.x2 { fill: #262626 }
		.x3 { fill: #ffffff }

		.z0 { fill: #56B28040 }
		.z1 { fill: #17171740 }
		.z2 { fill: #26262640 }
		.z3 { fill: #ffffff40 }

		.u0 { opacity: .4;fill: none;stroke: #ffffff;stroke-linecap: round;stroke-linejoin:
		round;stroke-dasharray: 2,2 }

		.t0 { font-size: 8px;fill: #ffffff;font-weight: 800;font-family: "OpenSans-Extrabold",
		"Open Sans" }
	</style>
	<g id="OBJECTS">
		<g id="&lt;Group&gt;">
			<path id="&lt;Path&gt;" class="z0"
				d="m-0.4 103.8c29.9 17.5 63.7 28.3 98.3 30.2 63.6 3.6 125-20.4 184.6-42.9 59.5-22.6 122.2-44.4 185.4-36.5 63.2 7.9 126.1 55.3 129.6 118.9 3.3 60.9-46.6 117.5-35.7 177.6 6.1 33.1 30.2 60.4 57.9 79.8 27.6 19.3 59.1 32.2 88.6 48.4 45.6 24.9 88.2 59.7 109.7 107 9.2 20.2 13.6 43.1 12.8 65.4h-831.2z" />
			<g id="&lt;Group&gt;">
				<path id="&lt;Path&gt;" class="a0"
					d="m490 328.6h-87.1c-1.1 0-1.9-0.8-1.9-1.8 0-1.1 0.8-1.9 1.9-1.9h87.1c1.1 0 1.9 0.8 1.9 1.9 0 1-0.8 1.8-1.9 1.8z" />
				<path id="&lt;Path&gt;" class="a0"
					d="m488.5 325.9l40.9-77c0.5-0.9 1.6-1.2 2.5-0.8 0.9 0.5 1.3 1.7 0.8 2.6l-40.9 77c-0.5 0.9-1.7 1.2-2.6 0.7-0.9-0.5-1.2-1.6-0.7-2.5z" />
				<path id="&lt;Path&gt;" class="a2" d="m482.3 591.3h-28v-256h28z" />
				<path id="&lt;Path&gt;" class="z1" d="m482.3 371.9l-28-19.3v-17.3h28z" />
				<path id="&lt;Path&gt;" class="s0"
					d="m430.2 323.1l-1.7-3c-0.8-1.5-2-2.7-3.3-3.7-2.7-1.8-5.6-3.5-8.8-4.2-8.4-1.9-20.2 1.6-28.7 0.4-14.9-3-31-3.8-45.7-1.1-14.3-15.4-27.9-31.5-40.8-48.1-5.9 6-10.9 12.9-11.5 21.3 12.3 15.7 26.8 29.3 41.9 42.3 21 3.2 42.9 2.7 63.7-1.5q0-0.1 0-0.1c2.4-0.5 4.6-1.2 6.9-2.2 3.8 3.5 9.3 5.3 14.5 4.6 0.6-0.1 1.4-0.4 1.3-1 0-0.4-0.4-0.6-0.7-0.8-1.9-1.1-3.2-2-5.2-4 3.1-2.1 9.5-0.7 16.8 3.2 1 0.5 1.8-1.2 1.3-2.1z" />
				<path id="&lt;Path&gt;" class="z2"
					d="m430.2 323.1l-1.7-3c-0.8-1.5-2-2.7-3.3-3.7-2.7-1.8-5.6-3.5-8.8-4.2-8.4-1.9-20.2 1.6-28.7 0.4-14.9-3-31-3.8-45.7-1.1-14.3-15.4-27.9-31.5-40.8-48.1-5.9 6-10.9 12.9-11.5 21.3 12.3 15.7 26.8 29.3 41.9 42.3 21 3.2 42.9 2.7 63.7-1.5q0-0.1 0-0.1c2.4-0.5 4.6-1.2 6.9-2.2 3.8 3.5 9.3 5.3 14.5 4.6 0.6-0.1 1.4-0.4 1.3-1 0-0.4-0.4-0.6-0.7-0.8-1.9-1.1-3.2-2-5.2-4 3.1-2.1 9.5-0.7 16.8 3.2 1 0.5 1.8-1.2 1.3-2.1z" />
				<path id="&lt;Path&gt;" class="s0"
					d="m414.1 255.8c-1.3 1.8-3.6 2.8-5.8 2.6-0.4 0-0.9-0.1-1.2-0.4-0.6-0.6-0.4-1.6-0.1-2.4 0.7-1.9 1.5-3.8 2.9-5.2 1.1-1.1 4.2-2.8 5.3-1 1.1 1.8 0.1 5-1.1 6.4z" />
				<path id="&lt;Path&gt;" class="s0"
					d="m406.8 245.8c-3.5 1.9-6.8 4.1-9.3 7.2-2.4 3.1-3.8 7.2-3.1 11 3.3 0.3 6.8-0.3 9.4-2.2 2.7-2 4.7-4.8 5.5-8 0.3-1.4 0.5-2.8 0.1-4.1-0.3-1.4-1.3-3.4-2.6-3.9z" />
				<path id="&lt;Path&gt;" class="s0"
					d="m416.9 250.2c-0.5-4.8-1.7-9.6-3.4-14.1-0.2-0.5-0.4-0.9-0.8-1.3-0.3-0.4-0.9-0.6-1.4-0.4-0.9 0.3-0.8 1.6-0.7 2.5q1.8 8.4 3.5 16.9c1.6-0.2 3-2 2.8-3.6z" />
				<path id="&lt;Path&gt;" class="s0"
					d="m413.7 248.6c-0.5-4.8-1.7-9.5-3.4-14-0.2-0.5-0.4-1-0.8-1.4-0.3-0.4-0.9-0.6-1.4-0.4-0.9 0.3-0.9 1.6-0.7 2.5q1.8 8.5 3.5 16.9c1.6-0.2 3-2 2.8-3.6z" />
				<path id="&lt;Path&gt;" class="s0"
					d="m410.5 250.2c-0.5-4.8-1.7-9.6-3.4-14.1-0.2-0.5-0.4-0.9-0.8-1.3-0.3-0.4-0.9-0.6-1.4-0.4-0.9 0.3-0.9 1.6-0.7 2.5q1.8 8.4 3.5 16.9c1.6-0.2 3-2 2.8-3.6z" />
				<path id="&lt;Path&gt;" class="s0"
					d="m408.3 253.8c-0.5-4.8-1.7-9.6-3.4-14.1-0.2-0.5-0.4-1-0.8-1.3-0.3-0.4-0.9-0.6-1.4-0.4-0.9 0.3-0.8 1.5-0.7 2.5q1.8 8.4 3.5 16.9c1.6-0.2 3-2 2.8-3.6z" />
				<path id="&lt;Path&gt;" class="x2"
					d="m267.2 276.7c-8.7-2.9-15.8-9.8-18.8-18.1-3-8.3-1.9-17.9 3-25.3 3.7-5.5 9.2-9.8 12-15.7 2.9-5.8 2.9-12.4 3.4-18.8 0.6-6.4 2.1-13.2 7-17.5 3.9-3.4 9.4-4.8 13.5-8 7.7-6 8.9-17 15.4-24.2 6-6.7 16.6-9.2 25.1-6 6.4 2.4 11.3 7.5 17.3 10.8 4.9 2.7 10.4 4.2 15.1 7.2 4.7 2.9 8.5 8.1 7.3 13.3 4.6 5 2.5 13.5-1.4 19-3.9 5.5-9.7 9.4-14.6 14.1-11.6 11-21.2 37.3-20.1 52.8-3.5 3.1-7.3-6.9-12-7.8-4.8-1-9.5-2.6-14.3-2.1-7.7 0.9-13.4 7.1-18.4 12.8-5.1 5.7-12.2 16.1-19.5 13.5z" />
				<path id="&lt;Path&gt;" class="a0"
					d="m302.9 228.7c10.7 14.7 19.4 26.3 30.4 40.1-7.6 6.7-21.2 19.5-31.3 20.1-1.7-19.7-1.3-40.6 0.9-60.2z" />
				<path id="&lt;Path&gt;" class="z1"
					d="m302.9 228.7c10.7 14.7 19.4 26.3 30.4 40.1-7.6 6.7-21.2 19.5-31.3 20.1-1.7-19.7-1.3-40.6 0.9-60.2z" />
				<g id="&lt;Group&gt;">
					<path id="&lt;Path&gt;" class="a2"
						d="m204.9 591.3c-1.3 0-2.2-1.3-1.7-2.6l47.3-131.1h15.3l-59.1 132.5c-0.3 0.7-1 1.2-1.8 1.2z" />
					<path id="&lt;Path&gt;" class="z1"
						d="m204.9 591.3c-1.3 0-2.2-1.3-1.7-2.6l47.3-131.1h15.3l-59.1 132.5c-0.3 0.7-1 1.2-1.8 1.2z" />
				</g>
				<path id="&lt;Path&gt;" class="a2"
					d="m177.4 591.3c-1.3 0-2.2-1.3-1.7-2.6l52.8-146.1 9.8 15-59.1 132.5c-0.3 0.7-1 1.2-1.8 1.2z" />
				<g id="&lt;Group&gt;">
					<path id="&lt;Path&gt;" class="a2"
						d="m327 591.3c1.3 0 2.2-1.3 1.8-2.6l-47.3-131.1h-15.3l59.1 132.5c0.3 0.7 1 1.2 1.7 1.2z" />
					<path id="&lt;Path&gt;" class="z1"
						d="m327 591.3c1.3 0 2.2-1.3 1.8-2.6l-47.3-131.1h-15.3l59.1 132.5c0.3 0.7 1 1.2 1.7 1.2z" />
				</g>
				<path id="&lt;Path&gt;" class="s0"
					d="m323.2 539.9q-4.6 11.3-9.3 22.7c-7-0.8-14.8-2.2-20.5-6.4 3.8-9 7.1-17.9 9.2-27.4 7.8 1 15.3 5.3 20.6 11.1z" />
				<path id="&lt;Path&gt;" class="x2"
					d="m333.6 579.3c7.1 0.4 11.2 9.5 10.9 12h-19.4c1.3-4.4 2.8-8.6 3.8-12.9q2.3 0.7 4.7 0.9z" />
				<path id="&lt;Path&gt;" class="x2"
					d="m291.4 557.4c0.3-0.5 0.7-1.1 1.3-1.5 0.5-0.3 2-0.1 2.5 0.4 3.7 2.9 8.8 4.3 13.5 4.6-0.5-1.4 0.8-3 2.2-3.2 1.5-0.2 2.9 0.7 3.9 1.8 0.9 1.1 1.5 2.6 2.1 3.9 2.6 5.9 6.7 11.5 12 15-2.2 3.8-4.9 7.4-7.4 11.2l-36.6-11c1-6 3.2-16 6.5-21.2z" />
				<path id="&lt;Path&gt;" class="x0"
					d="m256.7 373.5c36.3 6.1 73.2 12.4 106.2 28.8 7.4 3.7 15 8.4 18 16 3.6 9.1-0.4 19.2-4.3 28.2-15.6 35.2-31.2 70.6-52.7 102.5-9.5-0.2-21.5-1.7-30.5-4.8 4.9-33.2 15-68 31.7-97.2-13.1-3.1-26.1-4.1-39.5-6-13.3-1.8-26.9-5.2-37.8-13.2-11.3-8.3-19-21.5-20.6-35.4-1.6-14 2.8-28.6 11.9-39.2 4.9 7.1 12.6 13.1 17.6 20.3z" />
				<path id="&lt;Path&gt;" class="z1"
					d="m256.7 373.5c36.3 6.1 73.2 12.4 106.2 28.8 7.4 3.7 15 8.4 18 16 3.6 9.1-0.4 19.2-4.3 28.2-15.6 35.2-31.2 70.6-52.7 102.5-9.5-0.2-21.5-1.7-30.5-4.8 4.9-33.2 15-68 31.7-97.2-13.1-3.1-26.1-4.1-39.5-6-13.3-1.8-26.9-5.2-37.8-13.2-11.3-8.3-19-21.5-20.6-35.4-1.6-14 2.8-28.6 11.9-39.2 4.9 7.1 12.6 13.1 17.6 20.3z" />
				<path id="&lt;Path&gt;" class="x2"
					d="m289.5 551.7l35.4 6.4c2.3 0.4 4.5-1.1 5-3.4l0.6-3.5c0.4-2.3-1.1-4.5-3.5-4.9l-35.4-6.4c-2.3-0.4-4.5 1.1-4.9 3.4l-0.6 3.5c-0.4 2.3 1.1 4.5 3.4 4.9z" />
				<path id="&lt;Path&gt;" class="x2"
					d="m308.3 572.7l13.2 16.9 3.6 1.7 8.2-6.5-4.4-6.4-8.1-1z" />
				<path id="&lt;Path&gt;" class="a2"
					d="m354.5 591.3c1.3 0 2.2-1.3 1.8-2.6l-47.3-131.1h-15.3l59.1 132.5c0.3 0.7 1 1.2 1.7 1.2z" />
				<path id="&lt;Path&gt;" class="a2"
					d="m198.1 301.5c-4-6.1-9.3-12.5-16.5-12.7-6.2-0.1-11.6 4.8-14 10.5-2.4 5.7-2.3 12.1-2 18.2 1.3 29.2 7.1 58.1 17.1 85.5 6 16.5 14.1 33.2 28.3 43.5 12.8 9.4 29 12.4 44.8 14.2 19.9 2.3 40.5 3 59.8-2.4 5.6-1.6 11.7-4.5 13-10.1 1.4-6.4-4.6-12.1-10.5-14.8-18.1-8.3-40.3-3.1-58.3-11.6-12.3-5.8-21.1-17.4-26.3-29.8-5.7-13.6-6.8-28.3-11.9-42-6.3-17-13.6-33.3-23.5-48.5z" />
				<path id="&lt;Path&gt;" class="z2"
					d="m198.1 301.5c9.9 15.2 17.2 31.5 23.5 48.5 5.1 13.7 6.2 28.4 11.9 42 5.2 12.4 14 24 26.3 29.8 18 8.5 40.2 3.3 58.3 11.6 4 1.8 8 5 9.7 8.8-4.1 2.4-9.5 3.1-14.4 3.4-31.7 1.6-66.1-7.7-85.3-33.1-9.6-12.7-14.6-28.4-19.3-43.7q-8-25.5-16-51.1c-2.9-9.6-7.2-20-2.6-25.5 3.1 2.5 5.7 5.9 7.9 9.3z" />
				<path id="&lt;Path&gt;" class="s0"
					d="m391.9 543.1q-1.2 12.3-2.4 24.5c-7 1.3-14.9 2.1-21.5-0.3 1.1-9.6 1.6-19.1 0.9-28.8 7.7-1.3 16.2 0.7 23 4.6z" />
				<path id="&lt;Path&gt;" class="x0"
					d="m301.9 356c0 9.1-0.9 18.2-2.7 27.1 26.7 3.9 54.1 8.4 80.5 14.2 9.1 1.9 19.4 5.1 22.7 13.7 16.4 41.8 1.4 91.5-6.3 135.7-11.2 0.2-23.8 0.4-34.8-1.5 0.8-35 0.9-70.5-1-105.5-26.9 1.3-54.9 0.5-81.7-2.4-12.2-1.3-24.7-3.2-35.1-9.7-13.8-8.5-22.1-24.6-22.8-40.8-0.7-16.2 5.8-32.2 16.3-44.6 22.4-1.1 44.9 3.5 64.9 13.8z" />
				<path id="&lt;Path&gt;" class="z1"
					d="m237 342.2c-5.6 6.6-10 14.3-12.9 22.4 25 9.3 53.9 7.6 77.7-4.4q0-1.9 0.1-3.7c-6.7-3.1-13.4-6-20.2-8.7-14.4-4.5-29.6-6.4-44.7-5.6z" />
				<path id="&lt;Path&gt;" class="x2"
					d="m366.3 591.3h57.7c0.2-2.5-3.8-11.6-10.9-12-8-0.6-15.2-5.7-20.5-11.8-1-1.1-2-2.3-3.2-3.1-1.2-0.9-2.8-1.3-4.2-0.7-1.3 0.7-2.1 2.5-1.2 3.7-4.6 1.1-9.9 1.2-14.2-0.5-0.7-0.3-2.2-0.1-2.6 0.4-0.4 0.5-0.6 1.2-0.8 1.8-1.6 5.9-0.9 16.1-0.1 22.2z" />
				<path id="&lt;Path&gt;" class="x2"
					d="m361.7 549h36c2.4 0 4.3-1.9 4.3-4.3v-3.5c0-2.3-1.9-4.2-4.3-4.2h-36c-2.3 0-4.2 1.9-4.2 4.2v3.5c0 2.4 1.9 4.3 4.2 4.3z" />
				<path id="&lt;Path&gt;" class="a0"
					d="m331.4 260.3c5.1 9.6 9.9 20.6 6.4 30.9-2.5 7.2-8.7 12.4-13.8 18.2-12.5 14-19 33-19.1 51.8-25.7 2.3-52.2-4.1-73.1-19.1 8.9-5.7 14.1-16.9 18.2-26.6 4.1-9.7 6.3-20 8.9-30.2 4.4-17 10-33.7 16.8-49.8 2.7-6.2 5.6-12.5 10.9-16.7 6-4.6 14.9-6.7 21.5-3 33.1 18.5 18.3 34.9 23.3 44.5z" />
				<path id="&lt;Path&gt;" class="z1"
					d="m289.8 253.6c-0.9-4.9-1.6-10.3 1.1-14.5 2.7-4.4 8.4-6.2 13.5-5.7 1.5 0.2 3 0.7 4.5 1.3 6.1 2.5 11 7.5 13.9 13.5q7.6 15.8 15.9 31.2 0.3 2.1 0.3 4.1-1.1 2.2-2.5 4.2 0.6 1.8 1.2 3.7c-2.5 7.1-8.7 12.3-13.7 18q-1.9 2.1-3.5 4.3c-2.1-4.3-4-8-5.6-11.4-3.7 0.7-7.6 0.8-11.3 0.3-5.2-15.5-10.8-32.9-13.8-49z" />
				<path id="&lt;Path&gt;" class="s0"
					d="m327.6 211c-2.5 7.2-6.5 13.9-11.8 19.5-7.5 1.3-11.6-5.2-13-8 2.4-8.2 5.9-14.8 9.2-22.7 7.5 1 11.9 4.5 15.6 11.2z" />
				<path id="&lt;Path&gt;" class="z1"
					d="m317.1 228.9c4.7-5.2 8.3-11.3 10.5-17.9-3.7-6.7-8.1-10.2-15.6-11.2-1.7 4-3.4 7.7-5 11.4 2.1 6.5 5.6 12.6 10.1 17.7z" />
				<path id="&lt;Path&gt;" class="s0"
					d="m334.7 222.6c10-9.5 15.6-24.2 14.8-38.7-0.6-11.5-10.7-23.5-21.1-24.7-10.5-1.2-21.1 6.1-25.3 16.7-4.2 10.6-2.1 23.7 4.7 32.5 6.8 8.9 16.4 15.2 26.9 14.2z" />
				<path id="&lt;Path&gt;" class="s0"
					d="m396.7 259.8c-15.7 22.8-36.6 28.2-41.8 45.9-12.3-24.8-22.2-33.8-35.5-53.2-5-7.3-7.6-17.9-16.3-19.3-4.9-0.9-8.5 5-9 10-0.4 5 1.8 9.9 4 14.4 11.9 23.9 35.3 71 52.3 71 10.6 0 42.7-36.4 56.9-63.3-4.6-4.1-4.6-4-10.6-5.5z" />
				<path id="&lt;Path&gt;" class="z2"
					d="m339 279.1c-6.3-1-12.9 0.1-17.9 4.2-2.5 2-4.4 4.7-5.4 7.8 3.7 6.5 7.7 12.8 11.6 18.4 7.8-6.4 13.2-15.7 15-25.6q-1.6-2.5-3.3-4.8z" />
				<path id="&lt;Path&gt;" class="x0"
					d="m399.3 263l-3.3-8.7c-0.6-1.5-0.2-3.1 0.9-4.1l20.8-18.9c1.4-1.2 3.5-0.7 4.1 1l3.3 8.7c0.6 1.4 0.2 3.1-1 4.1l-20.8 18.8c-1.3 1.2-3.4 0.7-4-0.9z" />
				<path id="&lt;Path&gt;" class="s0"
					d="m397.6 263.4c0.8 0.1 1.5-0.5 2-1.1 0.5-0.7 0.8-1.5 1.2-2.2 2-3.4 6.5-5 10.2-3.6 1.6-2.8 5-4.5 8.1-4.5-1.7 1.9-3.5 4.8-4.4 7.2-1.8 4.4-7.7 6.7-12.5 7.4-1.7-0.7-3.2-1.9-4.6-3.2z" />
				<path id="&lt;Path&gt;" class="a0"
					d="m321.8 244.1q10.2 15.8 21.1 31.1c-1.9 7.2-6.7 14.2-12.7 18.6-5.9 4.5-13.3 6.8-20.7 6.7-7-14.8-14.7-31.3-19.7-46.9-1.5-4.7-2.8-10-0.7-14.5 2.1-4.7 7.6-7.2 12.7-7.3 1.5 0 3 0.2 4.6 0.6 6.4 1.8 11.8 6.1 15.4 11.7z" />
				<path id="&lt;Path&gt;" class="x2"
					d="m290.9 209.7c3.1 2.6 7.4 3.7 11.3 3.1 4-0.6 7.7-3 9.9-6.3 3.3-5 3.6-12 8.4-15.5 2.8-2.1 6.4-2.4 9.9-2.3 3.5 0 7 0.5 10.3-0.3 3.4-0.7 8-2.8 8.7-6.2 0.6 6.1 4.2 11.7 9.4 14.9 1.8-10.9 2.3-23.5-4.3-32.4-7-9.4-19.8-13.6-31.3-11.4-11.6 2.2-21.5 10.3-27.2 20.6-5.7 10.2-6.6 24.2-5.1 35.8z" />
				<path id="&lt;Path&gt;" class="x2"
					d="m322 188.7c-8.9 4.1-12.4 14.8-14.1 24.4-1.7 9.6-3 20.1-10 27-3.2 3.1-7.4 5.2-10.5 8.5-3.2 3.5-4.9 8-6.8 12.3-1.9 4.3-4.3 8.7-8.2 11.2-4 2.6-9.9 2.7-12.9-1-6.5-8.2-1.7-22.2 3.1-31.6 4.7-9.4 12-17.2 19.2-24.8q10-10.7 20-21.3c3.4-3.6 7.1-7.4 11.9-8.7 4.8-1.3 7.6-0.9 8.3 4z" />
				<path id="&lt;Path&gt;" fill-rule="evenodd" class="u0"
					d="m267.5 365.8c-3.4 12.3-3.6 26.8 4.8 36.4 8 9.2 21.7 11.2 33.9 9.9 12.1-1.4 23.9-5.4 36.2-5.9 13.3-0.4 27.8 4.3 34.7 15.7 4.4 7.2 5.2 15.9 5.6 24.3 1.4 27.1-0.3 54.5-5.1 81.3" />
				<path id="&lt;Path&gt;" class="z3"
					d="m370.1 305.2c9.6-9.1 18.5-19 26.5-29.6-4.6 13.5-13.3 24.3-26.5 29.6z" />
				<path id="&lt;Path&gt;" class="a2"
					d="m590.9 342h-245.2c-3.7 0-6.7-3-6.7-6.7 0-3.7 3-6.7 6.7-6.7h245.2c3.7 0 6.7 3 6.7 6.7 0 3.7-3 6.7-6.7 6.7z" />
				<path id="&lt;Path&gt;" class="s0"
					d="m343.7 197.2c-2.2 4-3.5 9.1-3 13.7 2.3-0.2 5.2-0.7 7.5-0.8 0-0.4 0.2-0.8 0.3-1.2-1.8-4.4-2.8-9.1-2.7-13.9-1.3 0.7-1.4 0.9-2.1 2.2z" />
				<path id="&lt;Path&gt;" class="x2"
					d="m339 199.1c0 1.8-0.7 3.2-1.6 3.2-0.9 0-1.7-1.4-1.7-3.2 0-1.7 0.8-3.2 1.7-3.2 0.9 0 1.6 1.5 1.6 3.2z" />
				<path id="&lt;Path&gt;" class="x2"
					d="m341.4 191.8c-3.4-2.4-8.3-2.5-11.7-0.1-0.3 0.2-0.3 0.3-0.2 0.5 0.2 0.2 0.5 0.3 0.7 0.2 0.3 0 0.5-0.1 0.8-0.3 1.3-0.6 2.8-0.4 4.2-0.1 1.5 0.3 2.9 0.7 4.3 0.8 0.7 0 1.8-0.4 1.9-1z" />
				<path id="&lt;Path&gt;" class="s1"
					d="m339 205.2c0 1.2-3.1 2.2-6.9 2.2-3.9 0-7-1-7-2.2 0-1.3 3.1-2.3 7-2.3 3.8 0 6.9 1 6.9 2.3z" />
				<path id="&lt;Path&gt;" class="a2"
					d="m540.4 591.3h-144.3c-3.1 0-5.7-2.6-5.7-5.8 0-3.2 2.6-5.7 5.7-5.7h144.3c3.2 0 5.8 2.5 5.8 5.7 0 3.2-2.6 5.8-5.8 5.8z" />
				<path id="&lt;Path&gt;" class="z1"
					d="m540.4 591.3h-144.3c-3.1 0-5.7-2.6-5.7-5.8 0-3.2 2.6-5.7 5.7-5.7h144.3c3.2 0 5.8 2.5 5.8 5.7 0 3.2-2.6 5.8-5.8 5.8z" />
			</g>
			<g id="&lt;Group&gt;">
				<path id="&lt;Path&gt;" class="x0" d="m788.1 591.3h-236.1l27.2-195.3h181.7z" />
				<path id="&lt;Path&gt;" class="z2" d="m552 591.3h236.1l-6.4-46h-223.3z" />
				<g id="&lt;Group&gt;">
					<path id="&lt;Path&gt;" class="a2"
						d="m693.6 415.5c-1.4 0-2.5-1.1-2.5-2.6v-28c0-11.6-9.5-21-21.1-21-11.5 0-21 9.4-21 21v28c0 1.5-1.1 2.6-2.5 2.6-1.4 0-2.6-1.1-2.6-2.6v-28c0-14.4 11.8-26.1 26.1-26.1 14.4 0 26.1 11.7 26.1 26.1v28c0 1.5-1.1 2.6-2.5 2.6z" />
				</g>
			</g>
			<g id="&lt;Group&gt;">
				<path id="&lt;Path&gt;" class="a1" d="m687.8 591.3h-185.5l21.3-153.4h142.8z" />
				<path id="&lt;Path&gt;" class="z2" d="m502.3 591.3h185.5l-5-36.2h-175.5z" />
				<g id="&lt;Group&gt;">
					<path id="&lt;Path&gt;" class="a2"
						d="m613.5 453.1c-1.1 0-2-0.8-2-2v-22c0-9.1-7.4-16.5-16.5-16.5-9.1 0-16.5 7.4-16.5 16.5v22c0 1.2-0.9 2-2 2-1.1 0-2-0.8-2-2v-22c0-11.3 9.2-20.5 20.5-20.5 11.3 0 20.5 9.2 20.5 20.5v22c0 1.2-0.9 2-2 2z" />
				</g>
			</g>
			<g id="&lt;Group&gt;">
				<path id="&lt;Path&gt;" class="a0" d="m737.4 591.3h-142.4l16.4-117.8h109.6z" />
				<path id="&lt;Path&gt;" class="z2" d="m595 591.3h142.4l-3.8-27.8h-134.7z" />
				<g id="&lt;Group&gt;">
					<path id="&lt;Path&gt;" class="a2"
						d="m680.4 485.2c-0.8 0-1.5-0.6-1.5-1.5v-16.9c0-7-5.7-12.7-12.7-12.7-6.9 0-12.6 5.7-12.6 12.7v16.9c0 0.9-0.7 1.5-1.6 1.5-0.8 0-1.5-0.6-1.5-1.5v-16.9c0-8.7 7.1-15.7 15.7-15.7 8.7 0 15.8 7 15.8 15.7v16.9c0 0.9-0.7 1.5-1.6 1.5z" />
				</g>
			</g>
			<g id="&lt;Group&gt;">
				<path id="&lt;Path&gt;" class="x0"
					d="m512.6 72.2c0 23.1-18.7 41.8-41.8 41.8-23.1 0-41.9-18.7-41.9-41.8 0-23.2 18.8-41.9 41.9-41.9 23.1 0 41.8 18.7 41.8 41.9z" />
				<path id="&lt;Path&gt;" class="a1"
					d="m496.3 85h-49c-4.1 0-7.5-3.3-7.5-7.4v-10.9c0-4.1 3.4-7.4 7.5-7.4h49c4.1 0 7.4 3.3 7.4 7.4v10.9c0 4.1-3.3 7.4-7.4 7.4z" />
				<text id="BUY
" style="transform: matrix(2,0,0,2,452.377,77.567)">
					<tspan x="0" y="0" class="t0">BUY
</tspan>
				</text>
			</g>
			<g id="&lt;Group&gt;">
				<path id="&lt;Path&gt;" class="a1"
					d="m622.3 139.3c0 23.8-19.3 43-43 43-23.7 0-43-19.2-43-43 0-23.7 19.3-43 43-43 23.7 0 43 19.3 43 43z" />
				<g id="&lt;Group&gt;">
					<path id="&lt;Path&gt;" class="x0"
						d="m600 155.6h-41c-3.2 0-5.8-2.6-5.8-5.8v-22.3c0-3.2 2.6-5.8 5.8-5.8h41c3.2 0 5.8 2.6 5.8 5.8v22.3c0 3.2-2.6 5.8-5.8 5.8z" />
					<path id="&lt;Path&gt;" class="x2" d="m553.2 147.1h52.6v-3.9h-52.6z" />
					<path id="&lt;Path&gt;" class="z1"
						d="m578.8 132.8h-19.1c-0.9 0-1.5-0.7-1.5-1.5 0-0.9 0.6-1.6 1.5-1.6h19.1c0.8 0 1.5 0.7 1.5 1.6 0 0.8-0.7 1.5-1.5 1.5z" />
					<path id="&lt;Path&gt;" class="z1"
						d="m578.8 138.8h-19.1c-0.9 0-1.5-0.7-1.5-1.6 0-0.8 0.6-1.5 1.5-1.5h19.1c0.8 0 1.5 0.7 1.5 1.5 0 0.9-0.7 1.6-1.5 1.6z" />
				</g>
			</g>
			<g id="&lt;Group&gt;">
				<path id="&lt;Path&gt;" class="a1"
					d="m384.2 69c0 33.1-26.8 59.9-59.9 59.9-33.2 0-60-26.8-60-59.9 0-33.1 26.8-60 60-60 33.1 0 59.9 26.9 59.9 60z" />
				<g id="&lt;Group&gt;">
					<path id="&lt;Path&gt;" class="x3" d="m360 99.7h-71.5v-41.3h71.5z" />
					<path id="&lt;Path&gt;" class="x3" d="m327.3 29.1h-6.1l-32.7 29.3h71.5z" />
					<path id="&lt;Path&gt;" class="z2" d="m327.3 29.1h-6.1l-32.7 29.3h71.5z" />
					<path id="&lt;Path&gt;" class="z2" d="m327.3 70.3h-6.1l-32.7 29.4h71.5z" />
					<path id="&lt;Path&gt;" class="z2" d="m360 58.4l-35.7 26.6-35.8-26.6v41.3h71.5z" />
				</g>
			</g>
			<g id="&lt;Group&gt;">
				<path id="&lt;Path&gt;" class="x0"
					d="m724.2 267.8c0 32-26 58-58 58-32 0-57.9-26-57.9-58 0-32 25.9-58 57.9-58 32 0 58 26 58 58z" />
				<path id="&lt;Compound Path&gt;" fill-rule="evenodd" class="a1"
					d="m698.3 269.2l-36.9 36.9c-2.6 2.6-6.9 2.6-9.5 0l-23.8-23.8c-2.6-2.6-2.6-6.9 0-9.5l36.9-36.9c3-2.9 6.8-4.8 11-5.3l16.4-1.8c7.5-0.8 13.8 5.5 13 13l-1.8 16.4c-0.5 4.2-2.3 8-5.3 11zm-2-26.4c1.4-1.3 1.4-3.6 0-4.9-1.3-1.4-3.6-1.4-4.9 0-1.4 1.3-1.4 3.6 0 4.9 1.3 1.4 3.6 1.4 4.9 0z" />
				<text id="SALE
" style="transform: matrix(1.414,-1.414,1.414,1.414,651.498,292.969)">
					<tspan x="0" y="0" class="t0">SALE
</tspan>
				</text>
			</g>
			<g id="&lt;Group&gt;">
				<path id="&lt;Path&gt;" class="z0"
					d="m738.6 343.5c0 2.1-1.7 3.8-3.8 3.8-2.1 0-3.7-1.7-3.7-3.8 0-2.1 1.6-3.7 3.7-3.7 2.1 0 3.8 1.6 3.8 3.7z" />
				<path id="&lt;Path&gt;" class="z0"
					d="m482.4 195.9c0 3.7-3 6.6-6.6 6.6-3.7 0-6.6-2.9-6.6-6.6 0-3.6 2.9-6.5 6.6-6.5 3.6 0 6.6 2.9 6.6 6.5z" />
				<path id="&lt;Path&gt;" class="z0"
					d="m392.1 139.4c0 2.2-1.8 4-4 4-2.2 0-4-1.8-4-4 0-2.2 1.8-4 4-4 2.2 0 4 1.8 4 4z" />
				<path id="&lt;Path&gt;" class="z0"
					d="m442.1 292.4c0 2.6-2.1 4.7-4.7 4.7-2.5 0-4.6-2.1-4.6-4.7 0-2.5 2.1-4.6 4.6-4.6 2.6 0 4.7 2.1 4.7 4.6z" />
				<path id="&lt;Path&gt;" class="z0"
					d="m408.8 375.6c0 2.6-2.1 4.7-4.7 4.7-2.6 0-4.6-2.1-4.6-4.7 0-2.6 2-4.6 4.6-4.6 2.6 0 4.7 2 4.7 4.6z" />
				<path id="&lt;Path&gt;" class="z0"
					d="m620.9 174.4c0 2.4-2 4.4-4.4 4.4-2.4 0-4.3-2-4.3-4.4 0-2.4 1.9-4.3 4.3-4.3 2.4 0 4.4 1.9 4.4 4.3z" />
				<path id="&lt;Path&gt;" class="z0"
					d="m651.4 311.8c0 2.4-1.9 4.3-4.3 4.3-2.4 0-4.4-1.9-4.4-4.3 0-2.4 2-4.4 4.4-4.4 2.4 0 4.3 2 4.3 4.4z" />
				<path id="&lt;Path&gt;" class="z0"
					d="m593.3 268.7c0 2.5-2 4.5-4.5 4.5-2.5 0-4.5-2-4.5-4.5 0-2.5 2-4.5 4.5-4.5 2.5 0 4.5 2 4.5 4.5z" />
				<path id="&lt;Path&gt;" class="z0"
					d="m564.5 162c0 2.4-2.1 4.4-4.5 4.4-2.5 0-4.5-2-4.5-4.4 0-2.5 2-4.5 4.5-4.5 2.4 0 4.5 2 4.5 4.5z" />
				<path id="&lt;Path&gt;" class="z0"
					d="m533.9 394.4c0 2.4-2 4.4-4.5 4.4-2.5 0-4.5-2-4.5-4.4 0-2.5 2-4.5 4.5-4.5 2.5 0 4.5 2 4.5 4.5z" />
			</g>
		</g>
	</g>
</svg>