<svg version="1.2" xmlns="http://www.w3.org/2000/svg" viewBox="0 0 828 652" width="828" height="652">
	<title>sign-up-svg</title>
	<style>
		tspan { white-space:pre } 
		.s0 { opacity: .3;fill: #56b280 } 
		.s1 { fill: #db4444 } 
		.s2 { fill: #997357 } 
		.s3 { opacity: .3;fill: #171717 } 
		.s4 { fill: #ffc294 } 
		.s5 { opacity: .3;fill: #262626 } 
		.s6 { fill: #262626 } 
		.s7 { fill: #525252 } 
		.s8 { opacity: .4;fill: none;stroke: #ffffff;stroke-linecap: round;stroke-linejoin: round;stroke-dasharray: 2,2 } 
		.s9 { opacity: .3;fill: #ffffff } 
		.s10 { fill: #ffb494 } 
		.s11 { fill: #56b280 } 
		.t12 { font-size: 8px;fill: #ffffff;font-weight: 800;font-family: "OpenSans-Extrabold", "Open Sans" } 
		.s13 { fill: #ffffff } 
	</style>
	<g id="OBJECTS">
		<g id="&lt;Group&gt;">
			<path id="&lt;Path&gt;" class="s0" d="m830.9 103.8c-29.9 17.5-63.7 28.3-98.3 30.2-63.6 3.6-125-20.4-184.6-42.9-59.5-22.6-122.2-44.4-185.4-36.5-63.2 7.9-126.1 55.3-129.6 118.9-3.3 60.9 46.6 117.5 35.7 177.6-6.1 33.1-30.2 60.4-57.9 79.8-27.6 19.3-59.1 32.2-88.6 48.4-45.6 24.9-88.2 59.7-109.7 107-9.2 20.2-13.6 43.1-12.8 65.4h831.2z"/>
			<g id="&lt;Group&gt;">
				<path id="&lt;Path&gt;" class="s1" d="m340.5 328.6h87.1c1.1 0 1.9-0.8 1.9-1.8 0-1.1-0.8-1.9-1.9-1.9h-87.1c-1.1 0-1.9 0.8-1.9 1.9 0 1 0.8 1.8 1.9 1.8z"/>
				<path id="&lt;Path&gt;" class="s1" d="m342 325.9l-40.9-77c-0.5-0.9-1.6-1.2-2.5-0.8-0.9 0.5-1.3 1.7-0.8 2.6l40.9 77c0.5 0.9 1.7 1.2 2.6 0.7 0.9-0.5 1.2-1.6 0.7-2.5z"/>
				<path id="&lt;Path&gt;" class="s2" d="m376.2 335.3v256h-28v-256z"/>
				<path id="&lt;Path&gt;" class="s3" d="m348.2 371.9l28-19.3v-17.3h-28z"/>
				<path id="&lt;Path&gt;" class="s4" d="m400.3 323.1l1.7-3c0.8-1.5 2-2.7 3.3-3.7 2.7-1.8 5.6-3.5 8.8-4.2 8.4-1.9 20.2 1.6 28.7 0.4 14.9-3 31-3.8 45.7-1.1 14.3-15.4 27.9-31.5 40.8-48.1 5.9 6 10.9 12.9 11.5 21.3-12.3 15.7-26.8 29.3-41.9 42.3-21 3.2-42.9 2.7-63.7-1.5q0-0.1 0-0.1c-2.4-0.5-4.6-1.2-6.9-2.2-3.8 3.5-9.3 5.3-14.5 4.6-0.6-0.1-1.4-0.4-1.3-1 0-0.4 0.4-0.6 0.7-0.8 1.9-1.1 3.2-2 5.2-4-3.1-2.1-9.5-0.7-16.8 3.2-1 0.5-1.8-1.2-1.3-2.1z"/>
				<path id="&lt;Path&gt;" class="s5" d="m400.3 323.1l1.7-3c0.8-1.5 2-2.7 3.3-3.7 2.7-1.8 5.6-3.5 8.8-4.2 8.4-1.9 20.2 1.6 28.7 0.4 14.9-3 31-3.8 45.7-1.1 14.3-15.4 27.9-31.5 40.8-48.1 5.9 6 10.9 12.9 11.5 21.3-12.3 15.7-26.8 29.3-41.9 42.3-21 3.2-42.9 2.7-63.7-1.5q0-0.1 0-0.1c-2.4-0.5-4.6-1.2-6.9-2.2-3.8 3.5-9.3 5.3-14.5 4.6-0.6-0.1-1.4-0.4-1.3-1 0-0.4 0.4-0.6 0.7-0.8 1.9-1.1 3.2-2 5.2-4-3.1-2.1-9.5-0.7-16.8 3.2-1 0.5-1.8-1.2-1.3-2.1z"/>
				<path id="&lt;Path&gt;" class="s4" d="m416.4 255.8c1.3 1.8 3.6 2.8 5.8 2.6 0.4 0 0.9-0.1 1.2-0.4 0.6-0.6 0.4-1.6 0.1-2.4-0.7-1.9-1.5-3.8-2.9-5.2-1.1-1.1-4.2-2.8-5.3-1-1.1 1.8-0.1 5 1.1 6.4z"/>
				<path id="&lt;Path&gt;" class="s4" d="m423.7 245.8c3.5 1.9 6.8 4.1 9.3 7.2 2.4 3.1 3.8 7.2 3.1 11-3.3 0.3-6.8-0.3-9.4-2.2-2.7-2-4.7-4.8-5.5-8-0.3-1.4-0.5-2.8-0.1-4.1 0.3-1.4 1.3-3.4 2.6-3.9z"/>
				<path id="&lt;Path&gt;" class="s4" d="m413.6 250.2c0.5-4.8 1.7-9.6 3.4-14.1 0.2-0.5 0.4-0.9 0.8-1.3 0.3-0.4 0.9-0.6 1.4-0.4 0.9 0.3 0.8 1.6 0.7 2.5q-1.8 8.4-3.5 16.9c-1.6-0.2-3-2-2.8-3.6z"/>
				<path id="&lt;Path&gt;" class="s4" d="m416.8 248.6c0.5-4.8 1.7-9.5 3.4-14 0.2-0.5 0.4-1 0.8-1.4 0.3-0.4 0.9-0.6 1.4-0.4 0.9 0.3 0.9 1.6 0.7 2.5q-1.8 8.5-3.5 16.9c-1.6-0.2-3-2-2.8-3.6z"/>
				<path id="&lt;Path&gt;" class="s4" d="m420 250.2c0.5-4.8 1.7-9.6 3.4-14.1 0.2-0.5 0.4-0.9 0.8-1.3 0.3-0.4 0.9-0.6 1.4-0.4 0.9 0.3 0.9 1.6 0.7 2.5q-1.8 8.4-3.5 16.9c-1.6-0.2-3-2-2.8-3.6z"/>
				<path id="&lt;Path&gt;" class="s4" d="m422.2 253.8c0.5-4.8 1.7-9.6 3.4-14.1 0.2-0.5 0.4-1 0.8-1.3 0.3-0.4 0.9-0.6 1.4-0.4 0.9 0.3 0.8 1.5 0.7 2.5q-1.8 8.4-3.5 16.9c-1.6-0.2-3-2-2.8-3.6z"/>
				<path id="&lt;Path&gt;" class="s6" d="m563.3 276.7c8.7-2.9 15.8-9.8 18.8-18.1 3-8.3 1.9-17.9-3-25.3-3.7-5.5-9.2-9.8-12-15.7-2.9-5.8-2.9-12.4-3.4-18.8-0.6-6.4-2.1-13.2-7-17.5-3.9-3.4-9.4-4.8-13.5-8-7.7-6-8.9-17-15.4-24.2-6-6.7-16.6-9.2-25.1-6-6.4 2.4-11.3 7.5-17.3 10.8-4.9 2.7-10.4 4.2-15.1 7.2-4.7 2.9-8.5 8.1-7.3 13.3-4.6 5-2.5 13.5 1.4 19 3.9 5.5 9.7 9.4 14.6 14.1 11.6 11 21.2 37.3 20.1 52.8 3.5 3.1 7.3-6.9 12-7.8 4.8-1 9.5-2.6 14.3-2.1 7.7 0.9 13.4 7.1 18.4 12.8 5.1 5.7 12.2 16.1 19.5 13.5z"/>
				<path id="&lt;Path&gt;" class="s1" d="m527.6 228.7c-10.7 14.7-19.4 26.3-30.4 40.1 7.6 6.7 21.2 19.5 31.3 20.1 1.7-19.7 1.3-40.6-0.9-60.2z"/>
				<path id="&lt;Path&gt;" class="s3" d="m527.6 228.7c-10.7 14.7-19.4 26.3-30.4 40.1 7.6 6.7 21.2 19.5 31.3 20.1 1.7-19.7 1.3-40.6-0.9-60.2z"/>
				<g id="&lt;Group&gt;">
					<path id="&lt;Path&gt;" class="s2" d="m625.6 591.3c1.3 0 2.2-1.3 1.7-2.6l-47.3-131.1h-15.3l59.1 132.5c0.3 0.7 1 1.2 1.8 1.2z"/>
					<path id="&lt;Path&gt;" class="s3" d="m625.6 591.3c1.3 0 2.2-1.3 1.7-2.6l-47.3-131.1h-15.3l59.1 132.5c0.3 0.7 1 1.2 1.8 1.2z"/>
				</g>
				<path id="&lt;Path&gt;" class="s2" d="m653.1 591.3c1.3 0 2.2-1.3 1.7-2.6l-52.8-146.1-9.8 15 59.1 132.5c0.3 0.7 1 1.2 1.8 1.2z"/>
				<g id="&lt;Group&gt;">
					<path id="&lt;Path&gt;" class="s2" d="m503.5 591.3c-1.3 0-2.2-1.3-1.8-2.6l47.3-131.1h15.3l-59.1 132.5c-0.3 0.7-1 1.2-1.7 1.2z"/>
					<path id="&lt;Path&gt;" class="s3" d="m503.5 591.3c-1.3 0-2.2-1.3-1.8-2.6l47.3-131.1h15.3l-59.1 132.5c-0.3 0.7-1 1.2-1.7 1.2z"/>
				</g>
				<path id="&lt;Path&gt;" class="s4" d="m507.3 539.9q4.6 11.3 9.3 22.7c7-0.8 14.8-2.2 20.5-6.4-3.8-9-7.1-17.9-9.2-27.4-7.8 1-15.3 5.3-20.6 11.1z"/>
				<path id="&lt;Path&gt;" class="s6" d="m496.9 579.3c-7.1 0.4-11.2 9.5-10.9 12h19.4c-1.3-4.4-2.8-8.6-3.8-12.9q-2.3 0.7-4.7 0.9z"/>
				<path id="&lt;Path&gt;" class="s6" d="m539.1 557.4c-0.3-0.5-0.7-1.1-1.3-1.5-0.5-0.3-2-0.1-2.5 0.4-3.7 2.9-8.8 4.3-13.5 4.6 0.5-1.4-0.8-3-2.2-3.2-1.5-0.2-2.9 0.7-3.9 1.8-0.9 1.1-1.5 2.6-2.1 3.9-2.6 5.9-6.7 11.5-12 15 2.2 3.8 4.9 7.4 7.4 11.2l36.6-11c-1-6-3.2-16-6.5-21.2z"/>
				<path id="&lt;Path&gt;" class="s7" d="m573.8 373.5c-36.3 6.1-73.2 12.4-106.2 28.8-7.4 3.7-15 8.4-18 16-3.6 9.1 0.4 19.2 4.3 28.2 15.6 35.2 31.2 70.6 52.7 102.5 9.5-0.2 21.5-1.7 30.5-4.8-4.9-33.2-15-68-31.7-97.2 13.1-3.1 26.1-4.1 39.5-6 13.3-1.8 26.9-5.2 37.8-13.2 11.3-8.3 19-21.5 20.6-35.4 1.6-14-2.8-28.6-11.9-39.2-4.9 7.1-12.6 13.1-17.6 20.3z"/>
				<path id="&lt;Path&gt;" class="s3" d="m573.8 373.5c-36.3 6.1-73.2 12.4-106.2 28.8-7.4 3.7-15 8.4-18 16-3.6 9.1 0.4 19.2 4.3 28.2 15.6 35.2 31.2 70.6 52.7 102.5 9.5-0.2 21.5-1.7 30.5-4.8-4.9-33.2-15-68-31.7-97.2 13.1-3.1 26.1-4.1 39.5-6 13.3-1.8 26.9-5.2 37.8-13.2 11.3-8.3 19-21.5 20.6-35.4 1.6-14-2.8-28.6-11.9-39.2-4.9 7.1-12.6 13.1-17.6 20.3z"/>
				<path id="&lt;Path&gt;" class="s6" d="m541 551.7l-35.4 6.4c-2.3 0.4-4.5-1.1-5-3.4l-0.6-3.5c-0.4-2.3 1.1-4.5 3.5-4.9l35.4-6.4c2.3-0.4 4.5 1.1 4.9 3.4l0.6 3.5c0.4 2.3-1.1 4.5-3.4 4.9z"/>
				<path id="&lt;Path&gt;" class="s6" d="m522.2 572.7l-13.2 16.9-3.6 1.7-8.2-6.5 4.4-6.4 8.1-1z"/>
				<path id="&lt;Path&gt;" class="s2" d="m476 591.3c-1.3 0-2.2-1.3-1.8-2.6l47.3-131.1h15.3l-59.1 132.5c-0.3 0.7-1 1.2-1.7 1.2z"/>
				<path id="&lt;Path&gt;" class="s2" d="m632.4 301.5c4-6.1 9.3-12.5 16.5-12.7 6.2-0.1 11.6 4.8 14 10.5 2.4 5.7 2.3 12.1 2 18.2-1.3 29.2-7.1 58.1-17.1 85.5-6 16.5-14.1 33.2-28.3 43.5-12.8 9.4-29 12.4-44.8 14.2-19.9 2.3-40.5 3-59.8-2.4-5.6-1.6-11.7-4.5-13-10.1-1.4-6.4 4.6-12.1 10.5-14.8 18.1-8.3 40.3-3.1 58.3-11.6 12.3-5.8 21.1-17.4 26.3-29.8 5.7-13.6 6.8-28.3 11.9-42 6.3-17 13.6-33.3 23.5-48.5z"/>
				<path id="&lt;Path&gt;" class="s5" d="m632.4 301.5c-9.9 15.2-17.2 31.5-23.5 48.5-5.1 13.7-6.2 28.4-11.9 42-5.2 12.4-14 24-26.3 29.8-18 8.5-40.2 3.3-58.3 11.6-4 1.8-8 5-9.7 8.8 4.1 2.4 9.5 3.1 14.4 3.4 31.7 1.6 66.1-7.7 85.3-33.1 9.6-12.7 14.6-28.4 19.3-43.7q8-25.5 16-51.1c2.9-9.6 7.2-20 2.6-25.5-3.1 2.5-5.7 5.9-7.9 9.3z"/>
				<path id="&lt;Path&gt;" class="s4" d="m438.6 543.1q1.2 12.3 2.4 24.5c7 1.3 14.9 2.1 21.5-0.3-1.1-9.6-1.6-19.1-0.9-28.8-7.7-1.3-16.2 0.7-23 4.6z"/>
				<path id="&lt;Path&gt;" class="s7" d="m528.6 356c0 9.1 0.9 18.2 2.7 27.1-26.7 3.9-54.1 8.4-80.5 14.2-9.1 1.9-19.4 5.1-22.7 13.7-16.4 41.8-1.4 91.5 6.3 135.7 11.2 0.2 23.8 0.4 34.8-1.5-0.8-35-0.9-70.5 1-105.5 26.9 1.3 54.9 0.5 81.7-2.4 12.2-1.3 24.7-3.2 35.1-9.7 13.8-8.5 22.1-24.6 22.8-40.8 0.7-16.2-5.8-32.2-16.3-44.6-22.4-1.1-44.9 3.5-64.9 13.8z"/>
				<path id="&lt;Path&gt;" class="s3" d="m593.5 342.2c5.6 6.6 10 14.3 12.9 22.4-25 9.3-53.9 7.6-77.7-4.4q0-1.9-0.1-3.7c6.7-3.1 13.4-6 20.2-8.7 14.4-4.5 29.6-6.4 44.7-5.6z"/>
				<path id="&lt;Path&gt;" class="s6" d="m464.2 591.3h-57.7c-0.2-2.5 3.8-11.6 10.9-12 8-0.6 15.2-5.7 20.5-11.8 1-1.1 2-2.3 3.2-3.1 1.2-0.9 2.8-1.3 4.2-0.7 1.3 0.7 2.1 2.5 1.2 3.7 4.6 1.1 9.9 1.2 14.2-0.5 0.7-0.3 2.2-0.1 2.6 0.4 0.4 0.5 0.6 1.2 0.8 1.8 1.6 5.9 0.9 16.1 0.1 22.2z"/>
				<path id="&lt;Path&gt;" class="s6" d="m468.8 549h-36c-2.4 0-4.3-1.9-4.3-4.3v-3.5c0-2.3 1.9-4.2 4.3-4.2h36c2.3 0 4.2 1.9 4.2 4.2v3.5c0 2.4-1.9 4.3-4.2 4.3z"/>
				<path id="&lt;Path&gt;" class="s1" d="m499.1 260.3c-5.1 9.6-9.9 20.6-6.4 30.9 2.5 7.2 8.7 12.4 13.8 18.2 12.5 14 19 33 19.1 51.8 25.7 2.3 52.2-4.1 73.1-19.1-8.9-5.7-14.1-16.9-18.2-26.6-4.1-9.7-6.3-20-8.9-30.2-4.4-17-10-33.7-16.8-49.8-2.7-6.2-5.6-12.5-10.9-16.7-6-4.6-14.9-6.7-21.5-3-33.1 18.5-18.3 34.9-23.3 44.5z"/>
				<path id="&lt;Path&gt;" class="s3" d="m540.7 253.6c0.9-4.9 1.6-10.3-1.1-14.5-2.7-4.4-8.4-6.2-13.5-5.7-1.5 0.2-3 0.7-4.5 1.3-6.1 2.5-11 7.5-13.9 13.5q-7.6 15.8-15.9 31.2-0.3 2.1-0.3 4.1 1.1 2.2 2.5 4.2-0.6 1.8-1.2 3.7c2.5 7.1 8.7 12.3 13.7 18q1.9 2.1 3.5 4.3c2.1-4.3 4-8 5.6-11.4 3.7 0.7 7.6 0.8 11.3 0.3 5.2-15.5 10.8-32.9 13.8-49z"/>
				<path id="&lt;Path&gt;" class="s4" d="m502.9 211c2.5 7.2 6.5 13.9 11.8 19.5 7.5 1.3 11.6-5.2 13-8-2.4-8.2-5.9-14.8-9.2-22.7-7.5 1-11.9 4.5-15.6 11.2z"/>
				<path id="&lt;Path&gt;" class="s3" d="m513.4 228.9c-4.7-5.2-8.3-11.3-10.5-17.9 3.7-6.7 8.1-10.2 15.6-11.2 1.7 4 3.4 7.7 5 11.4-2.1 6.5-5.6 12.6-10.1 17.7z"/>
				<path id="&lt;Path&gt;" class="s4" d="m495.8 222.6c-10-9.5-15.6-24.2-14.8-38.7 0.6-11.5 10.7-23.5 21.1-24.7 10.5-1.2 21.1 6.1 25.3 16.7 4.2 10.6 2.1 23.7-4.7 32.5-6.8 8.9-16.4 15.2-26.9 14.2z"/>
				<path id="&lt;Path&gt;" class="s4" d="m433.8 259.8c15.7 22.8 36.6 28.2 41.8 45.9 12.3-24.8 22.2-33.8 35.5-53.2 5-7.3 7.6-17.9 16.3-19.3 4.9-0.9 8.5 5 9 10 0.4 5-1.8 9.9-4 14.4-11.9 23.9-35.3 71-52.3 71-10.6 0-42.7-36.4-56.9-63.3 4.6-4.1 4.6-4 10.6-5.5z"/>
				<path id="&lt;Path&gt;" class="s5" d="m491.5 279.1c6.3-1 12.9 0.1 17.9 4.2 2.5 2 4.4 4.7 5.4 7.8-3.7 6.5-7.7 12.8-11.6 18.4-7.8-6.4-13.2-15.7-15-25.6q1.6-2.5 3.3-4.8z"/>
				<path id="&lt;Path&gt;" class="s7" d="m431.2 263l3.3-8.7c0.6-1.5 0.2-3.1-0.9-4.1l-20.8-18.9c-1.4-1.2-3.5-0.7-4.1 1l-3.3 8.7c-0.6 1.4-0.2 3.1 1 4.1l20.8 18.8c1.3 1.2 3.4 0.7 4-0.9z"/>
				<path id="&lt;Path&gt;" class="s4" d="m432.9 263.4c-0.8 0.1-1.5-0.5-2-1.1-0.5-0.7-0.8-1.5-1.2-2.2-2-3.4-6.5-5-10.2-3.6-1.6-2.8-5-4.5-8.1-4.5 1.7 1.9 3.5 4.8 4.4 7.2 1.8 4.4 7.7 6.7 12.5 7.4 1.7-0.7 3.2-1.9 4.6-3.2z"/>
				<path id="&lt;Path&gt;" class="s1" d="m508.7 244.1q-10.2 15.8-21.1 31.1c1.9 7.2 6.7 14.2 12.7 18.6 5.9 4.5 13.3 6.8 20.7 6.7 7-14.8 14.7-31.3 19.7-46.9 1.5-4.7 2.8-10 0.7-14.5-2.1-4.7-7.6-7.2-12.7-7.3-1.5 0-3 0.2-4.6 0.6-6.4 1.8-11.8 6.1-15.4 11.7z"/>
				<path id="&lt;Path&gt;" class="s6" d="m539.6 209.7c-3.1 2.6-7.4 3.7-11.3 3.1-4-0.6-7.7-3-9.9-6.3-3.3-5-3.6-12-8.4-15.5-2.8-2.1-6.4-2.4-9.9-2.3-3.5 0-7 0.5-10.3-0.3-3.4-0.7-8-2.8-8.7-6.2-0.6 6.1-4.2 11.7-9.4 14.9-1.8-10.9-2.3-23.5 4.3-32.4 7-9.4 19.8-13.6 31.3-11.4 11.6 2.2 21.5 10.3 27.2 20.6 5.7 10.2 6.6 24.2 5.1 35.8z"/>
				<path id="&lt;Path&gt;" class="s6" d="m508.5 188.7c8.9 4.1 12.4 14.8 14.1 24.4 1.7 9.6 3 20.1 10 27 3.2 3.1 7.4 5.2 10.5 8.5 3.2 3.5 4.9 8 6.8 12.3 1.9 4.3 4.3 8.7 8.2 11.2 4 2.6 9.9 2.7 12.9-1 6.5-8.2 1.7-22.2-3.1-31.6-4.7-9.4-12-17.2-19.2-24.8q-10-10.7-20-21.3c-3.4-3.6-7.1-7.4-11.9-8.7-4.8-1.3-7.6-0.9-8.3 4z"/>
				<path id="&lt;Path&gt;" fill-rule="evenodd" class="s8" d="m563 365.8c3.4 12.3 3.6 26.8-4.8 36.4-8 9.2-21.7 11.2-33.9 9.9-12.1-1.4-23.9-5.4-36.2-5.9-13.3-0.4-27.8 4.3-34.7 15.7-4.4 7.2-5.2 15.9-5.6 24.3-1.4 27.1 0.3 54.5 5.1 81.3"/>
				<path id="&lt;Path&gt;" class="s9" d="m460.4 305.2c-9.6-9.1-18.5-19-26.5-29.6 4.6 13.5 13.3 24.3 26.5 29.6z"/>
				<path id="&lt;Path&gt;" class="s2" d="m239.6 342h245.2c3.7 0 6.7-3 6.7-6.7 0-3.7-3-6.7-6.7-6.7h-245.2c-3.7 0-6.7 3-6.7 6.7 0 3.7 3 6.7 6.7 6.7z"/>
				<path id="&lt;Path&gt;" class="s4" d="m486.8 197.2c2.2 4 3.5 9.1 3 13.7-2.3-0.2-5.2-0.7-7.5-0.8 0-0.4-0.2-0.8-0.3-1.2 1.8-4.4 2.8-9.1 2.7-13.9 1.3 0.7 1.4 0.9 2.1 2.2z"/>
				<path id="&lt;Path&gt;" class="s6" d="m493.1 195.9c1 0 1.7 1.4 1.7 3.2 0 1.8-0.7 3.2-1.7 3.2-0.9 0-1.6-1.4-1.6-3.2 0-1.8 0.7-3.2 1.6-3.2z"/>
				<path id="&lt;Path&gt;" class="s6" d="m489.1 191.8c3.4-2.4 8.3-2.5 11.7-0.1 0.3 0.2 0.3 0.3 0.2 0.5-0.2 0.2-0.5 0.3-0.7 0.2-0.3 0-0.5-0.1-0.8-0.3-1.3-0.6-2.8-0.4-4.2-0.1-1.5 0.3-2.9 0.7-4.3 0.8-0.7 0-1.8-0.4-1.9-1z"/>
				<path id="&lt;Path&gt;" class="s10" d="m498.4 202.9c3.9 0 7 1 7 2.3 0 1.2-3.1 2.2-7 2.2-3.8 0-6.9-1-6.9-2.2 0-1.3 3.1-2.3 6.9-2.3z"/>
				<path id="&lt;Path&gt;" class="s2" d="m290.1 591.3h144.3c3.1 0 5.7-2.6 5.7-5.8 0-3.2-2.6-5.7-5.7-5.7h-144.3c-3.2 0-5.8 2.5-5.8 5.7 0 3.2 2.6 5.8 5.8 5.8z"/>
				<path id="&lt;Path&gt;" class="s3" d="m290.1 591.3h144.3c3.1 0 5.7-2.6 5.7-5.8 0-3.2-2.6-5.7-5.7-5.7h-144.3c-3.2 0-5.8 2.5-5.8 5.7 0 3.2 2.6 5.8 5.8 5.8z"/>
			</g>
			<g id="&lt;Group&gt;">
				<path id="&lt;Path&gt;" class="s7" d="m42.4 591.3h236.1l-27.2-195.3h-181.7z"/>
				<path id="&lt;Path&gt;" class="s5" d="m278.5 591.3h-236.1l6.4-46h223.3z"/>
				<g id="&lt;Group&gt;">
					<path id="&lt;Path&gt;" class="s2" d="m136.9 415.5c1.4 0 2.5-1.1 2.5-2.6v-28c0-11.6 9.5-21 21.1-21 11.5 0 21 9.4 21 21v28c0 1.5 1.1 2.6 2.5 2.6 1.4 0 2.6-1.1 2.6-2.6v-28c0-14.4-11.8-26.1-26.1-26.1-14.4 0-26.1 11.7-26.1 26.1v28c0 1.5 1.1 2.6 2.5 2.6z"/>
				</g>
			</g>
			<g id="&lt;Group&gt;">
				<path id="&lt;Path&gt;" class="s11" d="m142.7 591.3h185.5l-21.3-153.4h-142.8z"/>
				<path id="&lt;Path&gt;" class="s5" d="m328.2 591.3h-185.5l5-36.2h175.5z"/>
				<g id="&lt;Group&gt;">
					<path id="&lt;Path&gt;" class="s2" d="m217 453.1c1.1 0 2-0.8 2-2v-22c0-9.1 7.4-16.5 16.5-16.5 9.1 0 16.5 7.4 16.5 16.5v22c0 1.2 0.9 2 2 2 1.1 0 2-0.8 2-2v-22c0-11.3-9.2-20.5-20.5-20.5-11.3 0-20.5 9.2-20.5 20.5v22c0 1.2 0.9 2 2 2z"/>
				</g>
			</g>
			<g id="&lt;Group&gt;">
				<path id="&lt;Path&gt;" class="s1" d="m93.1 591.3h142.4l-16.4-117.8h-109.6z"/>
				<path id="&lt;Path&gt;" class="s5" d="m235.5 591.3h-142.4l3.8-27.8h134.7z"/>
				<g id="&lt;Group&gt;">
					<path id="&lt;Path&gt;" class="s2" d="m150.1 485.2c0.8 0 1.5-0.6 1.5-1.5v-16.9c0-7 5.7-12.7 12.7-12.7 6.9 0 12.6 5.7 12.6 12.7v16.9c0 0.9 0.7 1.5 1.6 1.5 0.8 0 1.5-0.6 1.5-1.5v-16.9c0-8.7-7.1-15.7-15.7-15.7-8.7 0-15.8 7-15.8 15.7v16.9c0 0.9 0.7 1.5 1.6 1.5z"/>
				</g>
			</g>
			<g id="&lt;Group&gt;">
				<path id="&lt;Path&gt;" class="s7" d="m359.7 30.3c23.2 0 41.9 18.7 41.9 41.9 0 23.1-18.7 41.8-41.9 41.8-23.1 0-41.8-18.7-41.8-41.8 0-23.2 18.7-41.9 41.8-41.9z"/>
				<path id="&lt;Path&gt;" class="s11" d="m334.2 85h49c4.1 0 7.5-3.3 7.5-7.4v-10.9c0-4.1-3.4-7.4-7.5-7.4h-49c-4.1 0-7.4 3.3-7.4 7.4v10.9c0 4.1 3.3 7.4 7.4 7.4z"/>
				<text id="BUY " style="transform: matrix(2,0,0,2,342.885,77.567)" >
					<tspan x="0" y="0" class="t12">BUY
</tspan>
				</text>
			</g>
			<g id="&lt;Group&gt;">
				<path id="&lt;Path&gt;" class="s11" d="m251.2 96.3c23.8 0 43 19.2 43 43 0 23.8-19.2 43-43 43-23.8 0-43-19.2-43-43 0-23.8 19.2-43 43-43z"/>
				<g id="&lt;Group&gt;">
					<path id="&lt;Path&gt;" class="s7" d="m230.5 155.6h41c3.2 0 5.8-2.6 5.8-5.8v-22.3c0-3.2-2.6-5.8-5.8-5.8h-41c-3.2 0-5.8 2.6-5.8 5.8v22.3c0 3.2 2.6 5.8 5.8 5.8z"/>
					<path id="&lt;Path&gt;" class="s6" d="m277.3 143.2v3.9h-52.6v-3.9z"/>
					<path id="&lt;Path&gt;" class="s3" d="m251.7 132.8h19.1c0.9 0 1.5-0.7 1.5-1.5 0-0.9-0.6-1.6-1.5-1.6h-19.1c-0.8 0-1.5 0.7-1.5 1.6 0 0.8 0.7 1.5 1.5 1.5z"/>
					<path id="&lt;Path&gt;" class="s3" d="m251.7 138.8h19.1c0.9 0 1.5-0.7 1.5-1.6 0-0.8-0.6-1.5-1.5-1.5h-19.1c-0.8 0-1.5 0.7-1.5 1.5 0 0.9 0.7 1.6 1.5 1.6z"/>
				</g>
			</g>
			<g id="&lt;Group&gt;">
				<path id="&lt;Path&gt;" class="s11" d="m506.2 9c33.2 0 60 26.8 60 60 0 33.1-26.8 59.9-60 59.9-33.1 0-59.9-26.8-59.9-59.9 0-33.2 26.8-60 59.9-60z"/>
				<g id="&lt;Group&gt;">
					<path id="&lt;Path&gt;" class="s13" d="m542 58.4v41.3h-71.5v-41.3z"/>
					<path id="&lt;Path&gt;" class="s13" d="m503.2 29.1h6.1l32.7 29.3h-71.5z"/>
					<path id="&lt;Path&gt;" class="s5" d="m503.2 29.1h6.1l32.7 29.3h-71.5z"/>
					<path id="&lt;Path&gt;" class="s5" d="m503.2 70.3h6.1l32.7 29.4h-71.5z"/>
					<path id="&lt;Path&gt;" class="s5" d="m470.5 58.4l35.7 26.6 35.8-26.6v41.3h-71.5z"/>
				</g>
			</g>
			<g id="&lt;Group&gt;">
				<path id="&lt;Path&gt;" class="s7" d="m164.2 209.8c32.1 0 58 25.9 58 58 0 32.1-25.9 58-58 58-32 0-57.9-25.9-57.9-58 0-32.1 25.9-58 57.9-58z"/>
				<path id="&lt;Compound Path&gt;" fill-rule="evenodd" class="s11" d="m126.9 258.2l-1.8-16.4c-0.8-7.5 5.5-13.8 13-13l16.4 1.8c4.2 0.5 8 2.4 11 5.3l36.9 36.9c2.6 2.6 2.6 6.9 0 9.5l-23.8 23.8c-2.6 2.6-6.9 2.6-9.5 0l-36.9-36.9c-3-3-4.8-6.8-5.3-11zm12.2-15.4c1.4-1.3 1.4-3.6 0-4.9-1.3-1.4-3.6-1.4-4.9 0-1.4 1.3-1.4 3.6 0 4.9 1.3 1.4 3.6 1.4 4.9 0z"/>
				<text id="SALE " style="transform: matrix(1.364,1.588,-1.588,1.364,150.481,259.385)" >
					<tspan x="0" y="0" class="t12">SALE
</tspan>
				</text>
			</g>
			<g id="&lt;Group&gt;">
				<path id="&lt;Path&gt;" class="s0" d="m95.6 339.8c2.1 0 3.8 1.7 3.8 3.8 0 2-1.7 3.7-3.8 3.7-2 0-3.7-1.7-3.7-3.7 0-2.1 1.7-3.8 3.7-3.8z"/>
				<path id="&lt;Path&gt;" class="s0" d="m354.7 189.4c3.6 0 6.6 2.9 6.6 6.6 0 3.6-3 6.5-6.6 6.5-3.7 0-6.6-2.9-6.6-6.5 0-3.7 2.9-6.6 6.6-6.6z"/>
				<path id="&lt;Path&gt;" class="s0" d="m442.4 135.4c2.2 0 4 1.8 4 4 0 2.2-1.8 4-4 4-2.2 0-4-1.8-4-4 0-2.2 1.8-4 4-4z"/>
				<path id="&lt;Path&gt;" class="s0" d="m393 287.8c2.6 0 4.7 2.1 4.7 4.7 0 2.5-2.1 4.6-4.7 4.6-2.5 0-4.6-2.1-4.6-4.6 0-2.6 2.1-4.7 4.6-4.7z"/>
				<path id="&lt;Path&gt;" class="s0" d="m426.3 371c2.6 0 4.7 2.1 4.7 4.7 0 2.5-2.1 4.6-4.7 4.6-2.5 0-4.6-2.1-4.6-4.6 0-2.6 2.1-4.7 4.6-4.7z"/>
				<path id="&lt;Path&gt;" class="s0" d="m213.9 170.1c2.4 0 4.4 1.9 4.4 4.4 0 2.4-2 4.3-4.4 4.3-2.4 0-4.3-1.9-4.3-4.3 0-2.5 1.9-4.4 4.3-4.4z"/>
				<path id="&lt;Path&gt;" class="s0" d="m183.4 307.4c2.4 0 4.4 1.9 4.4 4.4 0 2.4-2 4.3-4.4 4.3-2.4 0-4.3-1.9-4.3-4.3 0-2.5 1.9-4.4 4.3-4.4z"/>
				<path id="&lt;Path&gt;" class="s0" d="m241.7 264.2c2.5 0 4.5 2 4.5 4.5 0 2.5-2 4.5-4.5 4.5-2.5 0-4.5-2-4.5-4.5 0-2.5 2-4.5 4.5-4.5z"/>
				<path id="&lt;Path&gt;" class="s0" d="m270.5 157.5c2.5 0 4.5 2 4.5 4.5 0 2.4-2 4.4-4.5 4.4-2.5 0-4.5-2-4.5-4.4 0-2.5 2-4.5 4.5-4.5z"/>
				<path id="&lt;Path&gt;" class="s0" d="m301.1 389.9c2.5 0 4.5 2 4.5 4.5 0 2.4-2 4.4-4.5 4.4-2.5 0-4.5-2-4.5-4.4 0-2.5 2-4.5 4.5-4.5z"/>
			</g>
		</g>
	</g>
</svg>